<svg id="men_0" xmlns="http://www.w3.org/2000/svg" xmlns:xlink="http://www.w3.org/1999/xlink" viewBox="0 0 93.13 94.96"><defs><linearGradient id="a" x1="45.64" y1="56.2" x2="45.19" y2="53.39" gradientTransform="translate(0 28.24)" gradientUnits="userSpaceOnUse"><stop offset="0" stop-color="#b4af91"/><stop offset="0.26" stop-color="#aea88d"/><stop offset="0.63" stop-color="#9f9582"/><stop offset="1" stop-color="#8b7b74"/></linearGradient><linearGradient id="b" x1="36.39" y1="48.01" x2="36.84" y2="42.28" xlink:href="#a"/><linearGradient id="c" x1="54.78" y1="49.53" x2="53.55" y2="42.35" xlink:href="#a"/><radialGradient id="d" cx="35.27" cy="27.5" r="6.9" gradientTransform="translate(14.14 44.89)" gradientUnits="userSpaceOnUse"><stop offset="0" stop-color="#101221"/><stop offset="0.27" stop-color="#202638"/><stop offset="0.74" stop-color="#39455b"/><stop offset="1" stop-color="#425168"/></radialGradient><radialGradient id="e" cx="27.13" cy="62.74" r="11.55" gradientTransform="matrix(1, 0, 0, -1, 0.01, 105.57)" xlink:href="#d"/><linearGradient id="f" x1="30.79" y1="2.95" x2="30.79" y2="-9.31" gradientTransform="translate(14.14 44.89)" gradientUnits="userSpaceOnUse"><stop offset="0.18" stop-color="#faf9f3"/><stop offset="0.44" stop-color="#f0eee6"/><stop offset="0.77" stop-color="#dfdcd0"/></linearGradient><radialGradient id="g" cx="30.78" cy="-9.76" r="13.47" gradientTransform="translate(14.14 44.89)" gradientUnits="userSpaceOnUse"><stop offset="0.06" stop-color="#b83f51"/><stop offset="0.88" stop-color="#cb465a"/><stop offset="1" stop-color="#ce475b"/></radialGradient><radialGradient id="h" cx="14.8" cy="56.25" r="14.21" gradientTransform="matrix(1, 0, 0, -1, 0.01, 105.57)" xlink:href="#d"/><radialGradient id="i" cx="21.1" cy="1.28" r="8.45" gradientTransform="translate(14.14 44.89)" gradientUnits="userSpaceOnUse"><stop offset="0" stop-color="#101221"/><stop offset="0.19" stop-color="#474954"/><stop offset="0.48" stop-color="#95969d"/><stop offset="0.72" stop-color="#cecfd2"/><stop offset="0.9" stop-color="#f2f2f3"/><stop offset="1" stop-color="#fff"/></radialGradient><radialGradient id="j" cx="49.65" cy="47.67" r="18.22" gradientTransform="matrix(1, 0, 0, -1, 0.01, 105.57)" xlink:href="#d"/><radialGradient id="k" cx="38.52" cy="62.51" r="10.21" gradientTransform="matrix(1, 0, 0, -1, 0.01, 105.57)" xlink:href="#d"/><radialGradient id="l" cx="37.18" cy="45.11" r="8.85" gradientTransform="matrix(1, 0, 0, -1, 0.01, 105.57)" xlink:href="#d"/><radialGradient id="m" cx="42.73" cy="42" r="6.56" gradientTransform="matrix(1, 0, 0, -1, 0.01, 105.57)" xlink:href="#d"/><linearGradient id="n" x1="30.86" y1="-11.59" x2="30.69" y2="-15.38" gradientTransform="translate(14.14 44.89)" gradientUnits="userSpaceOnUse"><stop offset="0" stop-color="#e5be98"/><stop offset="0.23" stop-color="#dfb491"/><stop offset="0.62" stop-color="#d1987f"/><stop offset="1" stop-color="#bf7769"/></linearGradient><linearGradient id="o" x1="23.74" y1="-22.72" x2="20.82" y2="-22.32" gradientTransform="translate(14.14 44.89)" gradientUnits="userSpaceOnUse"><stop offset="0.06" stop-color="#b47562"/><stop offset="0.14" stop-color="#bb806a"/><stop offset="0.43" stop-color="#d2a283"/><stop offset="0.67" stop-color="#e0b692"/><stop offset="0.83" stop-color="#e5be98"/></linearGradient><linearGradient id="p" x1="20.53" y1="-26.36" x2="20.71" y2="-10.58" gradientTransform="matrix(0.99, -0.11, 0.11, 0.99, 26.61, 47.02)" gradientUnits="userSpaceOnUse"><stop offset="0.23" stop-color="#7d5d4c"/><stop offset="0.81" stop-color="#452723"/></linearGradient><linearGradient id="q" x1="20.49" y1="-38.7" x2="20.49" y2="-23.52" gradientTransform="matrix(0.99, -0.11, 0.11, 0.99, 26.61, 47.02)" gradientUnits="userSpaceOnUse"><stop offset="0.16" stop-color="#7d5d4c"/><stop offset="0.82" stop-color="#452723"/></linearGradient><linearGradient id="r" x1="-711.46" y1="-22.3" x2="-711.46" y2="-28.23" gradientTransform="matrix(-0.99, 0.11, 0.11, 0.99, -654.69, 125.01)" gradientUnits="userSpaceOnUse"><stop offset="0.11" stop-color="#e5be98"/><stop offset="0.3" stop-color="#e2b994"/><stop offset="0.54" stop-color="#daa98a"/><stop offset="0.79" stop-color="#cd907a"/><stop offset="1" stop-color="#bf7769"/></linearGradient><linearGradient id="s" x1="31.98" y1="-25.61" x2="33.91" y2="-25.61" gradientTransform="translate(14.14 44.89)" gradientUnits="userSpaceOnUse"><stop offset="0" stop-color="#87b7cb"/><stop offset="0.72" stop-color="#425474"/></linearGradient><linearGradient id="t" x1="-710.65" y1="-28.44" x2="-707.49" y2="-28.44" gradientTransform="matrix(-0.99, 0.11, 0.11, 0.99, -654.69, 125.01)" gradientUnits="userSpaceOnUse"><stop offset="0.1" stop-color="#7d5d4c"/><stop offset="0.92" stop-color="#452723"/></linearGradient><linearGradient id="u" x1="17.8" y1="-22.75" x2="17.8" y2="-28.57" gradientTransform="matrix(0.99, -0.11, 0.11, 0.99, 26.61, 47.02)" gradientUnits="userSpaceOnUse"><stop offset="0.11" stop-color="#e5be98"/><stop offset="0.3" stop-color="#e2b894"/><stop offset="0.55" stop-color="#d9a789"/><stop offset="0.83" stop-color="#c98b76"/><stop offset="1" stop-color="#bf7769"/></linearGradient><linearGradient id="v" x1="20.52" y1="-29.57" x2="20.52" y2="-20.88" gradientTransform="matrix(0.99, -0.11, 0.11, 0.99, 26.61, 47.02)" gradientUnits="userSpaceOnUse"><stop offset="0.2" stop-color="#e5be98"/><stop offset="0.36" stop-color="#e3b895"/><stop offset="0.57" stop-color="#dea68c"/><stop offset="0.81" stop-color="#d68a7f"/><stop offset="1" stop-color="#ce6e71"/></linearGradient><linearGradient id="w" x1="55.97" y1="13.93" x2="61.26" y2="13.93" gradientTransform="matrix(-0.95, 0.31, 0.31, 0.95, 96.29, -6.5)" xlink:href="#v"/><linearGradient id="x" x1="487.16" y1="164.19" x2="487.04" y2="167" gradientTransform="matrix(1.05, -0.31, 0.25, 0.97, -511.6, 9)" xlink:href="#t"/><linearGradient id="y" x1="26.11" y1="-24.91" x2="28.04" y2="-24.91" xlink:href="#s"/><linearGradient id="z" x1="16.06" y1="-26.17" x2="19.22" y2="-26.17" gradientTransform="matrix(0.99, -0.11, 0.11, 0.99, 26.61, 47.02)" xlink:href="#t"/><linearGradient id="aa" x1="28.22" y1="-23.67" x2="29.76" y2="-23.42" gradientTransform="matrix(0.99, -0.11, 0.11, 0.99, 26.61, 47.02)" xlink:href="#o"/><linearGradient id="ab" x1="1636.49" y1="-18.41" x2="1638.04" y2="-18.16" gradientTransform="matrix(-0.99, 0.11, 0.11, 0.99, 1665.98, -141.52)" gradientUnits="userSpaceOnUse"><stop offset="0.06" stop-color="#b47562"/><stop offset="0.23" stop-color="#cb9e91"/><stop offset="0.42" stop-color="#e1c8c0"/><stop offset="0.59" stop-color="#f1e6e2"/><stop offset="0.73" stop-color="#fbf8f7"/><stop offset="0.83" stop-color="#fff"/></linearGradient><linearGradient id="ac" x1="-203.69" y1="-65.02" x2="-203.81" y2="-62.2" gradientTransform="matrix(-1.08, -0.01, -0.04, 1, -175.88, 76.86)" xlink:href="#t"/><linearGradient id="ad" x1="32.04" y1="-8.96" x2="37.59" y2="-14.1" xlink:href="#f"/><radialGradient id="ae" cx="23.72" cy="-18.75" r="1.8" gradientTransform="translate(14.14 44.89)" gradientUnits="userSpaceOnUse"><stop offset="0.06" stop-color="#b47562"/><stop offset="0.16" stop-color="#bb806a"/><stop offset="0.51" stop-color="#d2a283"/><stop offset="0.81" stop-color="#e0b692"/><stop offset="1" stop-color="#e5be98"/></radialGradient><linearGradient id="af" x1="30.14" y1="-8.45" x2="24.75" y2="-13.25" xlink:href="#f"/><linearGradient id="ag" x1="56.51" y1="0.15" x2="56.95" y2="4.78" gradientTransform="translate(14.14 44.89)" gradientUnits="userSpaceOnUse"><stop offset="0" stop-color="#9ccb69"/><stop offset="1" stop-color="#68793a"/></linearGradient><linearGradient id="ah" x1="58.43" y1="-1.42" x2="57.97" y2="3.23" xlink:href="#ag"/><linearGradient id="ai" x1="59.25" y1="-0.02" x2="57.7" y2="6.53" xlink:href="#ag"/><linearGradient id="aj" x1="57.48" y1="1.24" x2="56.89" y2="6.85" gradientTransform="translate(14.14 44.89)" gradientUnits="userSpaceOnUse"><stop offset="0" stop-color="#9ccb69"/><stop offset="0.08" stop-color="#97c565"/><stop offset="0.96" stop-color="#68793a"/></linearGradient><linearGradient id="ak" x1="54.48" y1="1.51" x2="55.67" y2="6.61" xlink:href="#ag"/><linearGradient id="al" x1="53.27" y1="2.74" x2="55.46" y2="7.29" xlink:href="#ag"/><linearGradient id="am" x1="55.52" y1="1.82" x2="56.81" y2="6.67" xlink:href="#ag"/><linearGradient id="an" x1="60.44" y1="0.54" x2="58.35" y2="7.81" gradientTransform="translate(14.14 44.89)" gradientUnits="userSpaceOnUse"><stop offset="0" stop-color="#9ccb69"/><stop offset="0.77" stop-color="#68793a"/></linearGradient><linearGradient id="ao" x1="61.1" y1="3.07" x2="59.92" y2="5.64" xlink:href="#ag"/><linearGradient id="ap" x1="60.65" y1="2.72" x2="58.68" y2="6.92" xlink:href="#ag"/><linearGradient id="aq" x1="53.86" y1="9.22" x2="60.65" y2="9.22" gradientTransform="translate(14.14 44.89)" gradientUnits="userSpaceOnUse"><stop offset="0" stop-color="#b1804e"/><stop offset="1" stop-color="#682d2e"/></linearGradient><linearGradient id="ar" x1="-0.53" y1="8.9" x2="5.47" y2="8.9" gradientTransform="translate(14.14 44.89)" gradientUnits="userSpaceOnUse"><stop offset="0.07" stop-color="#b13d55"/><stop offset="0.63" stop-color="#802d41"/><stop offset="0.71" stop-color="#7a2b3e"/><stop offset="0.82" stop-color="#692536"/><stop offset="0.91" stop-color="#551e2c"/></linearGradient><linearGradient id="as" x1="5.2" y1="59.28" x2="12" y2="26.99" xlink:href="#a"/><linearGradient id="at" x1="-120.3" y1="46.95" x2="-113.51" y2="14.67" gradientTransform="matrix(-1, 0, 0, 1, -98.39, 40.56)" xlink:href="#a"/><linearGradient id="au" x1="66.75" y1="59.28" x2="73.54" y2="26.99" xlink:href="#a"/><linearGradient id="av" x1="-181.85" y1="46.95" x2="-175.05" y2="14.67" gradientTransform="matrix(-1, 0, 0, 1, -98.39, 40.56)" xlink:href="#a"/><radialGradient id="aw" cx="45.36" cy="18.24" r="1.46" gradientTransform="translate(0.01 32.57)" gradientUnits="userSpaceOnUse"><stop offset="0.04" stop-color="#364971"/><stop offset="0.3" stop-color="#34466c"/><stop offset="0.6" stop-color="#2d3c5d"/><stop offset="0.93" stop-color="#222d45"/><stop offset="0.98" stop-color="#202a41"/></radialGradient><linearGradient id="ax" x1="31.23" y1="11.59" x2="31.23" y2="1.96" gradientTransform="translate(14.14 44.89)" gradientUnits="userSpaceOnUse"><stop offset="0" stop-color="#98a9c1"/><stop offset="0.66" stop-color="#b2c1d5"/><stop offset="0.93" stop-color="#b3c3d6"/><stop offset="0.96" stop-color="#b5c5d8"/><stop offset="0.97" stop-color="#bdccdd"/><stop offset="0.98" stop-color="#cbd7e7"/><stop offset="0.98" stop-color="#dee8f5"/><stop offset="0.99" stop-color="#ecf4ff"/><stop offset="0.99" stop-color="#dee7f2"/><stop offset="1" stop-color="#bbc4d1"/><stop offset="1" stop-color="#acb6c4"/></linearGradient><linearGradient id="ay" x1="45.37" y1="24.57" x2="45.37" y2="21.38" gradientTransform="translate(0 28.24)" gradientUnits="userSpaceOnUse"><stop offset="0.11" stop-color="#fcfdff"/><stop offset="0.58" stop-color="#b9c9dd"/><stop offset="1" stop-color="#9daabd"/></linearGradient><linearGradient id="az" x1="45.37" y1="24.16" x2="45.37" y2="23.52" gradientTransform="translate(0 28.24)" gradientUnits="userSpaceOnUse"><stop offset="0.11" stop-color="#fcfdff"/><stop offset="0.23" stop-color="#f9fbfd"/><stop offset="0.3" stop-color="#f1f2f5"/><stop offset="0.36" stop-color="#e2e4e8"/><stop offset="0.41" stop-color="#ced0d5"/><stop offset="0.46" stop-color="#b3b7bc"/><stop offset="0.51" stop-color="#92979e"/><stop offset="0.55" stop-color="#6c727c"/><stop offset="0.57" stop-color="#5c636d"/><stop offset="0.58" stop-color="#b9c9dd"/></linearGradient><linearGradient id="ba" x1="28.25" y1="11.97" x2="28.25" y2="11.52" gradientTransform="translate(14.14 44.89)" xlink:href="#ay"/><linearGradient id="bb" x1="34.19" y1="11.97" x2="34.19" y2="11.52" gradientTransform="translate(14.14 44.89)" xlink:href="#ay"/><linearGradient id="bc" x1="45.38" y1="17.86" x2="45.38" y2="18.21" gradientTransform="translate(0 28.24)" gradientUnits="userSpaceOnUse"><stop offset="0" stop-color="#b5b5b5"/><stop offset="0.22" stop-color="#949494"/><stop offset="0.7" stop-color="#404040"/><stop offset="0.98" stop-color="#0d0d0d"/></linearGradient><linearGradient id="bd" x1="31.24" y1="5.3" x2="31.24" y2="5.98" gradientTransform="translate(14.14 44.89)" xlink:href="#bc"/><linearGradient id="be" x1="31.24" y1="5.41" x2="31.24" y2="6.14" gradientTransform="translate(14.14 44.89)" gradientUnits="userSpaceOnUse"><stop offset="0" stop-color="#424242"/><stop offset="0.24" stop-color="#262626"/><stop offset="0.5" stop-color="#111"/><stop offset="0.75" stop-color="#040404"/><stop offset="0.98"/></linearGradient><linearGradient id="bf" x1="31.25" y1="5.31" x2="31.21" y2="6.64" gradientTransform="translate(14.14 44.89)" gradientUnits="userSpaceOnUse"><stop offset="0" stop-color="#424242"/><stop offset="0.16" stop-color="#363636"/><stop offset="0.44" stop-color="#161616"/><stop offset="0.6"/></linearGradient><linearGradient id="bg" x1="45.37" y1="18.17" x2="45.37" y2="17.84" xlink:href="#bc"/><linearGradient id="bh" x1="31.24" y1="5.37" x2="31.24" y2="5.87" gradientTransform="translate(14.14 44.89)" xlink:href="#bc"/><linearGradient id="bi" x1="31.23" y1="5.34" x2="31.25" y2="6.2" gradientTransform="translate(14.14 44.89)" gradientUnits="userSpaceOnUse"><stop offset="0" stop-color="#b5b5b5"/><stop offset="0.04" stop-color="#949494"/><stop offset="0.12" stop-color="#404040"/><stop offset="0.16" stop-color="#0d0d0d"/></linearGradient><radialGradient id="bj" cx="31.25" cy="5.75" r="0.21" gradientTransform="translate(14.14 44.89)" gradientUnits="userSpaceOnUse"><stop offset="0" stop-color="#949494"/><stop offset="0.25" stop-color="#5f5f5f"/><stop offset="0.67"/></radialGradient><linearGradient id="bk" x1="45.42" y1="17.81" x2="45.36" y2="18.09" gradientTransform="translate(0 28.24)" gradientUnits="userSpaceOnUse"><stop offset="0" stop-color="#949494"/><stop offset="0.2" stop-color="#5e5e5e"/><stop offset="0.42" stop-color="#2b2b2b"/><stop offset="0.58" stop-color="#0c0c0c"/><stop offset="0.67"/></linearGradient><linearGradient id="bl" x1="58.38" y1="16.78" x2="58.66" y2="18.76" gradientTransform="translate(0 28.24)" gradientUnits="userSpaceOnUse"><stop offset="0.51" stop-color="#384b74"/><stop offset="0.98" stop-color="#213152"/></linearGradient><linearGradient id="bm" x1="58.53" y1="18.52" x2="58.53" y2="17.31" xlink:href="#bl"/><linearGradient id="bn" x1="23.33" y1="4.6" x2="23.33" y2="5.56" gradientTransform="translate(14.14 44.89)" gradientUnits="userSpaceOnUse"><stop offset="0" stop-color="#b5b5b5"/><stop offset="0.21" stop-color="#949494"/><stop offset="0.66" stop-color="#404040"/><stop offset="0.98"/></linearGradient><linearGradient id="bo" x1="22.52" y1="4.6" x2="22.52" y2="5.56" xlink:href="#bn"/><linearGradient id="bp" x1="21.72" y1="4.77" x2="21.72" y2="5.64" xlink:href="#bn"/><linearGradient id="bq" x1="20.87" y1="4.77" x2="20.87" y2="5.64" xlink:href="#bn"/></defs><title>men_0</title><path d="M93.14,97S72.3,99.29,46.58,99.29,0,97,0,97s20.85-2.28,46.58-2.28S93.14,97,93.14,97Z" transform="translate(-0.01 -4.33)" style="fill:#dfdfdf"/><polygon points="36.07 81.23 35.91 82.83 54.76 82.24 54.59 81.31 36.07 81.23" style="fill:url(#a)"/><polygon points="36.16 68.68 33.72 92.51 34.81 92.51 38.35 68.93 36.16 68.68" style="fill:url(#b)"/><polygon points="54.59 68.68 57.04 92.51 55.94 92.51 52.41 68.93 54.59 68.68" style="fill:url(#c)"/><path d="M34.63,72.77h0a1,1,0,0,0,.94.85l19.14.46a1,1,0,0,0,1-1v-.23a1,1,0,0,0-1-.9l-19.12-.23a1,1,0,0,0-1,1Z" transform="translate(-0.01 -4.33)" style="fill:#683639"/><path d="M52.75,72.17a16.67,16.67,0,0,1-6.23-.51l-.76-3.87S52.5,69.64,52.75,72.17Z" transform="translate(-0.01 -4.33)" style="fill:url(#d)"/><path d="M44.37,93.89l-.13,2.27.42.17s-1,1.24,3.35,1.35a1.69,1.69,0,0,0-1.77-2.36,5.16,5.16,0,0,1-.55-1.14Z" transform="translate(-0.01 -4.33)" style="fill:#101221"/><path d="M35.41,65c-.59,3.87-.42,6.65,1.68,7.16a58.22,58.22,0,0,0,6.48.84L44,94.27s2.4.46,2.4,0,2.78-18.94,2.53-22S44,67.89,44,67.89l.08-2.19Z" transform="translate(-0.01 -4.33)" style="fill:url(#e)"/><path d="M44.92,52.3a25.52,25.52,0,0,1-4-10.89l-2.4-7.52,6.4.08s6.82.67,6.4.84-2.65,7.91-2.65,7.91S46.86,50,44.92,52.3Z" transform="translate(-0.01 -4.33)" style="fill:url(#f)"/><path d="M46.47,47.78l.21,2.11a16.37,16.37,0,0,1-1.76,2.36,16.38,16.38,0,0,1-1.78-2.36l.21-2.16,1-10-1.6-1.52,2.19-2.36,2.2,2.45-1.6,1.52Z" transform="translate(-0.01 -4.33)" style="fill:url(#g)"/><path d="M45.68,66.11c-.42.51-9.77-.08-10.52-.42-.34-.15-.22-1.59,0-3.62h0a45.58,45.58,0,0,0,.14-9c-.17-1.39-.61-1.82-1.17-1.7-1.64.36-4.31,5.52-4.31,5.52a1.88,1.88,0,0,1-.23-.21c-2.13-2.27-1-10.49.07-15.75v-.21c.24-1.22.47-2.26.64-3s.32-1.35.32-1.35l8.2-2.8S40,37,41.31,41l.09.28c1.53,4.54,3.28,9.64,3.9,11a7.39,7.39,0,0,1,.46,1.9,5.94,5.94,0,0,0,.09.69C46.34,59.06,46,65.71,45.68,66.11Z" transform="translate(-0.01 -4.33)" style="fill:url(#h)"/><path d="M45.8,54.29c-.07.23-.16.46-.25.69a11.33,11.33,0,0,1-10.41,7.09H34.8a45.57,45.57,0,0,0,.14-9c-.13-1.09-.43-1.6-.83-1.7-1.39-.37-4,4.31-4.53,5.36-2.13-2.27-1-10.49.07-15.75v-.21c.24-1.22.47-2.26.64-3,1.91-.87,5-2,6.67-2,2.19,0,2.31,4.25,4,5.33l.43.28c1.53,4.54,3.28,9.64,3.9,11A7.39,7.39,0,0,1,45.8,54.29Z" transform="translate(-0.01 -4.33)" style="opacity:0.5;isolation:isolate;fill:url(#i)"/><path d="M44.92,52.3a16.38,16.38,0,0,1-1.78-2.41c-1.54-2.33-3.34-5.54-3.29-6.22a6.44,6.44,0,0,1,.59-2s-1.35.08-1.6-.51-1.43-7.41-1.43-7.41l1.52-1.35s2.47,9.17,4.42,15.35C44,49.67,44.51,51.29,44.92,52.3Z" transform="translate(-0.01 -4.33)" style="fill:#47677f"/><path d="M55.44,44a11.09,11.09,0,0,0,3.79-7.62L51,33.57s-4.88,16.42-6.06,19-1.18,13-.76,13.47,10.52-.42,11.28-.76S53.95,58.46,54.63,53,55.44,44,55.44,44Z" transform="translate(-0.01 -4.33)" style="fill:url(#j)"/><polygon points="34.92 55.48 34.9 56.36 37.99 56.9 38.11 56.11 34.92 55.48" style="fill:#202834"/><path d="M33.95,84.26a9.36,9.36,0,0,1-.71,2.63l-1-.31.11-.44a4.84,4.84,0,0,1-2.38.1,21.87,21.87,0,0,1-2.33-1.11,2.92,2.92,0,0,1,2.28-.78,7.39,7.39,0,0,1,2.44.67l.79-.84Z" transform="translate(-0.01 -4.33)" style="fill:#101221"/><path d="M30.14,84.17l1.1.88h.42L31,84.23Z" transform="translate(-0.01 -4.33)" style="fill:#6a6c76"/><polygon points="55.18 55.48 55.2 56.36 52.11 56.9 51.99 56.11 55.18 55.48" style="fill:#202834"/><path d="M46.14,69c-1.52,3.37-12,16.84-12,16.84l-1.68-1.52s8.08-18.86,9.93-20.88,12,.17,13.13,2.69-.93,5.89-2.69,6C50.3,72.28,46.14,69,46.14,69Z" transform="translate(-0.01 -4.33)" style="fill:url(#k)"/><path d="M46.27,94.73c-.13,0-1.35.29-1.35.29l.38.51,1.14-.42Z" transform="translate(-0.01 -4.33)" style="fill:#6a6c76"/><path d="M64.14,56.76c-.17,1-11,0-11,0l.93-3.28,4.29-1.18L56.14,46l-.7-2s.84-4.93,3.79-7.62a19.45,19.45,0,0,1,2.33,5,57,57,0,0,1,2.06,9.47A38,38,0,0,1,64.14,56.76Z" transform="translate(-0.01 -4.33)" style="fill:url(#l)"/><path d="M63.62,50.89l-5.31,1.45L56.14,46c1.42-1.25,4.21-3.68,5.41-4.63A57,57,0,0,1,63.62,50.89Z" transform="translate(-0.01 -4.33)" style="fill:url(#m)"/><circle cx="45.45" cy="50.86" r="0.53"/><circle cx="45.42" cy="56.39" r="0.53" style="fill:#202834"/><path d="M41.27,28.89C41.1,29.06,40,33,40,33l4.88,1,5-1.35-.83-4.25Z" transform="translate(-0.01 -4.33)" style="fill:url(#n)"/><path d="M37.33,19.89s-2.24.17-2.59.61.42,3.65.82,4,2.62,0,2.62,0Z" transform="translate(-0.01 -4.33)" style="fill:url(#o)"/><path d="M50.84,18.3s2.22-.34,2.66,0,.42,3.65.11,4.1-2.55.56-2.55.56Z" transform="translate(-0.01 -4.33)" style="fill:#e5be98"/><path d="M51.42,12c-.09.78-.53,5.13-.54,5.16h0a8.18,8.18,0,0,0,0,1c.2,2.75.86,8.93.14,10.5a3,3,0,0,1-1.49,1.28l-.2.09a11.17,11.17,0,0,1-1.48.52A18.33,18.33,0,0,1,45.4,31H45a18.06,18.06,0,0,1-2.11,0,11.17,11.17,0,0,1-1.56-.12h-.21A3,3,0,0,1,39.39,30c-1.06-1.44-1.82-7.61-2.3-10.34-.07-.41-.12-.75-.17-1,0,0-1.43-4.17-1.69-4.91s1.66-2,1.66-2S35.14,9.38,38.22,7.2a3.22,3.22,0,0,1,1.15-.51h0a4.21,4.21,0,0,1,.54-.12h0a9.29,9.29,0,0,1,3.86.61L44,7.3a16.37,16.37,0,0,1,5.31,3S51.51,11.18,51.42,12Z" transform="translate(-0.01 -4.33)" style="fill:url(#p)"/><path d="M51.42,12c-.09.78-.53,5.13-.54,5.16h0a8.18,8.18,0,0,0,0,1L37.14,19.68c-.07-.41-.12-.75-.17-1,0,0-1.43-4.17-1.69-4.91s1.66-2,1.66-2-1.8-2.39,1.28-4.57a3.22,3.22,0,0,1,1.15-.51h0a4.21,4.21,0,0,1,.54-.12h0a9.29,9.29,0,0,1,3.86.61L44,7.3a16.37,16.37,0,0,1,5.31,3S51.51,11.18,51.42,12Z" transform="translate(-0.01 -4.33)" style="fill:url(#q)"/><g style="opacity:0.5"><path d="M41.39,30.89h-.21a22.28,22.28,0,0,1-1.44-7.17h.18A21.85,21.85,0,0,0,41.39,30.89Z" transform="translate(-0.01 -4.33)" style="fill:#9f645e"/></g><g style="opacity:0.5"><path d="M49.38,29.94l.2-.09a22.28,22.28,0,0,0-.22-7.28l-.22.06A21.85,21.85,0,0,1,49.38,29.94Z" transform="translate(-0.01 -4.33)" style="fill:#9f645e"/></g><g style="opacity:0.5"><path d="M40.84,12.38l-.06.19c-1.84-.66-2.9-1.91-2.81-3.43a3.16,3.16,0,0,1,1.4-2.45h0a4.2,4.2,0,0,1,.54-.12A3,3,0,0,0,38.14,9.1C38.07,10.57,39.08,11.78,40.84,12.38Z" transform="translate(-0.01 -4.33)" style="fill:#9f645e"/></g><g style="opacity:0.5"><path d="M45.14,11.89v.18A3,3,0,0,1,42.9,8.65a1.82,1.82,0,0,1,1-1.4l.25.09a1.61,1.61,0,0,0-1,1.34A2.78,2.78,0,0,0,45.14,11.89Z" transform="translate(-0.01 -4.33)" style="fill:#9f645e"/></g><g style="opacity:0.5"><path d="M45.24,31h-.18a36.53,36.53,0,0,1-.82-5.42h.18A36,36,0,0,0,45.24,31Z" transform="translate(-0.01 -4.33)" style="fill:#9f645e"/></g><path d="M49.74,13.77l-.45-1.32a1.71,1.71,0,0,0-1.84-1.14s-3.1.74-4.16.86-4.28.11-4.28.11a1.71,1.71,0,0,0-1.54,1.53l-.13,1.38A15.27,15.27,0,0,0,38.22,22l.27.73a1.71,1.71,0,0,0,1.77,1.14L44,23.51l.61-.07.56-.1,3.72-.45a1.71,1.71,0,0,0,1.48-1.49l.1-.77A15.27,15.27,0,0,0,49.74,13.77Z" transform="translate(-0.01 -4.33)" style="fill:#e5be98"/><path d="M48.82,16.66c.51,3.4,0,4.19,0,4.19l-4.19.66s-.47.34-.44-2a12.09,12.09,0,0,1,.28-3.06l2.13-.14Z" transform="translate(-0.01 -4.33)" style="fill:url(#r)"/><path d="M48.69,18.76a8.56,8.56,0,0,1-.46,1.13.7.7,0,0,1-.32.11,9.08,9.08,0,0,1-1.57.12.53.53,0,0,1-.18,0A4.19,4.19,0,0,1,45.73,19a1.81,1.81,0,0,1,1.41-.5A4.47,4.47,0,0,1,48.69,18.76Z" transform="translate(-0.01 -4.33)" style="fill:#fff"/><path d="M47.91,20a9.08,9.08,0,0,1-1.57.12A1,1,0,1,1,47.91,20Z" transform="translate(-0.01 -4.33)" style="fill:url(#s)"/><path d="M45.73,19l-.15-.16s.25-.6,1.44-.65a2.26,2.26,0,0,1,1.72.53v.09a3.35,3.35,0,0,0-1.71-.3A2,2,0,0,0,45.73,19Z" transform="translate(-0.01 -4.33)" style="fill:url(#t)"/><path d="M38.89,17.81c0,3.37.89,4.08.89,4.08L44,21.57a37.88,37.88,0,0,0-.52-4.15c-.25-1.4-.65-1.4-.65-1.4l-2.19.48Z" transform="translate(-0.01 -4.33)" style="fill:url(#u)"/><path d="M45.14,21.89c-.75-1.85-1-6.43-.52-7.33l-2.18.16c.7.76,1.54,5.36,1.22,7.34-.55-.25-1.16.13-.92.65s1.14.68,1.81.6,1.54-.55,1.63-1S45.64,21.57,45.14,21.89Z" transform="translate(-0.01 -4.33)" style="fill:url(#v)"/><path d="M46.79,24.76a3.4,3.4,0,0,1-4.81,0c1.39.73,3.63.27,5.34-.68A3.4,3.4,0,0,1,46.79,24.76Z" transform="translate(-0.01 -4.33)" style="fill:url(#w)"/><path d="M42.88,14.65a8,8,0,0,1,.3,2.3c-.68-.27-3.71.56-4.36,1.23a3.48,3.48,0,0,1-.36-1.06,3.57,3.57,0,0,1,.68-.91,4.4,4.4,0,0,0,.42.55s-.11-.44-.2-.74a5.87,5.87,0,0,1,2.78-1.19l.72,1.64-.17-1.77Z" transform="translate(-0.01 -4.33)" style="fill:url(#x)"/><path d="M42.41,19.34a4.18,4.18,0,0,1-.16,1.23.5.5,0,0,1-.18.07h0a9.41,9.41,0,0,1-1.56.27.7.7,0,0,1-.33,0,8.77,8.77,0,0,1-.71-1,2.46,2.46,0,0,1,1.38-1A1.62,1.62,0,0,1,42.41,19.34Z" transform="translate(-0.01 -4.33)" style="fill:#fff"/><path d="M42.08,20.57h0a9.41,9.41,0,0,1-1.57.28,1,1,0,1,1,1.57-.28Z" transform="translate(-0.01 -4.33)" style="fill:url(#y)"/><path d="M42.41,19.33l.11-.2a1.76,1.76,0,0,0-1.66-.33,1.85,1.85,0,0,0-1.45.93l.07.08a2.68,2.68,0,0,1,1.5-.72A2.22,2.22,0,0,1,42.41,19.33Z" transform="translate(-0.01 -4.33)" style="fill:url(#z)"/><path d="M51.86,22.11a1.92,1.92,0,0,0,1.09-.5c.34-.42.09-2.7.09-2.7s-1-.12-1.27.19A7.86,7.86,0,0,0,51.86,22.11Z" transform="translate(-0.01 -4.33)" style="fill:url(#aa)"/><path d="M37.2,23.79A1.92,1.92,0,0,1,36,23.57c-.43-.33-.7-2.61-.7-2.61s1-.35,1.28-.1A7.86,7.86,0,0,1,37.2,23.79Z" transform="translate(-0.01 -4.33)" style="opacity:0.4000000059604645;isolation:isolate;fill:url(#ab)"/><path d="M53,18.89s-1.38-.22-1.45.11a8.43,8.43,0,0,0,.24,3v.09a14.7,14.7,0,0,1,0-2.93A5.2,5.2,0,0,1,53,18.89Z" transform="translate(-0.01 -4.33)" style="fill:#af736f"/><path d="M35.32,20.89s1.29-.53,1.43-.22a8.44,8.44,0,0,1,.45,3v.12a14.69,14.69,0,0,0-.65-2.9A5.2,5.2,0,0,0,35.32,20.89Z" transform="translate(-0.01 -4.33)" style="fill:#af736f"/><path d="M44.31,14.71A7.85,7.85,0,0,0,44.5,17,7.64,7.64,0,0,1,49,17a3.58,3.58,0,0,0,.15-1.11,3.21,3.21,0,0,0-.85-.68,4.76,4.76,0,0,1-.3.64v-.77a5.67,5.67,0,0,0-2.92-.37l-.33,1.73-.2-1.75Z" transform="translate(-0.01 -4.33)" style="fill:url(#ac)"/><path d="M50,31.76C49.5,32.1,45,34,45,34l2.44,3.87,4-4Z" transform="translate(-0.01 -4.33)" style="fill:url(#ad)"/><path d="M38.35,28.57c-1.29-2.36-1.21-4.83-.9-4.94s.67,1.63.9,2.53A8,8,0,0,1,38.35,28.57Z" transform="translate(-0.01 -4.33)" style="fill:url(#ae)"/><path d="M37.93,25.28c-.61-.2-.4,2.7.84,4.29.59.76-.08,2.1-.08,2.1l1.35.51a3,3,0,0,0,.59-2.36c-.34-1.18-1.26-1.43-1.68-2.44S38.44,25.44,37.93,25.28Z" transform="translate(-0.01 -4.33)" style="fill:#e5be98"/><path d="M52.41,33.78s-1.18,6.79-1.4,7.41-1.6.51-1.6.51a6.44,6.44,0,0,1,.59,2c.06.69-1.75,3.89-3.29,6.22A16.37,16.37,0,0,1,45,52.28c.41-1,1-2.62,1.56-4.52,2-6.21,4.42-15.35,4.42-15.35Z" transform="translate(-0.01 -4.33)" style="fill:#47677f"/><path d="M39.87,31.76c.51.34,5,2.19,5,2.19l-2.44,3.87-4-4Z" transform="translate(-0.01 -4.33)" style="fill:url(#af)"/><path d="M38.14,30.89l2.78,1.26S37,51.29,36.14,53.57s-5.53,4.13-6.37,3.33S27.41,49.69,38.14,30.89Z" transform="translate(-0.01 -4.33)" style="fill:#425168"/><path d="M71.46,49.33c-1.17-4-.66-6-.19-7.35a11,11,0,0,0-1.13,7A9.31,9.31,0,0,0,71,51.64Z" transform="translate(-0.01 -4.33)" style="fill:url(#ag)"/><path d="M72.6,43.25a20,20,0,0,1-.09,5.07l-.63.23a8,8,0,0,1,0-2.51A10.34,10.34,0,0,0,72.6,43.25Z" transform="translate(-0.01 -4.33)" style="fill:url(#ah)"/><path d="M71.87,48.57c1.8-2.23,1.57-5.64,1.76-5.61.69,2.2-.54,5.76-.94,7a5.65,5.65,0,0,0-.35,2l-.79-.39Z" transform="translate(-0.01 -4.33)" style="fill:url(#ai)"/><path d="M70.23,51.57c.16-2.18,1.17-1.72,1.26-3.92a30.29,30.29,0,0,0,0-3.61s.6.49.63,4.1-1,4.28-1,4.28Z" transform="translate(-0.01 -4.33)" style="fill:url(#aj)"/><path d="M70.67,51.43A20.28,20.28,0,0,1,68,45.28a10.28,10.28,0,0,0,1.54,6.23C70.45,52.27,70.67,51.43,70.67,51.43Z" transform="translate(-0.01 -4.33)" style="fill:url(#ak)"/><path d="M69.67,51.4a13,13,0,0,0-2.83-4A24.24,24.24,0,0,1,69,51.65C69.79,52.35,69.67,51.4,69.67,51.4Z" transform="translate(-0.01 -4.33)" style="fill:url(#al)"/><path d="M70.86,50.89a22,22,0,0,1-1.61-8.12,20.34,20.34,0,0,0,1.17,8.86C71.14,51.89,70.86,50.89,70.86,50.89Z" transform="translate(-0.01 -4.33)" style="fill:url(#am)"/><path d="M73.24,51.89a15.29,15.29,0,0,1,2-6.39,19.19,19.19,0,0,0-3.08,6c-.43,1.83.17.74.17.74Z" transform="translate(-0.01 -4.33)" style="fill:url(#an)"/><path d="M73.44,51.89a15.7,15.7,0,0,1,2-3.46,9.43,9.43,0,0,0-2.13,2.84C72.72,52.57,73.44,51.89,73.44,51.89Z" transform="translate(-0.01 -4.33)" style="fill:url(#ao)"/><path d="M75.29,47.36C73.88,47.23,72.77,52,72.77,52l.37-.06S74.3,48,75.29,47.36Z" transform="translate(-0.01 -4.33)" style="fill:url(#ap)"/><path d="M74.79,51.18a18.65,18.65,0,0,1-.17,2v.32c0,.1-.08.45-.12.66l-.11.46a8.59,8.59,0,0,1-.63,1.75,1.06,1.06,0,0,1-1,.66H70a1.06,1.06,0,0,1-1-.66,8,8,0,0,1-.51-1.48c-.09-.33-.17-.67-.24-1s-.08-.43-.11-.65a2.63,2.63,0,0,0-.07-.58c0-.47-.08-1-.1-1.43Z" transform="translate(-0.01 -4.33)" style="fill:url(#aq)"/><path d="M68.29,53.89l6.17.28-.11.46-5.83.26C68.43,54.57,68.35,54.2,68.29,53.89Z" transform="translate(-0.01 -4.33)" style="fill:#caa97f;opacity:0.30000001192092896;isolation:isolate"/><path d="M74.63,53.14v.32l-6.49-.27a2.46,2.46,0,0,0-.07-.58Z" transform="translate(-0.01 -4.33)" style="fill:#caa97f;opacity:0.30000001192092896;isolation:isolate"/><path d="M14.2,52.74s-1.73-1.16-2.06-.85,0,3.53.26,4,2.09-.58,2.09-.58V55a3,3,0,0,1-1.44.29c-.47-.15-.44-2.71-.17-2.71a9,9,0,0,1,1.5.58Z" transform="translate(-0.01 -4.33)" style="fill:#b13d55"/><path d="M14.4,57l-.79-6a8.88,8.88,0,0,1,6,0c-.41,1.28-1.08,5.84-1.08,5.84Z" transform="translate(-0.01 -4.33)" style="fill:url(#ar)"/><path d="M16.48,49.57s-1.84-.63-1.68-1.47,1.39-.65,1.79-1.06-.89-1.6-.89-1.6,2.44.7,2.44,1.82-1.92.68-2.32,1S16.48,49.57,16.48,49.57Z" transform="translate(-0.01 -4.33)" style="fill:#cac9db"/><polygon points="9.53 53.69 6.41 92.73 6.89 92.73 11.58 53.69 9.53 53.69" style="fill:url(#as)"/><polygon points="17.58 53.69 20.71 92.73 20.23 92.73 15.54 53.69 17.58 53.69" style="fill:url(#at)"/><polygon points="71.08 53.69 67.95 92.73 68.44 92.73 73.12 53.69 71.08 53.69" style="fill:url(#au)"/><polygon points="79.13 53.69 82.25 92.73 81.77 92.73 77.09 53.69 79.13 53.69" style="fill:url(#av)"/><rect x="7.88" y="52.52" width="73.07" height="1.64" style="fill:#232436"/><path d="M59.81,31.89H31a.31.31,0,0,0-.31.31V51.72A.32.32,0,0,0,31,52H59.8a.32.32,0,0,0,.32-.32V32.2a.31.31,0,0,0-.31-.31Z" transform="translate(-0.01 -4.33)" style="fill:#b5b5b5"/><path d="M45.37,49h0a1,1,0,0,1,1,1v1.57a1,1,0,0,1-1,1h0a1,1,0,0,1-1-1V50A1,1,0,0,1,45.37,49Z" transform="translate(-0.01 -4.33)" style="fill:url(#aw)"/><path d="M48.59,46.89H42.14a.27.27,0,0,0-.27.27h0v9.49h7V47.11A.27.27,0,0,0,48.59,46.89ZM46,51.39a.68.68,0,0,1-.68.68h0a.68.68,0,0,1-.68-.68h0V50.26a.68.68,0,0,1,.68-.68h0a.68.68,0,0,1,.68.68h0Z" transform="translate(-0.01 -4.33)" style="fill:url(#ax)"/><rect x="41.88" y="51.96" width="6.97" height="0.09" style="fill:#5c636d"/><rect x="41.88" y="51.76" width="6.97" height="0.21" style="fill:url(#ay)"/><rect x="41.88" y="52.04" width="6.97" height="0.23" style="fill:url(#az)"/><path d="M42.8,56.75H42a.15.15,0,0,1-.15-.15h1.06a.15.15,0,0,1-.15.15h0Z" transform="translate(-0.01 -4.33)" style="fill:url(#ba)"/><path d="M48.7,56.75h-.75a.15.15,0,0,1-.15-.15h1.06a.15.15,0,0,1-.15.15h0Z" transform="translate(-0.01 -4.33)" style="fill:url(#bb)"/><circle cx="45.38" cy="46.29" r="0.16" style="fill:url(#bc)"/><path d="M45.38,50.19a.42.42,0,1,0,.42.42h0A.42.42,0,0,0,45.38,50.19Zm0,.74a.32.32,0,1,1,.32-.32h0a.32.32,0,0,1-.32.28Z" transform="translate(-0.01 -4.33)" style="fill:url(#bd)"/><path d="M45.38,50.3a.32.32,0,1,0,.32.32h0A.32.32,0,0,0,45.38,50.3Zm0,.54a.22.22,0,1,1,.22-.22h0a.22.22,0,0,1-.22.22Z" transform="translate(-0.01 -4.33)" style="fill:url(#be)"/><path d="M45.38,51a.33.33,0,1,1,.33-.33h0a.33.33,0,0,1-.33.33Zm0-.64a.31.31,0,1,0,.31.31h0a.31.31,0,0,0-.31-.31Zm0,.1a.21.21,0,1,0,.21.21h0A.21.21,0,0,0,45.38,50.41Z" transform="translate(-0.01 -4.33)" style="fill:url(#bf)"/><circle cx="45.37" cy="46.29" r="0.17" style="fill:url(#bg)"/><path d="M45.38,50.4a.22.22,0,1,0,.22.22h0a.22.22,0,0,0-.22-.22Zm0,.37a.15.15,0,1,1,.15-.15h0a.15.15,0,0,1-.15.15Z" transform="translate(-0.01 -4.33)" style="fill:url(#bh)"/><path d="M45.38,50.89a.23.23,0,1,1,.23-.23h0A.23.23,0,0,1,45.38,50.89Zm0-.44a.21.21,0,1,0,.21.21h0a.21.21,0,0,0-.16-.25h0Zm0,.37a.16.16,0,1,1,.16-.16h0a.16.16,0,0,1-.16.12Zm0-.3a.14.14,0,1,0,.14.14h0a.14.14,0,0,0-.08-.18h-.06Z" transform="translate(-0.01 -4.33)" style="fill:url(#bi)"/><path d="M45.48,50.64h0a.14.14,0,0,0-.26,0h0a.16.16,0,0,0,.13.09.17.17,0,0,0,.14-.08h0Z" transform="translate(-0.01 -4.33)" style="fill:url(#bj)"/><circle cx="45.37" cy="46.29" r="0.07" style="fill:url(#bk)"/><circle cx="58.53" cy="46.1" r="0.45" style="fill:url(#bl)"/><circle cx="58.53" cy="46.11" r="0.44" style="fill:url(#bm)"/><path d="M58.6,50.25h0a.19.19,0,1,1-.15,0h0a.22.22,0,1,0,.18,0Z" transform="translate(-0.01 -4.33)" style="fill:#b9c9dd"/><path d="M58.54,50.4h0v-.21h0Z" transform="translate(-0.01 -4.33)" style="fill:#b9c9dd"/><path d="M46.27,38a1.2,1.2,0,0,1-.7.36,1,1,0,0,1,.87-1.11h.06A1.2,1.2,0,0,1,46.27,38Z" transform="translate(-0.01 -4.33)" style="fill:#d6d7d8"/><path d="M46.86,39.83a.9.9,0,0,1,.49-.84,1.09,1.09,0,0,0-.34-.42c-.59-.33-.85.07-1.31.07s-.72-.4-1.31-.07A1.56,1.56,0,0,0,43.74,40a2.24,2.24,0,0,0,1,1.91c.26.13.6-.11.92-.13s.66.26.92.13a2,2,0,0,0,.93-1.21A.85.85,0,0,1,46.86,39.83Z" transform="translate(-0.01 -4.33)" style="fill:#e3e4e5"/><path d="M37.47,50.89h0a.08.08,0,0,1-.08-.08h0v-.66a.08.08,0,0,1,.08-.08h0a.08.08,0,0,1,.08.08h0v.66a.08.08,0,0,1-.08.08Z" transform="translate(-0.01 -4.33)" style="fill:url(#bn)"/><path d="M36.66,50.89h0a.08.08,0,0,1-.08-.08h0v-.66a.08.08,0,0,1,.08-.08h0a.08.08,0,0,1,.08.08h0v.66a.08.08,0,0,1-.08.08Z" transform="translate(-0.01 -4.33)" style="fill:url(#bo)"/><path d="M35.86,50.89h0a.08.08,0,0,1-.08-.08h0v-.66a.08.08,0,0,1,.08-.08h0a.08.08,0,0,1,.08.08h0v.66a.08.08,0,0,1-.08.08Z" transform="translate(-0.01 -4.33)" style="fill:url(#bp)"/><path d="M35,50.89h0a.08.08,0,0,1-.08-.08h0v-.66a.08.08,0,0,1,.08-.08h0a.08.08,0,0,1,.08.08h0v.66A.08.08,0,0,1,35,50.89Z" transform="translate(-0.01 -4.33)" style="fill:url(#bq)"/><circle cx="26.73" cy="9.9" r="2.43" style="fill:#fff"/><path d="M18.35,6.57a3,3,0,0,0,.49,1c0,.08,0,.13-.2.13A2.21,2.21,0,0,1,16.7,6.23c-.21-1.12,1-1.9,2.55-1.9s2.88.72,3.12,2.06c.37,2-2.51,3-2.82,4.35,0,.21-.14.49-.34.52a3.52,3.52,0,0,1-.75,0,.26.26,0,0,1-.24-.21C18,9.78,20.78,8.11,20.39,6a1,1,0,0,0-1-.85,1.1,1.1,0,0,0-1,1.44Zm.48,5.33a.8.8,0,0,1,.81.67.91.91,0,0,1-.7,1.08l-.12,0A.8.8,0,0,1,18,13a.93.93,0,0,1,.73-1.1h.1Z" transform="translate(-0.01 -4.33)" style="fill:#fff"/></svg>