        <svg id="men_4" viewBox="0 0 96.86 92.4">
            <title>men_4</title>
            <g style="isolation:isolate">
                <path
                    d="M16.54,72.78a8.9,8.9,0,0,1,.26,2.82l-1.2.05-.05-.47a5.78,5.78,0,0,1-2.51.94,27.23,27.23,0,0,1-2.93-.26,3.24,3.24,0,0,1,2.14-1.57,9.21,9.21,0,0,1,2.88-.21l.52-1.1Z"
                    transform="translate(17.85 12)" style="fill:#101221" />
                <path d="M12.47,74l1.52.47.47-.1-1-.58Z" transform="translate(17.85 12)" style="fill:#6a6c76" />
                <path
                    d="M47.05,72.78a8.9,8.9,0,0,0-.26,2.82l1.2.05.05-.47a5.78,5.78,0,0,0,2.51.94,27.22,27.22,0,0,0,2.93-.26,3.24,3.24,0,0,0-2.14-1.57,9.21,9.21,0,0,0-2.88-.21L47.94,73Z"
                    transform="translate(17.85 12)" style="fill:#101221" />
                <path d="M51.13,74l-1.52.47-.47-.1,1-.58Z" transform="translate(17.85 12)" style="fill:#6a6c76" />
                <path
                    d="M3.67,11.25c.07.21-.38.9-.84,1.26a3.13,3.13,0,0,1-2,.41C.4,14.39-.36,14.85-1,13.35c-1.33-.77-1.14-4.1-.65-5.12l0-.07a.92.92,0,0,1,1-.56l.15,0a1.13,1.13,0,0,1,.28.1.76.76,0,0,1,.77-.29A1.38,1.38,0,0,1,1,7.61c.56-.33,1.25.26,1.37.34s.62-.24.9,0a2.25,2.25,0,0,1,.74,2,5.83,5.83,0,0,1-1.31,1.33S3.62,11.1,3.67,11.25Z"
                    transform="translate(17.85 12)" style="fill:url(#a5)" />
                <path
                    d="M2.77,11.46c-.64.1-1.23.07-1.27-.23a17,17,0,0,1,.85-3.29c.13.08.62-.24.9,0a2.25,2.25,0,0,1,.74,2,5.83,5.83,0,0,1-1.31,1.33A.75.75,0,0,1,2.77,11.46Z"
                    transform="translate(17.85 12)" style="fill:url(#b5)" />
                <path
                    d="M1.47,11.64c-.37.21-1.19-.31-1.18-.54S1.11,8.65.9,8.23a1.91,1.91,0,0,1-.34-.78A1.38,1.38,0,0,1,1,7.61c.56-.33,1.25.26,1.37.34a5.93,5.93,0,0,1,.49,1.64A6.71,6.71,0,0,1,1.47,11.64Z"
                    transform="translate(17.85 12)" style="fill:url(#c5)" />
                <path
                    d="M.26,11.47c-.38.25-1.15.25-1-.37A19.9,19.9,0,0,0-.31,8.4.91.91,0,0,1-.5,7.75a.41.41,0,0,0,0-.12,1.13,1.13,0,0,1,.28.1S.16,7.16,1,7.61a8,8,0,0,1,.66,2A4.88,4.88,0,0,1,.26,11.47Z"
                    transform="translate(17.85 12)" style="fill:url(#d5)" />
                <path
                    d="M.33,9.91A2.18,2.18,0,0,1-.88,11.12c-.39.05-1-.52.11-1.55,0-.28-.25-1.6-.83-1.4a.92.92,0,0,1,1-.56l.43.13A4.87,4.87,0,0,1,.33,9.91Z"
                    transform="translate(17.85 12)" style="fill:url(#e5)" />
                <path
                    d="M3.52,10.82A3.61,3.61,0,0,0,2.1,10.6c-1-.09-1.28.91-.49,1.07a5.37,5.37,0,0,0,1.67.23C3.57,11.79,4,11.1,3.52,10.82Z"
                    transform="translate(17.85 12)" style="fill:#e9bc83" />
                <path
                    d="M61.36,0c0,.22.65.73,1.21.92a3.13,3.13,0,0,0,2-.25c.92,1.23,1.79,1.41,1.89-.2,1-1.17-.26-4.25-1.06-5.05l-.05-.05a.92.92,0,0,0-1.09-.22l-.13.07a1.13,1.13,0,0,0-.23.19.76.76,0,0,0-.82,0,1.38,1.38,0,0,0-.35.29c-.64-.12-1.09.65-1.19.77s-.67,0-.86.27a2.25,2.25,0,0,0-.06,2.09,5.83,5.83,0,0,0,1.67.83S61.36-.21,61.36,0Z"
                    transform="translate(17.85 12)" style="fill:url(#f5)" />
                <path
                    d="M62.27-.14c.64-.12,1.19-.33,1.12-.63A17,17,0,0,0,61.52-3.6c-.09.12-.67,0-.86.27a2.25,2.25,0,0,0-.06,2.09,5.83,5.83,0,0,0,1.67.83A.76.76,0,0,0,62.27-.14Z"
                    transform="translate(17.85 12)" style="fill:url(#g5)" />
                <path
                    d="M63.56-.4c.42.08,1-.68.94-.9s-1.58-2-1.51-2.5a1.91,1.91,0,0,0,.06-.85,1.38,1.38,0,0,0-.35.29c-.64-.12-1.09.65-1.19.77a5.92,5.92,0,0,0,.07,1.71A6.71,6.71,0,0,0,63.56-.4Z"
                    transform="translate(17.85 12)" style="fill:url(#h5)" />
                <path
                    d="M64.66-1c.45.11,1.17-.14.82-.68A19.87,19.87,0,0,1,64.19-4a.91.91,0,0,0,0-.67.41.41,0,0,1,0-.11,1.13,1.13,0,0,0-.23.19s-.54-.43-1.17.27a8,8,0,0,0,0,2.12A4.88,4.88,0,0,0,64.66-1Z"
                    transform="translate(17.85 12)" style="fill:url(#i5)" />
                <path
                    d="M64.07-2.41a2.18,2.18,0,0,0,1.54.75c.38-.08.75-.81-.61-1.43-.09-.27-.29-1.59.33-1.6a.92.92,0,0,0-1.09-.22,4.43,4.43,0,0,1-.36.26A4.87,4.87,0,0,0,64.07-2.41Z"
                    transform="translate(17.85 12)" style="fill:url(#j5)" />
                <path
                    d="M61.36-.51a3.6,3.6,0,0,1,1.27-.66c.94-.42,1.51.45.81.85a5.38,5.38,0,0,1-1.51.76C61.63.42,61-.1,61.36-.51Z"
                    transform="translate(17.85 12)" style="fill:#e9bc83" />
                <path
                    d="M12.94,10.13c.21,6.1-.5,11.35-5.18,12S1.24,14.95,1,13.1a6.91,6.91,0,0,0-2.62.21S-.32,30.27,9.25,32,20.17,18.71,20.17,18.71,16.77,9.35,12.94,10.13Z"
                    transform="translate(17.85 12)" style="fill:url(#k5)" />
                <path
                    d="M49.91,5.09c5.39,14.75,17.49,9,14.55-4.25A6.91,6.91,0,0,1,67,.18s3.92,17.62-4.57,22.35-17-5.82-17-5.82S43.11,6.2,49.91,5.09Z"
                    transform="translate(17.85 12)" style="fill:url(#l5)" />
                <path
                    d="M49.45,56.22c-.43-3.76-3.47-11-6-14.54L41,37.24l-9.21.66-9.21-.66-2.41,4.44c-2.55,3.55-5.6,10.78-6,14.54s.78,17.37.78,17.37h2.55s.5-8.72,2.06-13.47C21,55.77,25.07,50.35,31.8,49.47c6.73.88,10.83,6.3,12.26,10.65,1.56,4.75,2.06,13.47,2.06,13.47h2.55S49.88,60,49.45,56.22Z"
                    transform="translate(17.85 12)" style="fill:url(#m5)" />
                <path
                    d="M39,43.38a14.58,14.58,0,0,1-5.86,1.8l-1-2.84-1.23,2.93a17.39,17.39,0,0,1-5-1.32c-1.7-.95-.57-30.73-.57-30.73l15.13.47Z"
                    transform="translate(17.85 12)" style="fill:url(#n5)" />
                <path
                    d="M49.91,5.09c-3.31.66-6-1.49-10.25-2.8a27.1,27.1,0,0,0-4.09-.93,28.53,28.53,0,0,0-3.35-.3V1h-.86v0a28.53,28.53,0,0,0-3.35.3,27.1,27.1,0,0,0-4.09.93,19.85,19.85,0,0,0-11,7.83c6.1,3.55,6.67,8.79,7.3,17.66s-2,13.69-2,13.69a25.42,25.42,0,0,0,7.84,4.71c1.73.56.91-11.21.17-18.62-.13-1.28-.26-2.43-.37-3.37a146.83,146.83,0,0,1-.66-15.32L27.78,6l4-4.5,4,4.5,2.54,2.85a146.8,146.8,0,0,1-.66,15.32c-.11.94-.24,2.09-.37,3.37-.74,7.41-1.56,19.19.17,18.62a25.42,25.42,0,0,0,7.84-4.71s-2.62-4.82-2-13.69c.29-4,.88-8,2.4-10.87C46.49,12.25,46.56,7,49.91,5.09Z"
                    transform="translate(17.85 12)" style="fill:url(#o5)" />
                <polygon points="37.38 44.96 39.65 46.17 39.65 48.01 37.03 46.48 37.38 44.96" style="fill:#101221" />
                <path
                    d="M28.07.74l0,.62L27.78,6,25.23,8.87a146.83,146.83,0,0,0,.66,15.32c.11.94.24,2.09.37,3.37-1.84-3.95-4-11.75-3.77-12.92s2.08-2.37,2.08-2.37-1.42.1-1.89-2.17a14.25,14.25,0,0,1,1.26-7.81,3,3,0,0,1,.72-.89A4,4,0,0,1,28.07.74Z"
                    transform="translate(17.85 12)" style="fill:#486880" />
                <polygon points="61.91 44.96 59.64 46.17 59.64 48.01 62.26 46.48 61.91 44.96" style="fill:#101221" />
                <path
                    d="M35.53.74l0,.62L35.82,6l2.54,2.85a146.8,146.8,0,0,1-.66,15.32c-.11.94-.24,2.09-.37,3.37,1.84-3.95,4-11.75,3.77-12.92S39,12.28,39,12.28s1.42.1,1.89-2.17a14.25,14.25,0,0,0-1.26-7.81,3,3,0,0,0-.72-.89A4,4,0,0,0,35.53.74Z"
                    transform="translate(17.85 12)" style="fill:#486880" />
                <polygon points="50.7 27.49 51.73 52.12 49.74 53.64 47.85 52.22 49.38 26.83 50.7 27.49"
                    style="fill:url(#5)" />
                <path d="M24.24,4s-2.27-.11-2.67.38,0,4.4.36,4.88,2.63.32,2.63.32Z" transform="translate(17.85 12)"
                    style="fill:#e9bc83" />
                <path
                    d="M23.66,8.64A1.73,1.73,0,0,1,22.5,8.2c-.39-.45-.4-3.2-.4-3.2s1-.29,1.29.05A11,11,0,0,1,23.66,8.64Z"
                    transform="translate(17.85 12)" style="fill:url(#q5)" />
                <path
                    d="M22.1,5s1.36-.45,1.47-.07a11.9,11.9,0,0,1,.11,3.61l0,.11a20.65,20.65,0,0,0-.32-3.48A4.48,4.48,0,0,0,22.1,5Z"
                    transform="translate(17.85 12)" style="fill:#b46a5b" />
                <path d="M39.31,4s2.27-.11,2.67.38,0,4.4-.36,4.88S39,9.55,39,9.55Z" transform="translate(17.85 12)"
                    style="fill:#e9bc83" />
                <path d="M39.9,8.64a1.73,1.73,0,0,0,1.15-.45c.39-.45.4-3.2.4-3.2s-1-.29-1.29.05A11,11,0,0,0,39.9,8.64Z"
                    transform="translate(17.85 12)" style="fill:url(#r5)" />
                <path
                    d="M41.46,5S40.1,4.54,40,4.93a11.9,11.9,0,0,0-.11,3.61l0,.11a20.65,20.65,0,0,1,.32-3.48A4.48,4.48,0,0,1,41.46,5Z"
                    transform="translate(17.85 12)" style="fill:#b46a5b" />
                <path
                    d="M23,1.27C24.34,5.5,24.43,12,24.61,13.76s2.14,5.12,3.25,4.5c1.34,1.87,2.8,1.51,2.94.76a2.22,2.22,0,0,0,3.38-.4C35.47,20.08,37.83,17,37.92,16c.85,2.67,1.56-6.75,1.47-8.79S41.12.43,41.12.43L40.54-1s1.25-.49,1.2-1.42-1.42-1.87-2.36-3.78-1.51-2.67-2-2C36-10.48,34.27-10.84,34.4-9.95c-1.2-2.14-2.49-.58-3.21-.58s-2-1.56-2.76-1.47S27-10.13,27-10.13s-.71-2.14-2.58,1.74c-.67,1.38.09,2-.13,2s-2.85,1.34-2.8,1.91,1.2.89,1.2.89A16.08,16.08,0,0,0,23,1.27Z"
                    transform="translate(17.85 12)" style="fill:url(#s5)" />
                <path
                    d="M26.22-6.31a1.59,1.59,0,0,1-.31-1.38,2.71,2.71,0,0,1,.22-.6,1.49,1.49,0,0,0,.15-1.36,1.76,1.76,0,0,0-.93-.78,2.58,2.58,0,0,1-.55-.33l-.18.2a2.81,2.81,0,0,0,.61.37,1.54,1.54,0,0,1,.81.65,1.25,1.25,0,0,1-.15,1.13,3,3,0,0,0-.24.66A1.84,1.84,0,0,0,26-6.14a4.84,4.84,0,0,0,3.51,1.23v-.27A4.58,4.58,0,0,1,26.22-6.31Z"
                    transform="translate(17.85 12)" style="fill:#946240" />
                <path
                    d="M31.72-7.53c-.79,0-2.12.1-2.34-.89a3.06,3.06,0,0,1,1.51-2.65l-.08-.25a3.29,3.29,0,0,0-1.69,3c.26,1.21,1.79,1.14,2.63,1.1A2.54,2.54,0,0,1,34-6.68a1.53,1.53,0,0,1,.22,1.29,1.13,1.13,0,0,1-.62.82l.1.25a1.4,1.4,0,0,0,.77-1,1.78,1.78,0,0,0-.28-1.52A2.8,2.8,0,0,0,31.72-7.53Z"
                    transform="translate(17.85 12)" style="fill:#946240" />
                <path
                    d="M39.68-7.74l-.27,0c0,.39,0,.65-.11.74s-.43,0-.74-.06a2,2,0,0,0-1.1-.09,1,1,0,0,0-.63.76,3.3,3.3,0,0,0,.74,2.54l.18-.2A3,3,0,0,1,37.1-6.3a.69.69,0,0,1,.45-.57,1.75,1.75,0,0,1,.94.1c.38.11.74.21,1,0S39.73-7.23,39.68-7.74Z"
                    transform="translate(17.85 12)" style="fill:#946240" />
                <path
                    d="M25.72,10.89a4.62,4.62,0,0,0,.48,2,5.81,5.81,0,0,1,.44,1.39,1.63,1.63,0,0,1-.43,1.27,5,5,0,0,0-.36.57,1.52,1.52,0,0,0-.2,1.25h.29a1.25,1.25,0,0,1,.15-1.14,4.64,4.64,0,0,1,.34-.54,1.88,1.88,0,0,0,.48-1.46,6.06,6.06,0,0,0-.46-1.46A4.34,4.34,0,0,1,26,10.9c0-1.1.5-3.33,1.39-3.74l-.11-.25C26.09,7.45,25.74,10.19,25.72,10.89Z"
                    transform="translate(17.85 12)" style="fill:#72442e" />
                <path
                    d="M37.19,12.09l-.2-.36a6.43,6.43,0,0,1-.12-4.46l-.26-.08a6.7,6.7,0,0,0,.14,4.66l.2.36a2.62,2.62,0,0,1,.51,2,5.18,5.18,0,0,1-.93,1.61c-.86,1.19-1.83,2.54-.62,3.59l.18-.2c-1-.9-.17-2.08.66-3.23a5.3,5.3,0,0,0,1-1.72A2.86,2.86,0,0,0,37.19,12.09Z"
                    transform="translate(17.85 12)" style="fill:#72442e" />
                <path
                    d="M29.27,15.84a9.74,9.74,0,0,1-.79-2.06,7.27,7.27,0,0,1,1.35-5.92l-.21-.18a7.56,7.56,0,0,0-1.41,6.16A9.93,9.93,0,0,0,29,16c.17.36.34.73.49,1.09A4.11,4.11,0,0,1,29.68,19a7.77,7.77,0,0,0,0,1.13l.28,0A7.58,7.58,0,0,1,30,19,4.39,4.39,0,0,0,29.77,17C29.62,16.58,29.44,16.2,29.27,15.84Z"
                    transform="translate(17.85 12)" style="fill:#72442e" />
                <path
                    d="M33.53,7.76l-.13-.24h0a.18.18,0,0,0-.23.15l0,.06,0,.05a9.54,9.54,0,0,1,.88,6.48,7.5,7.5,0,0,1-.58,1.37,5.19,5.19,0,0,0-.69,2,3.48,3.48,0,0,0,1,2.48l.2-.2a3.23,3.23,0,0,1-.89-2.26,4.93,4.93,0,0,1,.66-1.89,7.67,7.67,0,0,0,.6-1.42,9.81,9.81,0,0,0-.83-6.55Z"
                    transform="translate(17.85 12)" style="fill:#72442e" />
                <path
                    d="M38.93,2.18c-.16,2.28-.51,4.45-1.09,5-1.92,1.69-11.09,1.77-12.22-.49a15.46,15.46,0,0,1-1-4.85c-.21-2.51-.06-5.08.67-5.83,2.07-2.13,12.89-1.48,13.56.26A23.7,23.7,0,0,1,38.93,2.18Z"
                    transform="translate(17.85 12)" style="fill:#e9bc83" />
                <path
                    d="M38.93,2.18A13.68,13.68,0,0,1,32.06,4a13.52,13.52,0,0,1-7.48-2.17c-.21-2.51-.06-5.08.67-5.83,2.07-2.13,12.89-1.48,13.56.26A23.7,23.7,0,0,1,38.93,2.18Z"
                    transform="translate(17.85 12)" style="mix-blend-mode:multiply;fill:url(#t5)" />
                <path
                    d="M37.82,2c-.25-.73-4.87.79-4.87.79l-2,.65-5.1-1s-.62,2.88,0,3.64,4.21,1,4.21,1l3.27.24s4.07,0,4.3-.45A16.29,16.29,0,0,0,37.82,2Z"
                    transform="translate(17.85 12)" style="fill:url(#u5)" />
                <path
                    d="M30,5.4a1.76,1.76,0,0,1-.49.08l-.27,0a8,8,0,0,1-1.44-.07h-.09a2.46,2.46,0,0,1-1.28-.49c.2-.57.4-1.59.73-1.69a3,3,0,0,1,.84,0l.51.08c.28.05.57.11.81.17l.12,0c.3.09.53.18.58.28A2.72,2.72,0,0,1,30,5.4Z"
                    transform="translate(17.85 12)" style="fill:#fff" />
                <path
                    d="M37.34,4.92a2.63,2.63,0,0,1-1.34.5h0a8,8,0,0,1-1.53.07h-.17a1.91,1.91,0,0,1-.54-.09,2.7,2.7,0,0,1,0-1.57c0-.09.25-.18.53-.27l.26-.07c.23-.06.49-.11.75-.15l.46-.07a3.3,3.3,0,0,1,.87,0C36.91,3.33,37.14,4.36,37.34,4.92Z"
                    transform="translate(17.85 12)" style="fill:#fff" />
                <path
                    d="M30.86,3.6a9.31,9.31,0,0,1,.3,3.21s-1.37-.5-1.5.1.77,1.47,2.27,1.47,2.34-.93,2-1.44-1.44-.17-1.44-.17A8.17,8.17,0,0,1,33,2.56C33.83.66,32.2,2.13,30.86,3.6Z"
                    transform="translate(17.85 12)" style="fill:url(#v5)" />
                <path
                    d="M37.82,2a10.68,10.68,0,0,1-4.39,1.44.56.56,0,0,1-.62-.43,10.74,10.74,0,0,1-.27-1.89,2.61,2.61,0,0,0,.44.07l.34,1.43.17-1.45c1.29-.13,2.42-1,2.86-.89A2.34,2.34,0,0,1,37.82,2Z"
                    transform="translate(17.85 12)" style="fill:url(#w5)" />
                <path
                    d="M35,13.83v.06c-.27,1-5.84,1.63-6.08.7a1.52,1.52,0,0,1,0-.34A11.26,11.26,0,0,1,30,9.81c.43-.6,3.47-1.07,4-.3L34,9.6A8.9,8.9,0,0,1,35,13.83Z"
                    transform="translate(17.85 12)" style="fill:#37121f" />
                <path
                    d="M34,13.25v0c-.18.65-3.93,1.1-4.09.47a1,1,0,0,1,0-.23,7.58,7.58,0,0,1,.75-3c.29-.4,2.34-.72,2.68-.2l0,.06A6,6,0,0,1,34,13.25Z"
                    transform="translate(17.85 12)" style="fill:#37121f;opacity:0.5;mix-blend-mode:multiply" />
                <path d="M34,9.6c-.94.35-3,1-4,.21.43-.6,3.47-1.07,4-.3Z" transform="translate(17.85 12)"
                    style="fill:#fff" />
                <path
                    d="M35,13.83v.06c-.27,1-5.84,1.63-6.08.7a1.52,1.52,0,0,1,0-.34,1.56,1.56,0,0,1,.37-.46,33.12,33.12,0,0,1,5.17-.5A2.26,2.26,0,0,1,35,13.83Z"
                    transform="translate(17.85 12)" style="fill:#fff" />
                <path
                    d="M36.34,4.57a1.23,1.23,0,0,1-.34.85h0a8,8,0,0,1-1.53.07h-.17a1.23,1.23,0,0,1,.21-2c.23-.06.49-.11.75-.15A1.23,1.23,0,0,1,36.34,4.57Z"
                    transform="translate(17.85 12)" style="fill:url(#x5)" />
                <path
                    d="M29.88,4.57a1.24,1.24,0,0,1-.41.92l-.27,0a8,8,0,0,1-1.44-.07,1.23,1.23,0,0,1,.72-2.08h.17a1.21,1.21,0,0,1,.65.18A1.23,1.23,0,0,1,29.88,4.57Z"
                    transform="translate(17.85 12)" style="fill:url(#y5)" />
                <path
                    d="M30.95,3.48c-.5.5-4-.07-5.25-.9A2,2,0,0,1,26.88,1C27.65.81,28,1.17,29,1.3a3.15,3.15,0,0,0,1.1-.07l.49,1.28L30.79,1A3.61,3.61,0,0,0,31.2.84S31.54,2.89,30.95,3.48Z"
                    transform="translate(17.85 12)" style="fill:url(#z5)" />
                <ellipse cx="56.22" cy="44.51" rx="0.47" ry="0.76" style="fill:#101221" />
                <path d="M25.68,32.51a1.1,1.1,0,0,1-1.18,0,1.1,1.1,0,0,1,1.18,0Z" transform="translate(17.85 12)"
                    style="fill:#101221" />
                <path d="M26.11,39.71a1.1,1.1,0,0,1-1.18,0,1.1,1.1,0,0,1,1.18,0Z" transform="translate(17.85 12)"
                    style="fill:#101221" />
                <ellipse cx="55.75" cy="51.51" rx="0.47" ry="0.76" style="fill:#101221" />
                <path
                    d="M79,78.12S58.16,80.4,32.44,80.4s-46.58-2.28-46.58-2.28,20.85-2.28,46.58-2.28S79,78.12,79,78.12Z"
                    transform="translate(17.85 12)" style="fill:#dfdfdf" />
                <polygon points="30.9 87.16 32.49 87.33 31.91 68.47 30.98 68.64 30.9 87.16" style="fill:url(#aa5)" />
                <polygon points="18.35 87.07 42.18 89.52 42.18 88.42 18.61 84.89 18.35 87.07" style="fill:url(#ab5)" />
                <polygon points="18.35 68.64 42.18 66.2 42.18 67.29 18.61 70.83 18.35 68.64" style="fill:url(#ac5)" />
                <path
                    d="M.27,76.61h0a1,1,0,0,0,.85-.94l.46-19.14a1,1,0,0,0-1-1l-.23,0a1,1,0,0,0-.9,1L-.83,75.64A1,1,0,0,0,.27,76.61Z"
                    transform="translate(17.85 12)" style="fill:#683639" />
                <circle cx="0.53" cy="77.79" r="0.53" />
                <path d="M57.32,30.44c-1.17-4-.66-6-.19-7.35a11.05,11.05,0,0,0-1.13,7,9.31,9.31,0,0,0,.82,2.66Z"
                    transform="translate(17.85 12)" style="fill:url(#ad5)" />
                <path d="M58.46,24.36a20,20,0,0,1-.09,5.07l-.63.23a8,8,0,0,1,0-2.51A10.34,10.34,0,0,0,58.46,24.36Z"
                    transform="translate(17.85 12)" style="fill:url(#ae5)" />
                <path
                    d="M57.73,29.67c1.8-2.23,1.57-5.64,1.76-5.61.69,2.2-.54,5.76-.94,7a5.65,5.65,0,0,0-.35,2l-.79-.33Z"
                    transform="translate(17.85 12)" style="fill:url(#af5)" />
                <path d="M56.09,32.72c.16-2.18,1.17-1.72,1.26-3.92a30.29,30.29,0,0,0,0-3.61s.6.49.63,4.1-1,4.28-1,4.28Z"
                    transform="translate(17.85 12)" style="fill:url(#ag5)" />
                <path
                    d="M56.53,32.54a20.28,20.28,0,0,1-2.71-6.15,10.28,10.28,0,0,0,1.54,6.23C56.31,33.38,56.53,32.54,56.53,32.54Z"
                    transform="translate(17.85 12)" style="fill:url(#ah5)" />
                <path
                    d="M55.53,32.51a13,13,0,0,0-2.83-4,24.24,24.24,0,0,1,2.2,4.25C55.65,33.46,55.53,32.51,55.53,32.51Z"
                    transform="translate(17.85 12)" style="fill:url(#ai5)" />
                <path d="M56.72,32a22,22,0,0,1-1.61-8.12,20.34,20.34,0,0,0,1.17,8.86C57,33,56.72,32,56.72,32Z"
                    transform="translate(17.85 12)" style="fill:url(#aj5)" />
                <path d="M59.1,33a15.29,15.29,0,0,1,2-6.39,19.19,19.19,0,0,0-3.08,6c-.43,1.83.17.74.17.74Z"
                    transform="translate(17.85 12)" style="fill:url(#ak5)" />
                <path d="M59.3,33a15.7,15.7,0,0,1,2-3.46,9.43,9.43,0,0,0-2.13,2.84C58.58,33.73,59.3,33,59.3,33Z"
                    transform="translate(17.85 12)" style="fill:url(#al5)" />
                <path d="M61.15,28.47c-1.41-.13-2.52,4.59-2.52,4.59L59,33S60.16,29.06,61.15,28.47Z"
                    transform="translate(17.85 12)" style="fill:url(#am5)" />
                <path
                    d="M60.65,32.29a18.65,18.65,0,0,1-.17,2c0,.11,0,.22,0,.32s-.08.45-.12.66l-.11.46a8.59,8.59,0,0,1-.63,1.75,1.06,1.06,0,0,1-1,.66H55.89a1.06,1.06,0,0,1-1-.66A8,8,0,0,1,54.38,36c-.09-.33-.17-.67-.24-1s-.08-.43-.11-.65-.05-.39-.07-.58c-.05-.47-.08-.95-.1-1.43Z"
                    transform="translate(17.85 12)" style="fill:url(#an5)" />
                <path d="M54.15,35l6.17.28-.11.46L54.38,36C54.29,35.65,54.21,35.31,54.15,35Z"
                    transform="translate(17.85 12)"
                    style="fill:#caa97f;opacity:0.30000000000000004;mix-blend-mode:screen" />
                <path d="M60.49,34.25c0,.11,0,.22,0,.32L54,34.3q0-.29-.07-.58Z" transform="translate(17.85 12)"
                    style="fill:#caa97f;opacity:0.30000000000000004;mix-blend-mode:screen" />
                <path
                    d="M.06,33.85S-1.67,32.69-2,33s0,3.53.26,4,2.09-.58,2.09-.58l0-.34a3,3,0,0,1-1.44.29c-.47-.15-.44-2.71-.17-2.71a9,9,0,0,1,1.5.58Z"
                    transform="translate(17.85 12)" style="fill:#b13d55" />
                <path d="M.26,38.16l-.79-6a8.88,8.88,0,0,1,6,0C5.06,33.44,4.39,38,4.39,38Z"
                    transform="translate(17.85 12)" style="fill:url(#ao5)" />
                <path
                    d="M2.34,30.71S.5,30.08.66,29.24s1.39-.65,1.79-1.06-.89-1.6-.89-1.6S4,27.28,4,28.4s-1.92.68-2.32,1S2.34,30.71,2.34,30.71Z"
                    transform="translate(17.85 12)" style="fill:#cac9db" />
                <polygon points="13.25 51.13 10.12 90.17 10.6 90.17 15.29 51.13 13.25 51.13" style="fill:url(#ap5)" />
                <polygon points="21.3 51.13 24.42 90.17 23.94 90.17 19.25 51.13 21.3 51.13" style="fill:url(#aq5)" />
                <polygon points="74.79 51.13 71.67 90.17 72.15 90.17 76.83 51.13 74.79 51.13" style="fill:url(#ar5)" />
                <polygon points="82.84 51.13 85.96 90.17 85.48 90.17 80.8 51.13 82.84 51.13" style="fill:url(#as5)" />
                <rect x="11.59" y="49.96" width="73.07" height="1.64" style="fill:#232436" />
                <path
                    d="M45.67,13H16.81a.31.31,0,0,0-.31.31V32.83a.32.32,0,0,0,.32.32H45.66a.32.32,0,0,0,.32-.32V13.31A.31.31,0,0,0,45.67,13Z"
                    transform="translate(17.85 12)" style="fill:#b5b5b5" />
                <rect x="48.08" y="42.11" width="2" height="3.6" rx="1" ry="1" style="fill:url(#at5)" />
                <path
                    d="M34.45,28H28a.27.27,0,0,0-.27.27v9.49h7V28.22A.27.27,0,0,0,34.45,28Zm-2.54,4.5a.68.68,0,0,1-.68.68h0a.68.68,0,0,1-.68-.68V31.37a.68.68,0,0,1,.68-.68h0a.68.68,0,0,1,.68.68Z"
                    transform="translate(17.85 12)" style="fill:url(#au5)" />
                <rect x="45.6" y="49.4" width="6.97" height="0.09" style="fill:#5c636d" />
                <rect x="45.6" y="49.19" width="6.97" height="0.21" style="fill:url(#av5)" />
                <rect x="45.6" y="49.48" width="6.97" height="0.23" style="fill:url(#aw5)" />
                <path d="M28.66,37.86h-.75a.15.15,0,0,1-.15-.15h1.06A.15.15,0,0,1,28.66,37.86Z"
                    transform="translate(17.85 12)" style="fill:url(#ax5)" />
                <path d="M34.56,37.86h-.75a.15.15,0,0,1-.15-.15h1.06A.15.15,0,0,1,34.56,37.86Z"
                    transform="translate(17.85 12)" style="fill:url(#ay5)" />
                <circle cx="49.09" cy="43.73" r="0.16" style="fill:url(#az5)" />
                <path
                    d="M31.24,31.3a.42.42,0,1,0,.42.42A.42.42,0,0,0,31.24,31.3Zm0,.74a.32.32,0,1,1,.32-.32A.32.32,0,0,1,31.24,32Z"
                    transform="translate(17.85 12)" style="fill:url(#ba5)" />
                <path
                    d="M31.24,31.41a.32.32,0,1,0,.32.32A.32.32,0,0,0,31.24,31.41Zm0,.54a.22.22,0,1,1,.22-.22A.22.22,0,0,1,31.24,31.95Z"
                    transform="translate(17.85 12)" style="fill:url(#bb5)" />
                <path
                    d="M31.24,32.06a.33.33,0,1,1,.33-.33A.33.33,0,0,1,31.24,32.06Zm0-.64a.31.31,0,1,0,.31.31A.31.31,0,0,0,31.24,31.42Zm0,.1a.21.21,0,1,0,.21.21A.21.21,0,0,0,31.24,31.52Z"
                    transform="translate(17.85 12)" style="fill:url(#bc5)" />
                <circle cx="49.09" cy="43.73" r="0.17" style="fill:url(#bd5)" />
                <path
                    d="M31.24,31.51a.22.22,0,1,0,.22.22A.22.22,0,0,0,31.24,31.51Zm0,.37a.15.15,0,1,1,.15-.15A.15.15,0,0,1,31.24,31.88Z"
                    transform="translate(17.85 12)" style="fill:url(#be5)" />
                <path
                    d="M31.24,32a.23.23,0,1,1,.23-.23A.23.23,0,0,1,31.24,32Zm0-.44a.21.21,0,1,0,.21.21A.21.21,0,0,0,31.24,31.52Zm0,.37a.16.16,0,1,1,.16-.16A.16.16,0,0,1,31.24,31.89Zm0-.3a.14.14,0,1,0,.14.14A.14.14,0,0,0,31.24,31.58Z"
                    transform="translate(17.85 12)" style="fill:url(#bf5)" />
                <path
                    d="M31.34,31.75v0h0a0,0,0,0,0,0,0,.14.14,0,0,0-.26,0,0,0,0,0,0,0,0h0l0,0v0h0a0,0,0,0,0,0,0,.16.16,0,0,0,.13.09.17.17,0,0,0,.14-.08,0,0,0,0,0,0,0h0Z"
                    transform="translate(17.85 12)" style="fill:url(#bg5)" />
                <circle cx="49.09" cy="43.73" r="0.07" style="fill:url(#bh5)" />
                <circle cx="62.24" cy="43.54" r="0.45" style="fill:url(#bi5)" />
                <circle cx="62.25" cy="43.54" r="0.44" style="fill:url(#bj5)" />
                <path
                    d="M44.46,31.36h0v0a.19.19,0,1,1-.15,0v0h0a0,0,0,0,0,0,0,.22.22,0,1,0,.18,0A0,0,0,0,0,44.46,31.36Z"
                    transform="translate(17.85 12)" style="fill:#b9c9dd" />
                <path d="M44.4,31.51h0a0,0,0,0,1,0,0V31.3a0,0,0,0,1,0,0h0a0,0,0,0,1,0,0v.19A0,0,0,0,1,44.4,31.51Z"
                    transform="translate(17.85 12)" style="fill:#b9c9dd" />
                <path d="M32.13,19.11a1.2,1.2,0,0,1-.7.36,1,1,0,0,1,.93-1.12A1.2,1.2,0,0,1,32.13,19.11Z"
                    transform="translate(17.85 12)" style="fill:#d6d7d8" />
                <path
                    d="M32.72,20.94a.9.9,0,0,1,.49-.84,1.09,1.09,0,0,0-.39-.38c-.59-.33-.85.07-1.31.07s-.72-.4-1.31-.07a1.56,1.56,0,0,0-.65,1.41,2.24,2.24,0,0,0,1,1.91c.26.13.6-.11.92-.13s.66.26.92.13a2,2,0,0,0,.93-1.21A.85.85,0,0,1,32.72,20.94Z"
                    transform="translate(17.85 12)" style="fill:#e3e4e5" />
                <path
                    d="M23.33,32h0a.08.08,0,0,1-.08-.08v-.66a.08.08,0,0,1,.08-.08h0a.08.08,0,0,1,.08.08v.66A.08.08,0,0,1,23.33,32Z"
                    transform="translate(17.85 12)" style="fill:url(#bk5)" />
                <path
                    d="M22.52,32h0a.08.08,0,0,1-.08-.08v-.66a.08.08,0,0,1,.08-.08h0a.08.08,0,0,1,.08.08v.66A.08.08,0,0,1,22.52,32Z"
                    transform="translate(17.85 12)" style="fill:url(#bl5)" />
                <path
                    d="M21.72,32h0a.08.08,0,0,1-.08-.08v-.66a.08.08,0,0,1,.08-.08h0a.08.08,0,0,1,.08.08v.66A.08.08,0,0,1,21.72,32Z"
                    transform="translate(17.85 12)" style="fill:url(#bm5)" />
                <path
                    d="M20.91,32h0a.08.08,0,0,1-.08-.08v-.66a.08.08,0,0,1,.08-.08h0a.08.08,0,0,1,.08.08v.66A.08.08,0,0,1,20.91,32Z"
                    transform="translate(17.85 12)" style="fill:url(#bn5)" />
            </g>
        </svg>