<svg id="men_1" xmlns="http://www.w3.org/2000/svg" xmlns:xlink="http://www.w3.org/1999/xlink" viewBox="0 0 93.14 99.29"><defs><linearGradient id="a" x1="45.64" y1="8.8" x2="45.19" y2="11.61" gradientTransform="matrix(1, 0, 0, -1, 0.01, 97.57)" gradientUnits="userSpaceOnUse"><stop offset="0" stop-color="#b4af91"/><stop offset="0.26" stop-color="#aea88d"/><stop offset="0.63" stop-color="#9f9582"/><stop offset="1" stop-color="#8b7b74"/></linearGradient><linearGradient id="b" x1="36.39" y1="16.99" x2="36.84" y2="22.72" xlink:href="#a"/><linearGradient id="c" x1="54.78" y1="15.47" x2="53.55" y2="22.65" xlink:href="#a"/><radialGradient id="d" cx="35.27" cy="37.5" r="6.9" gradientTransform="matrix(1, 0, 0, -1, 14.13, 103.32)" gradientUnits="userSpaceOnUse"><stop offset="0" stop-color="#101221"/><stop offset="0.27" stop-color="#202638"/><stop offset="0.74" stop-color="#39455b"/><stop offset="1" stop-color="#425168"/></radialGradient><radialGradient id="e" cx="27.13" cy="36.26" r="11.55" xlink:href="#d"/><linearGradient id="f" x1="30.79" y1="62.05" x2="30.79" y2="74.31" gradientTransform="matrix(1, 0, 0, -1, 14.13, 103.32)" gradientUnits="userSpaceOnUse"><stop offset="0.18" stop-color="#faf9f3"/><stop offset="0.44" stop-color="#f0eee6"/><stop offset="0.77" stop-color="#dfdcd0"/></linearGradient><radialGradient id="g" cx="30.78" cy="74.76" r="13.47" gradientTransform="matrix(1, 0, 0, -1, 14.13, 103.32)" gradientUnits="userSpaceOnUse"><stop offset="0.06" stop-color="#b83f51"/><stop offset="0.88" stop-color="#cb465a"/><stop offset="1" stop-color="#ce475b"/></radialGradient><radialGradient id="h" cx="14.8" cy="42.75" r="14.21" xlink:href="#d"/><radialGradient id="i" cx="21.1" cy="63.72" r="8.45" gradientTransform="matrix(1, 0, 0, -1, 14.13, 103.32)" gradientUnits="userSpaceOnUse"><stop offset="0" stop-color="#101221"/><stop offset="0.19" stop-color="#474954"/><stop offset="0.48" stop-color="#95969d"/><stop offset="0.72" stop-color="#cecfd2"/><stop offset="0.9" stop-color="#f2f2f3"/><stop offset="1" stop-color="#fff"/></radialGradient><radialGradient id="j" cx="49.65" cy="51.33" r="18.22" xlink:href="#d"/><radialGradient id="k" cx="38.52" cy="36.49" r="10.21" xlink:href="#d"/><radialGradient id="l" cx="37.18" cy="53.89" r="8.85" xlink:href="#d"/><radialGradient id="m" cx="42.73" cy="57" r="6.56" xlink:href="#d"/><linearGradient id="n" x1="30.89" y1="76.59" x2="30.72" y2="80.38" gradientTransform="matrix(1, 0, 0, -1, 14.13, 103.32)" gradientUnits="userSpaceOnUse"><stop offset="0" stop-color="#e5be98"/><stop offset="0.23" stop-color="#dfb491"/><stop offset="0.62" stop-color="#d1987f"/><stop offset="1" stop-color="#bf7769"/></linearGradient><linearGradient id="o" x1="23.74" y1="87.72" x2="20.82" y2="87.32" gradientTransform="matrix(1, 0, 0, -1, 14.13, 103.32)" gradientUnits="userSpaceOnUse"><stop offset="0.06" stop-color="#b47562"/><stop offset="0.14" stop-color="#bb806a"/><stop offset="0.43" stop-color="#d2a283"/><stop offset="0.67" stop-color="#e0b692"/><stop offset="0.83" stop-color="#e5be98"/></linearGradient><linearGradient id="p" x1="18.91" y1="89.85" x2="19.09" y2="74.07" gradientTransform="matrix(0.99, -0.11, -0.11, -0.99, 35.48, 103.09)" gradientUnits="userSpaceOnUse"><stop offset="0.23" stop-color="#7d5d4c"/><stop offset="0.81" stop-color="#452723"/></linearGradient><linearGradient id="q" x1="18.85" y1="102.19" x2="18.85" y2="87.01" gradientTransform="matrix(0.99, -0.11, -0.11, -0.99, 35.48, 103.09)" gradientUnits="userSpaceOnUse"><stop offset="0.16" stop-color="#7d5d4c"/><stop offset="0.82" stop-color="#452723"/></linearGradient><linearGradient id="r" x1="-737.57" y1="85.79" x2="-737.57" y2="91.72" gradientTransform="matrix(-0.99, 0.11, -0.11, -0.99, -673.54, 184.16)" gradientUnits="userSpaceOnUse"><stop offset="0.11" stop-color="#e5be98"/><stop offset="0.3" stop-color="#e2b994"/><stop offset="0.54" stop-color="#daa98a"/><stop offset="0.79" stop-color="#cd907a"/><stop offset="1" stop-color="#bf7769"/></linearGradient><linearGradient id="s" x1="31.98" y1="90.61" x2="33.91" y2="90.61" gradientTransform="matrix(1, 0, 0, -1, 14.13, 103.32)" gradientUnits="userSpaceOnUse"><stop offset="0" stop-color="#87b7cb"/><stop offset="0.72" stop-color="#425474"/></linearGradient><linearGradient id="t" x1="-736.73" y1="91.93" x2="-733.57" y2="91.93" gradientTransform="matrix(-0.99, 0.11, -0.11, -0.99, -673.54, 184.16)" gradientUnits="userSpaceOnUse"><stop offset="0.1" stop-color="#7d5d4c"/><stop offset="0.92" stop-color="#452723"/></linearGradient><linearGradient id="u" x1="16.15" y1="86.24" x2="16.15" y2="92.06" gradientTransform="matrix(0.99, -0.11, -0.11, -0.99, 35.48, 103.09)" gradientUnits="userSpaceOnUse"><stop offset="0.11" stop-color="#e5be98"/><stop offset="0.3" stop-color="#e2b894"/><stop offset="0.55" stop-color="#d9a789"/><stop offset="0.83" stop-color="#c98b76"/><stop offset="1" stop-color="#bf7769"/></linearGradient><linearGradient id="v" x1="18.85" y1="93.06" x2="18.85" y2="84.37" gradientTransform="matrix(0.99, -0.11, -0.11, -0.99, 35.48, 103.09)" gradientUnits="userSpaceOnUse"><stop offset="0.2" stop-color="#e5be98"/><stop offset="0.36" stop-color="#e3b895"/><stop offset="0.57" stop-color="#dea68c"/><stop offset="0.81" stop-color="#d68a7f"/><stop offset="1" stop-color="#ce6e71"/></linearGradient><linearGradient id="w" x1="27.97" y1="85.07" x2="33.26" y2="85.07" gradientTransform="matrix(-1, 0, 0, 1, 75.42, -66.82)" xlink:href="#v"/><linearGradient id="x" x1="481.67" y1="-102.44" x2="481.55" y2="-105.25" gradientTransform="matrix(1.05, -0.31, -0.25, -0.97, -490.41, 60.63)" xlink:href="#t"/><linearGradient id="y" x1="26.11" y1="89.89" x2="28.04" y2="89.89" xlink:href="#s"/><linearGradient id="z" x1="14.14" y1="89.25" x2="17.3" y2="89.25" gradientTransform="matrix(0.99, -0.11, -0.11, -0.99, 35.48, 103.09)" xlink:href="#t"/><linearGradient id="aa" x1="26.24" y1="86.76" x2="27.78" y2="86.51" gradientTransform="matrix(0.99, -0.11, -0.11, -0.99, 35.48, 103.09)" xlink:href="#o"/><linearGradient id="ab" x1="1610.41" y1="81.9" x2="1611.96" y2="81.65" gradientTransform="matrix(-0.99, 0.11, -0.11, -0.99, 1647.13, -82.37)" gradientUnits="userSpaceOnUse"><stop offset="0.06" stop-color="#b47562"/><stop offset="0.23" stop-color="#cb9e91"/><stop offset="0.42" stop-color="#e1c8c0"/><stop offset="0.59" stop-color="#f1e6e2"/><stop offset="0.73" stop-color="#fbf8f7"/><stop offset="0.83" stop-color="#fff"/></linearGradient><linearGradient id="ac" x1="-231.28" y1="130.16" x2="-231.4" y2="127.34" gradientTransform="matrix(-1.08, -0.01, 0.04, -1, -208.29, 135.15)" xlink:href="#t"/><linearGradient id="ad" x1="32" y1="74" x2="37.55" y2="79.14" xlink:href="#f"/><radialGradient id="ae" cx="23.72" cy="83.75" r="1.8" gradientTransform="matrix(1, 0, 0, -1, 14.13, 103.32)" gradientUnits="userSpaceOnUse"><stop offset="0.06" stop-color="#b47562"/><stop offset="0.16" stop-color="#bb806a"/><stop offset="0.51" stop-color="#d2a283"/><stop offset="0.81" stop-color="#e0b692"/><stop offset="1" stop-color="#e5be98"/></radialGradient><linearGradient id="af" x1="30.16" y1="73.47" x2="24.77" y2="78.27" xlink:href="#f"/><linearGradient id="ag" x1="56.51" y1="64.85" x2="56.95" y2="60.22" gradientTransform="matrix(1, 0, 0, -1, 14.13, 103.32)" gradientUnits="userSpaceOnUse"><stop offset="0" stop-color="#9ccb69"/><stop offset="1" stop-color="#68793a"/></linearGradient><linearGradient id="ah" x1="58.43" y1="66.42" x2="57.97" y2="61.77" xlink:href="#ag"/><linearGradient id="ai" x1="59.25" y1="65.02" x2="57.7" y2="58.47" xlink:href="#ag"/><linearGradient id="aj" x1="57.48" y1="63.76" x2="56.89" y2="58.15" gradientTransform="matrix(1, 0, 0, -1, 14.13, 103.32)" gradientUnits="userSpaceOnUse"><stop offset="0" stop-color="#9ccb69"/><stop offset="0.08" stop-color="#97c565"/><stop offset="0.96" stop-color="#68793a"/></linearGradient><linearGradient id="ak" x1="54.48" y1="63.49" x2="55.67" y2="58.39" xlink:href="#ag"/><linearGradient id="al" x1="53.27" y1="62.26" x2="55.46" y2="57.71" xlink:href="#ag"/><linearGradient id="am" x1="55.52" y1="63.18" x2="56.81" y2="58.33" xlink:href="#ag"/><linearGradient id="an" x1="60.44" y1="64.46" x2="58.35" y2="57.19" gradientTransform="matrix(1, 0, 0, -1, 14.13, 103.32)" gradientUnits="userSpaceOnUse"><stop offset="0" stop-color="#9ccb69"/><stop offset="0.77" stop-color="#68793a"/></linearGradient><linearGradient id="ao" x1="61.1" y1="61.93" x2="59.92" y2="59.36" xlink:href="#ag"/><linearGradient id="ap" x1="60.65" y1="62.28" x2="58.68" y2="58.08" xlink:href="#ag"/><linearGradient id="aq" x1="53.86" y1="55.78" x2="60.65" y2="55.78" gradientTransform="matrix(1, 0, 0, -1, 14.13, 103.32)" gradientUnits="userSpaceOnUse"><stop offset="0" stop-color="#b1804e"/><stop offset="1" stop-color="#682d2e"/></linearGradient><linearGradient id="ar" x1="-0.53" y1="56.1" x2="5.47" y2="56.1" gradientTransform="matrix(1, 0, 0, -1, 14.13, 103.32)" gradientUnits="userSpaceOnUse"><stop offset="0.07" stop-color="#b13d55"/><stop offset="0.63" stop-color="#802d41"/><stop offset="0.71" stop-color="#7a2b3e"/><stop offset="0.82" stop-color="#692536"/><stop offset="0.91" stop-color="#551e2c"/></linearGradient><linearGradient id="as" x1="5.2" y1="5.72" x2="12" y2="38.01" xlink:href="#a"/><linearGradient id="at" x1="-148.3" y1="18.05" x2="-141.51" y2="50.33" gradientTransform="translate(-126.38 109.89) rotate(180)" xlink:href="#a"/><linearGradient id="au" x1="66.75" y1="5.72" x2="73.54" y2="38.01" xlink:href="#a"/><linearGradient id="av" x1="-209.85" y1="18.05" x2="-203.05" y2="50.33" gradientTransform="translate(-126.38 109.89) rotate(180)" xlink:href="#a"/><radialGradient id="aw" cx="45.36" cy="46.76" r="1.46" gradientTransform="matrix(1, 0, 0, -1, 0, 91)" gradientUnits="userSpaceOnUse"><stop offset="0.04" stop-color="#364971"/><stop offset="0.3" stop-color="#34466c"/><stop offset="0.6" stop-color="#2d3c5d"/><stop offset="0.93" stop-color="#222d45"/><stop offset="0.98" stop-color="#202a41"/></radialGradient><linearGradient id="ax" x1="31.23" y1="53.41" x2="31.23" y2="63.04" gradientTransform="matrix(1, 0, 0, -1, 14.13, 103.32)" gradientUnits="userSpaceOnUse"><stop offset="0" stop-color="#98a9c1"/><stop offset="0.66" stop-color="#b2c1d5"/><stop offset="0.93" stop-color="#b3c3d6"/><stop offset="0.96" stop-color="#b5c5d8"/><stop offset="0.97" stop-color="#bdccdd"/><stop offset="0.98" stop-color="#cbd7e7"/><stop offset="0.98" stop-color="#dee8f5"/><stop offset="0.99" stop-color="#ecf4ff"/><stop offset="0.99" stop-color="#dee7f2"/><stop offset="1" stop-color="#bbc4d1"/><stop offset="1" stop-color="#acb6c4"/></linearGradient><linearGradient id="ay" x1="45.37" y1="40.43" x2="45.37" y2="43.62" gradientTransform="matrix(1, 0, 0, -1, 0.01, 97.57)" gradientUnits="userSpaceOnUse"><stop offset="0.11" stop-color="#fcfdff"/><stop offset="0.58" stop-color="#b9c9dd"/><stop offset="1" stop-color="#9daabd"/></linearGradient><linearGradient id="az" x1="45.37" y1="40.84" x2="45.37" y2="41.48" gradientTransform="matrix(1, 0, 0, -1, 0.01, 97.57)" gradientUnits="userSpaceOnUse"><stop offset="0.11" stop-color="#fcfdff"/><stop offset="0.23" stop-color="#f9fbfd"/><stop offset="0.3" stop-color="#f1f2f5"/><stop offset="0.36" stop-color="#e2e4e8"/><stop offset="0.41" stop-color="#ced0d5"/><stop offset="0.46" stop-color="#b3b7bc"/><stop offset="0.51" stop-color="#92979e"/><stop offset="0.55" stop-color="#6c727c"/><stop offset="0.57" stop-color="#5c636d"/><stop offset="0.58" stop-color="#b9c9dd"/></linearGradient><linearGradient id="ba" x1="28.29" y1="53.03" x2="28.29" y2="53.48" gradientTransform="matrix(1, 0, 0, -1, 14.13, 103.32)" xlink:href="#ay"/><linearGradient id="bb" x1="34.19" y1="53.03" x2="34.19" y2="53.48" gradientTransform="matrix(1, 0, 0, -1, 14.13, 103.32)" xlink:href="#ay"/><linearGradient id="bc" x1="45.38" y1="47.14" x2="45.38" y2="46.79" gradientTransform="matrix(1, 0, 0, -1, 0.01, 97.57)" gradientUnits="userSpaceOnUse"><stop offset="0" stop-color="#b5b5b5"/><stop offset="0.22" stop-color="#949494"/><stop offset="0.7" stop-color="#404040"/><stop offset="0.98" stop-color="#0d0d0d"/></linearGradient><linearGradient id="bd" x1="31.24" y1="59.7" x2="31.24" y2="59.02" gradientTransform="matrix(1, 0, 0, -1, 14.13, 103.32)" xlink:href="#bc"/><linearGradient id="be" x1="31.24" y1="59.59" x2="31.24" y2="58.86" gradientTransform="matrix(1, 0, 0, -1, 14.13, 103.32)" gradientUnits="userSpaceOnUse"><stop offset="0" stop-color="#424242"/><stop offset="0.24" stop-color="#262626"/><stop offset="0.5" stop-color="#111"/><stop offset="0.75" stop-color="#040404"/><stop offset="0.98"/></linearGradient><linearGradient id="bf" x1="31.25" y1="59.69" x2="31.21" y2="58.36" gradientTransform="matrix(1, 0, 0, -1, 14.13, 103.32)" gradientUnits="userSpaceOnUse"><stop offset="0" stop-color="#424242"/><stop offset="0.16" stop-color="#363636"/><stop offset="0.44" stop-color="#161616"/><stop offset="0.6"/></linearGradient><linearGradient id="bg" x1="45.37" y1="46.83" x2="45.37" y2="47.16" xlink:href="#bc"/><linearGradient id="bh" x1="31.24" y1="59.63" x2="31.24" y2="59.13" gradientTransform="matrix(1, 0, 0, -1, 14.13, 103.32)" xlink:href="#bc"/><linearGradient id="bi" x1="31.23" y1="59.66" x2="31.25" y2="58.8" gradientTransform="matrix(1, 0, 0, -1, 14.13, 103.32)" gradientUnits="userSpaceOnUse"><stop offset="0" stop-color="#b5b5b5"/><stop offset="0.04" stop-color="#949494"/><stop offset="0.12" stop-color="#404040"/><stop offset="0.16" stop-color="#0d0d0d"/></linearGradient><radialGradient id="bj" cx="31.25" cy="59.25" r="0.21" gradientTransform="matrix(1, 0, 0, -1, 14.13, 103.32)" gradientUnits="userSpaceOnUse"><stop offset="0" stop-color="#949494"/><stop offset="0.25" stop-color="#5f5f5f"/><stop offset="0.67"/></radialGradient><linearGradient id="bk" x1="45.42" y1="47.19" x2="45.36" y2="46.91" gradientTransform="matrix(1, 0, 0, -1, 0.01, 97.57)" gradientUnits="userSpaceOnUse"><stop offset="0" stop-color="#949494"/><stop offset="0.2" stop-color="#5e5e5e"/><stop offset="0.42" stop-color="#2b2b2b"/><stop offset="0.58" stop-color="#0c0c0c"/><stop offset="0.67"/></linearGradient><linearGradient id="bl" x1="58.38" y1="48.22" x2="58.66" y2="46.24" gradientTransform="matrix(1, 0, 0, -1, 0.01, 97.57)" gradientUnits="userSpaceOnUse"><stop offset="0.51" stop-color="#384b74"/><stop offset="0.98" stop-color="#213152"/></linearGradient><linearGradient id="bm" x1="58.53" y1="46.48" x2="58.53" y2="47.69" xlink:href="#bl"/><linearGradient id="bn" x1="23.33" y1="60.4" x2="23.33" y2="59.44" gradientTransform="matrix(1, 0, 0, -1, 14.13, 103.32)" gradientUnits="userSpaceOnUse"><stop offset="0" stop-color="#b5b5b5"/><stop offset="0.21" stop-color="#949494"/><stop offset="0.66" stop-color="#404040"/><stop offset="0.98"/></linearGradient><linearGradient id="bo" x1="22.52" y1="60.4" x2="22.52" y2="59.44" xlink:href="#bn"/><linearGradient id="bp" x1="21.72" y1="60.23" x2="21.72" y2="59.36" xlink:href="#bn"/><linearGradient id="bq" x1="20.91" y1="60.23" x2="20.91" y2="59.36" xlink:href="#bn"/></defs><title>men_1</title><path d="M93.13,90.44s-20.84,2.28-46.56,2.28S0,90.44,0,90.44s20.85-2.28,46.58-2.28S93.13,90.44,93.13,90.44Z" transform="translate(0.01 6.57)" style="fill:#dfdfdf"/><polygon points="36.08 85.56 35.92 87.16 54.77 86.57 54.6 85.64 36.08 85.56" style="fill:url(#a)"/><polygon points="36.17 73.01 33.73 96.84 34.82 96.84 38.36 73.26 36.17 73.01" style="fill:url(#b)"/><polygon points="54.6 73.01 57.05 96.84 55.95 96.84 52.42 73.26 54.6 73.01" style="fill:url(#c)"/><path d="M34.62,66.2h0a1,1,0,0,0,.94.85l19.14.46a1,1,0,0,0,1-1v-.23a1,1,0,0,0-1-.9l-19.12-.23a1,1,0,0,0-1,1Z" transform="translate(0.01 6.57)" style="fill:#683639"/><path d="M52.74,65.6a16.67,16.67,0,0,1-6.23-.51l-.76-3.87S52.49,63.07,52.74,65.6Z" transform="translate(0.01 6.57)" style="fill:url(#d)"/><path d="M44.36,87.32l-.13,2.27.42.17S43.65,91,48,91.11a1.69,1.69,0,0,0-1.77-2.36,5.16,5.16,0,0,1-.55-1.14Z" transform="translate(0.01 6.57)" style="fill:#101221"/><path d="M35.4,58.44c-.59,3.87-.42,6.65,1.68,7.16a58.22,58.22,0,0,0,6.48.84l.38,21.26s2.4.46,2.4,0,2.78-18.94,2.53-22S44,61.32,44,61.32l.08-2.19Z" transform="translate(0.01 6.57)" style="fill:url(#e)"/><path d="M44.91,45.73a25.52,25.52,0,0,1-4-10.89l-2.4-7.52,6.4.08s6.82.67,6.4.84-2.65,7.91-2.65,7.91S46.85,43.45,44.91,45.73Z" transform="translate(0.01 6.57)" style="fill:url(#f)"/><path d="M46.46,41.21l.21,2.11a16.37,16.37,0,0,1-1.76,2.36,16.38,16.38,0,0,1-1.78-2.36l.21-2.16,1-10-1.6-1.52,2.19-2.36,2.2,2.45-1.6,1.52Z" transform="translate(0.01 6.57)" style="fill:url(#g)"/><path d="M45.67,59.54c-.42.51-9.77-.08-10.52-.42-.34-.15-.22-1.59,0-3.62h0a45.58,45.58,0,0,0,.14-9c-.17-1.39-.61-1.82-1.17-1.7-1.64.36-4.31,5.52-4.31,5.52a1.88,1.88,0,0,1-.23-.21c-2.13-2.27-1-10.49.07-15.75v-.21c.24-1.22.47-2.26.64-3s.32-1.35.32-1.35L38.81,27s1.14,3.48,2.49,7.48l.09.28c1.53,4.54,3.28,9.64,3.9,11a7.39,7.39,0,0,1,.46,1.9,5.94,5.94,0,0,0,.09.69C46.33,52.49,46,59.14,45.67,59.54Z" transform="translate(0.01 6.57)" style="fill:url(#h)"/><path d="M45.79,47.72c-.07.23-.16.46-.25.69A11.33,11.33,0,0,1,35.13,55.5h-.34a45.57,45.57,0,0,0,.14-9c-.13-1.09-.43-1.6-.83-1.7-1.39-.37-4,4.31-4.53,5.36-2.13-2.27-1-10.49.07-15.75V34.2c.24-1.22.47-2.26.64-3,1.91-.87,5-2,6.67-2,2.19,0,2.31,4.25,4,5.33l.43.28c1.53,4.54,3.28,9.64,3.9,11A7.39,7.39,0,0,1,45.79,47.72Z" transform="translate(0.01 6.57)" style="opacity:0.5;isolation:isolate;fill:url(#i)"/><path d="M44.91,45.73a16.38,16.38,0,0,1-1.78-2.41c-1.54-2.33-3.34-5.54-3.29-6.22a6.44,6.44,0,0,1,.59-2s-1.35.08-1.6-.51-1.43-7.41-1.43-7.41l1.52-1.35S41.39,35,43.34,41.18C43.95,43.1,44.5,44.72,44.91,45.73Z" transform="translate(0.01 6.57)" style="fill:#47677f"/><path d="M55.43,37.44a11.09,11.09,0,0,0,3.79-7.62L51,27s-4.88,16.42-6.06,19-1.18,13-.76,13.47,10.52-.42,11.28-.76-1.52-6.82-.84-12.29S55.43,37.44,55.43,37.44Z" transform="translate(0.01 6.57)" style="fill:url(#j)"/><polygon points="34.93 59.81 34.91 60.69 38 61.23 38.12 60.44 34.93 59.81" style="fill:#202834"/><path d="M33.94,77.69a9.36,9.36,0,0,1-.71,2.63l-1-.31.11-.44a4.84,4.84,0,0,1-2.38.1,21.87,21.87,0,0,1-2.33-1.11,2.92,2.92,0,0,1,2.28-.78,7.39,7.39,0,0,1,2.44.67l.79-.84Z" transform="translate(0.01 6.57)" style="fill:#101221"/><path d="M30.13,77.6l1.1.88h.42L31,77.66Z" transform="translate(0.01 6.57)" style="fill:#6a6c76"/><polygon points="55.19 59.81 55.21 60.69 52.12 61.23 52 60.44 55.19 59.81" style="fill:#202834"/><path d="M46.13,62.48c-1.52,3.37-12,16.84-12,16.84L32.45,77.8s8.08-18.86,9.93-20.88,12,.17,13.13,2.69-.93,5.89-2.69,6C50.29,65.71,46.13,62.48,46.13,62.48Z" transform="translate(0.01 6.57)" style="fill:url(#k)"/><path d="M46.26,88.16c-.13,0-1.35.29-1.35.29l.38.51,1.14-.42Z" transform="translate(0.01 6.57)" style="fill:#6a6c76"/><path d="M64.13,50.19c-.17,1-11,0-11,0l.93-3.28,4.29-1.18-2.22-6.26-.7-2s.84-4.93,3.79-7.62a19.45,19.45,0,0,1,2.33,5,57,57,0,0,1,2.06,9.47A38,38,0,0,1,64.13,50.19Z" transform="translate(0.01 6.57)" style="fill:url(#l)"/><path d="M63.61,44.32,58.3,45.77l-2.17-6.3c1.42-1.25,4.21-3.68,5.41-4.63A57,57,0,0,1,63.61,44.32Z" transform="translate(0.01 6.57)" style="fill:url(#m)"/><circle cx="45.46" cy="55.19" r="0.53"/><circle cx="45.43" cy="60.72" r="0.53" style="fill:#202834"/><path d="M41.26,22.32c-.17.17-1.23,4.1-1.23,4.1l4.88,1,5-1.35-.83-4.25Z" transform="translate(0.01 6.57)" style="fill:url(#n)"/><path d="M37.32,13.32s-2.24.17-2.59.61.42,3.65.82,4,2.62,0,2.62,0Z" transform="translate(0.01 6.57)" style="fill:url(#o)"/><path d="M50.83,11.73s2.22-.34,2.66,0,.42,3.65.11,4.1-2.55.56-2.55.56Z" transform="translate(0.01 6.57)" style="fill:#e5be98"/><path d="M51.41,5.38c-.09.78-.53,5.13-.54,5.16h0a8.18,8.18,0,0,0,0,1c.2,2.75.86,8.93.14,10.5a3,3,0,0,1-1.49,1.28l-.2.09a11.17,11.17,0,0,1-1.48.52,18.33,18.33,0,0,1-2.45.51H45a18.06,18.06,0,0,1-2.11,0,11.17,11.17,0,0,1-1.56-.12h-.21a3,3,0,0,1-1.74-.87c-1.06-1.44-1.82-7.61-2.3-10.34-.07-.41-.12-.75-.17-1,0,0-1.43-4.17-1.69-4.91s1.66-2,1.66-2S35.13,2.81,38.21.63A3.22,3.22,0,0,1,39.36.12h0A4.21,4.21,0,0,1,39.9,0h0a9.29,9.29,0,0,1,3.86.61L44,.73a16.37,16.37,0,0,1,5.31,3S51.5,4.61,51.41,5.38Z" transform="translate(0.01 6.57)" style="fill:url(#p)"/><path d="M51.41,5.38c-.09.78-.53,5.13-.54,5.16h0a8.18,8.18,0,0,0,0,1L37.13,13.11c-.07-.41-.12-.75-.17-1,0,0-1.43-4.17-1.69-4.91s1.66-2,1.66-2S35.13,2.81,38.21.63A3.22,3.22,0,0,1,39.36.12h0A4.21,4.21,0,0,1,39.9,0h0a9.29,9.29,0,0,1,3.86.61L44,.73a16.37,16.37,0,0,1,5.31,3S51.5,4.61,51.41,5.38Z" transform="translate(0.01 6.57)" style="fill:url(#q)"/><g style="opacity:0.5"><path d="M41.38,24.32h-.21a22.28,22.28,0,0,1-1.44-7.17h.18A21.85,21.85,0,0,0,41.38,24.32Z" transform="translate(0.01 6.57)" style="fill:#9f645e"/></g><g style="opacity:0.5"><path d="M49.37,23.37l.2-.09A22.28,22.28,0,0,0,49.35,16l-.22.06A21.85,21.85,0,0,1,49.37,23.37Z" transform="translate(0.01 6.57)" style="fill:#9f645e"/></g><g style="opacity:0.5"><path d="M40.83,5.81,40.77,6c-1.84-.66-2.9-1.91-2.81-3.43A3.16,3.16,0,0,1,39.36.12h0A4.2,4.2,0,0,1,39.9,0a3,3,0,0,0-1.77,2.53C38.06,4,39.07,5.21,40.83,5.81Z" transform="translate(0.01 6.57)" style="fill:#9f645e"/></g><g style="opacity:0.5"><path d="M45.13,5.32V5.5a3,3,0,0,1-2.24-3.42,1.82,1.82,0,0,1,1-1.4l.25.09a1.61,1.61,0,0,0-1,1.34A2.78,2.78,0,0,0,45.13,5.32Z" transform="translate(0.01 6.57)" style="fill:#9f645e"/></g><g style="opacity:0.5"><path d="M45.23,24.42h-.18A36.53,36.53,0,0,1,44.23,19h.18A36,36,0,0,0,45.23,24.42Z" transform="translate(0.01 6.57)" style="fill:#9f645e"/></g><path d="M49.73,7.2l-.45-1.32a1.71,1.71,0,0,0-1.84-1.14s-3.1.74-4.16.86S39,5.71,39,5.71a1.71,1.71,0,0,0-1.54,1.53l-.13,1.38a15.27,15.27,0,0,0,.88,6.83l.27.73a1.71,1.71,0,0,0,1.77,1.14L44,16.94l.61-.07.56-.1,3.72-.45a1.71,1.71,0,0,0,1.48-1.49l.1-.77A15.27,15.27,0,0,0,49.73,7.2Z" transform="translate(0.01 6.57)" style="fill:#e5be98"/><path d="M48.81,10.09c.51,3.4,0,4.19,0,4.19l-4.19.66s-.47.34-.44-2a12.09,12.09,0,0,1,.28-3.06l2.13-.14Z" transform="translate(0.01 6.57)" style="fill:url(#r)"/><path d="M48.68,12.19a8.56,8.56,0,0,1-.46,1.13.7.7,0,0,1-.32.11,9.08,9.08,0,0,1-1.57.12.53.53,0,0,1-.18,0,4.19,4.19,0,0,1-.43-1.16,1.81,1.81,0,0,1,1.41-.5A4.47,4.47,0,0,1,48.68,12.19Z" transform="translate(0.01 6.57)" style="fill:#fff"/><path d="M47.9,13.43a9.08,9.08,0,0,1-1.57.12,1,1,0,1,1,1.57-.12Z" transform="translate(0.01 6.57)" style="fill:url(#s)"/><path d="M45.72,12.38l-.15-.16s.25-.6,1.44-.65a2.26,2.26,0,0,1,1.72.53l0,.09a3.35,3.35,0,0,0-1.71-.3A2,2,0,0,0,45.72,12.38Z" transform="translate(0.01 6.57)" style="fill:url(#t)"/><path d="M38.88,11.24c0,3.37.89,4.08.89,4.08L44,15a37.88,37.88,0,0,0-.52-4.15c-.25-1.4-.65-1.4-.65-1.4l-2.19.48Z" transform="translate(0.01 6.57)" style="fill:url(#u)"/><path d="M45.13,15.32c-.75-1.85-1-6.43-.52-7.33l-2.18.16c.7.76,1.54,5.36,1.22,7.34-.55-.25-1.16.13-.92.65s1.14.68,1.81.6,1.54-.55,1.63-1S45.63,15,45.13,15.32Z" transform="translate(0.01 6.57)" style="fill:url(#v)"/><path d="M47.42,18.18c-1.92-.38-4.19-.12-5.29,1a3.4,3.4,0,0,1,5.29-1Z" transform="translate(0.01 6.57)" style="fill:url(#w)"/><path d="M42.87,8.08a8,8,0,0,1,.3,2.3c-.68-.27-3.71.56-4.36,1.23a3.48,3.48,0,0,1-.36-1.06,3.57,3.57,0,0,1,.68-.91,4.4,4.4,0,0,0,.42.55s-.11-.44-.2-.74a5.87,5.87,0,0,1,2.78-1.19l.72,1.64-.17-1.77Z" transform="translate(0.01 6.57)" style="fill:url(#x)"/><path d="M42.4,12.77A4.18,4.18,0,0,1,42.24,14a.5.5,0,0,1-.18.07h0a9.41,9.41,0,0,1-1.56.27.7.7,0,0,1-.33,0,8.77,8.77,0,0,1-.71-1,2.46,2.46,0,0,1,1.38-1A1.62,1.62,0,0,1,42.4,12.77Z" transform="translate(0.01 6.57)" style="fill:#fff"/><path d="M42.07,14h0a9.41,9.41,0,0,1-1.57.28A1,1,0,1,1,42.07,14Z" transform="translate(0.01 6.57)" style="fill:url(#y)"/><path d="M42.4,12.76l.11-.2a1.76,1.76,0,0,0-1.66-.33,1.85,1.85,0,0,0-1.45.93l.07.08a2.68,2.68,0,0,1,1.5-.72A2.22,2.22,0,0,1,42.4,12.76Z" transform="translate(0.01 6.57)" style="fill:url(#z)"/><path d="M51.85,15.54a1.92,1.92,0,0,0,1.09-.5c.34-.42.09-2.7.09-2.7s-1-.12-1.27.19A7.86,7.86,0,0,0,51.85,15.54Z" transform="translate(0.01 6.57)" style="fill:url(#aa)"/><path d="M37.19,17.22A1.92,1.92,0,0,1,36,17c-.43-.33-.7-2.61-.7-2.61s1-.35,1.28-.1A7.86,7.86,0,0,1,37.19,17.22Z" transform="translate(0.01 6.57)" style="opacity:0.4000000059604645;isolation:isolate;fill:url(#ab)"/><path d="M53,12.32s-1.38-.22-1.45.11a8.43,8.43,0,0,0,.24,3v.09a14.7,14.7,0,0,1,0-2.93A5.2,5.2,0,0,1,53,12.32Z" transform="translate(0.01 6.57)" style="fill:#af736f"/><path d="M35.31,14.32s1.29-.53,1.43-.22a8.44,8.44,0,0,1,.45,3v.12a14.69,14.69,0,0,0-.65-2.9A5.2,5.2,0,0,0,35.31,14.32Z" transform="translate(0.01 6.57)" style="fill:#af736f"/><path d="M44.3,8.14a7.85,7.85,0,0,0,.19,2.29,7.64,7.64,0,0,1,4.49,0,3.58,3.58,0,0,0,.15-1.11,3.21,3.21,0,0,0-.85-.68,4.76,4.76,0,0,1-.3.64V8.51a5.67,5.67,0,0,0-2.92-.37l-.33,1.73-.2-1.75Z" transform="translate(0.01 6.57)" style="fill:url(#ac)"/><path d="M50,25.19c-.51.34-5,2.19-5,2.19l2.44,3.87,4-4Z" transform="translate(0.01 6.57)" style="fill:url(#ad)"/><path d="M38.34,22c-1.29-2.36-1.21-4.83-.9-4.94s.67,1.63.9,2.53A8,8,0,0,1,38.34,22Z" transform="translate(0.01 6.57)" style="fill:url(#ae)"/><path d="M37.92,18.71c-.61-.2-.4,2.7.84,4.29.59.76-.08,2.1-.08,2.1l1.35.51a3,3,0,0,0,.59-2.36c-.34-1.18-1.26-1.43-1.68-2.44S38.43,18.87,37.92,18.71Z" transform="translate(0.01 6.57)" style="fill:#e5be98"/><path d="M52.4,27.21S51.22,34,51,34.62s-1.6.51-1.6.51a6.44,6.44,0,0,1,.59,2c.06.69-1.75,3.89-3.29,6.22a16.37,16.37,0,0,1-1.76,2.36c.41-1,1-2.62,1.56-4.52,2-6.21,4.42-15.35,4.42-15.35Z" transform="translate(0.01 6.57)" style="fill:#47677f"/><path d="M39.86,25.19c.51.34,5,2.19,5,2.19l-2.44,3.87-4-4Z" transform="translate(0.01 6.57)" style="fill:url(#af)"/><path d="M38.13,24.32l2.78,1.26S37,44.72,36.13,47s-5.53,4.13-6.37,3.33S27.4,43.12,38.13,24.32Z" transform="translate(0.01 6.57)" style="fill:#425168"/><path d="M71.45,42.76c-1.17-4-.66-6-.19-7.35a11.05,11.05,0,0,0-1.13,7,9.31,9.31,0,0,0,.82,2.66Z" transform="translate(0.01 6.57)" style="fill:url(#ag)"/><path d="M72.59,36.68a20,20,0,0,1-.09,5.07l-.63.23a8,8,0,0,1,0-2.51A10.34,10.34,0,0,0,72.59,36.68Z" transform="translate(0.01 6.57)" style="fill:url(#ah)"/><path d="M71.86,42c1.8-2.23,1.57-5.64,1.76-5.61.69,2.2-.54,5.76-.94,7a5.65,5.65,0,0,0-.35,2L71.54,45Z" transform="translate(0.01 6.57)" style="fill:url(#ai)"/><path d="M70.22,45c.16-2.18,1.17-1.72,1.26-3.92a30.29,30.29,0,0,0,0-3.61s.6.49.63,4.1-1,4.28-1,4.28Z" transform="translate(0.01 6.57)" style="fill:url(#aj)"/><path d="M70.66,44.86a20.28,20.28,0,0,1-2.71-6.15,10.28,10.28,0,0,0,1.54,6.23C70.44,45.7,70.66,44.86,70.66,44.86Z" transform="translate(0.01 6.57)" style="fill:url(#ak)"/><path d="M69.66,44.83a13,13,0,0,0-2.83-4A24.24,24.24,0,0,1,69,45.08C69.78,45.78,69.66,44.83,69.66,44.83Z" transform="translate(0.01 6.57)" style="fill:url(#al)"/><path d="M70.85,44.32a22,22,0,0,1-1.61-8.12,20.34,20.34,0,0,0,1.17,8.86C71.13,45.32,70.85,44.32,70.85,44.32Z" transform="translate(0.01 6.57)" style="fill:url(#am)"/><path d="M73.23,45.32a15.29,15.29,0,0,1,2-6.39,19.19,19.19,0,0,0-3.08,6c-.43,1.83.17.74.17.74Z" transform="translate(0.01 6.57)" style="fill:url(#an)"/><path d="M73.43,45.32a15.7,15.7,0,0,1,2-3.46A9.43,9.43,0,0,0,73.3,44.7C72.71,46,73.43,45.32,73.43,45.32Z" transform="translate(0.01 6.57)" style="fill:url(#ao)"/><path d="M75.28,40.79c-1.41-.13-2.52,4.59-2.52,4.59l.37-.06S74.29,41.38,75.28,40.79Z" transform="translate(0.01 6.57)" style="fill:url(#ap)"/><path d="M74.78,44.61a18.65,18.65,0,0,1-.17,2v.32c0,.1-.08.45-.12.66l-.11.46a8.59,8.59,0,0,1-.63,1.75,1.06,1.06,0,0,1-1,.66H70a1.06,1.06,0,0,1-1-.66,8,8,0,0,1-.51-1.48c-.09-.33-.17-.67-.24-1s-.08-.43-.11-.65,0-.39-.07-.58c0-.47-.08-1-.1-1.43Z" transform="translate(0.01 6.57)" style="fill:url(#aq)"/><path d="M68.28,47.32l6.17.28-.11.46-5.83.26C68.42,48,68.34,47.63,68.28,47.32Z" transform="translate(0.01 6.57)" style="fill:#caa97f;opacity:0.30000001192092896;isolation:isolate"/><path d="M74.62,46.57v.32l-6.49-.27a2.46,2.46,0,0,0-.07-.58Z" transform="translate(0.01 6.57)" style="fill:#caa97f;opacity:0.30000001192092896;isolation:isolate"/><path d="M14.19,46.17s-1.73-1.16-2.06-.85,0,3.53.26,4,2.09-.58,2.09-.58V48.4a3,3,0,0,1-1.44.29c-.47-.15-.44-2.71-.17-2.71a9,9,0,0,1,1.5.58Z" transform="translate(0.01 6.57)" style="fill:#b13d55"/><path d="M14.39,50.48l-.79-6a8.88,8.88,0,0,1,6,0c-.41,1.28-1.08,5.84-1.08,5.84Z" transform="translate(0.01 6.57)" style="fill:url(#ar)"/><path d="M16.47,43s-1.84-.63-1.68-1.47,1.39-.65,1.79-1.06-.89-1.6-.89-1.6,2.44.7,2.44,1.82-1.92.68-2.32,1S16.47,43,16.47,43Z" transform="translate(0.01 6.57)" style="fill:#cac9db"/><polygon points="9.54 58.02 6.42 97.06 6.9 97.06 11.59 58.02 9.54 58.02" style="fill:url(#as)"/><polygon points="17.59 58.02 20.72 97.06 20.24 97.06 15.55 58.02 17.59 58.02" style="fill:url(#at)"/><polygon points="71.09 58.02 67.96 97.06 68.45 97.06 73.13 58.02 71.09 58.02" style="fill:url(#au)"/><polygon points="79.14 58.02 82.26 97.06 81.78 97.06 77.1 58.02 79.14 58.02" style="fill:url(#av)"/><rect x="7.89" y="56.85" width="73.07" height="1.64" style="fill:#232436"/><path d="M59.8,25.32H30.94a.31.31,0,0,0-.31.31V45.15a.32.32,0,0,0,.32.32H59.79a.32.32,0,0,0,.32-.32V25.63a.31.31,0,0,0-.31-.31Z" transform="translate(0.01 6.57)" style="fill:#b5b5b5"/><path d="M45.36,42.43h0a1,1,0,0,1,1,1V45a1,1,0,0,1-1,1h0a1,1,0,0,1-1-1v-1.6A1,1,0,0,1,45.36,42.43Z" transform="translate(0.01 6.57)" style="fill:url(#aw)"/><path d="M48.58,40.32H42.13a.27.27,0,0,0-.27.27h0v9.49h7V40.54A.27.27,0,0,0,48.58,40.32ZM46,44.82a.68.68,0,0,1-.68.68h0a.68.68,0,0,1-.68-.68h0V43.69a.68.68,0,0,1,.68-.68h0a.68.68,0,0,1,.68.68h0Z" transform="translate(0.01 6.57)" style="fill:url(#ax)"/><rect x="41.89" y="56.29" width="6.97" height="0.09" style="fill:#5c636d"/><rect x="41.89" y="56.09" width="6.97" height="0.21" style="fill:url(#ay)"/><rect x="41.89" y="56.37" width="6.97" height="0.23" style="fill:url(#az)"/><path d="M42.79,50.18H42a.15.15,0,0,1-.15-.15h1.06a.15.15,0,0,1-.15.15Z" transform="translate(0.01 6.57)" style="fill:url(#ba)"/><path d="M48.69,50.18h-.75a.15.15,0,0,1-.15-.15h1.06a.15.15,0,0,1-.15.15Z" transform="translate(0.01 6.57)" style="fill:url(#bb)"/><circle cx="45.39" cy="50.62" r="0.16" style="fill:url(#bc)"/><path d="M45.37,43.62a.42.42,0,1,0,.42.42.42.42,0,0,0-.42-.42Zm0,.74a.32.32,0,1,1,.32-.32h0a.32.32,0,0,1-.32.28Z" transform="translate(0.01 6.57)" style="fill:url(#bd)"/><path d="M45.37,43.73a.32.32,0,1,0,.32.32h0A.32.32,0,0,0,45.37,43.73Zm0,.54a.22.22,0,1,1,.22-.22h0A.22.22,0,0,1,45.37,44.27Z" transform="translate(0.01 6.57)" style="fill:url(#be)"/><path d="M45.37,44.38a.33.33,0,1,1,.33-.33h0A.33.33,0,0,1,45.37,44.38Zm0-.64a.31.31,0,1,0,.31.31h0a.31.31,0,0,0-.31-.31Zm0,.1a.21.21,0,1,0,.21.21h0a.21.21,0,0,0-.21-.21Z" transform="translate(0.01 6.57)" style="fill:url(#bf)"/><circle cx="45.38" cy="50.62" r="0.17" style="fill:url(#bg)"/><path d="M45.37,43.83a.22.22,0,1,0,.22.22h0A.22.22,0,0,0,45.37,43.83Zm0,.37a.15.15,0,1,1,.15-.15h0A.15.15,0,0,1,45.37,44.2Z" transform="translate(0.01 6.57)" style="fill:url(#bh)"/><path d="M45.37,44.32a.23.23,0,1,1,.23-.23h0A.23.23,0,0,1,45.37,44.32Zm0-.44a.21.21,0,1,0,.21.21h0a.21.21,0,0,0-.17-.25h0Zm0,.37a.16.16,0,1,1,.16-.16h0a.16.16,0,0,1-.16.12Zm0-.3a.14.14,0,1,0,.14.14h0a.14.14,0,0,0-.08-.18h-.06Z" transform="translate(0.01 6.57)" style="fill:url(#bi)"/><path d="M45.47,44.07h0a.14.14,0,0,0-.26,0h0a.16.16,0,0,0,.13.09.17.17,0,0,0,.14-.08h0Z" transform="translate(0.01 6.57)" style="fill:url(#bj)"/><circle cx="45.38" cy="50.62" r="0.07" style="fill:url(#bk)"/><circle cx="58.54" cy="50.43" r="0.45" style="fill:url(#bl)"/><circle cx="58.54" cy="50.44" r="0.44" style="fill:url(#bm)"/><path d="M58.59,43.68h0a.19.19,0,1,1-.15,0h0a.22.22,0,1,0,.18,0Z" transform="translate(0.01 6.57)" style="fill:#b9c9dd"/><path d="M58.53,43.83h0v-.21h0v.21Z" transform="translate(0.01 6.57)" style="fill:#b9c9dd"/><path d="M46.26,31.43a1.2,1.2,0,0,1-.7.36,1,1,0,0,1,.87-1.11h.06A1.2,1.2,0,0,1,46.26,31.43Z" transform="translate(0.01 6.57)" style="fill:#d6d7d8"/><path d="M46.85,33.26a.9.9,0,0,1,.49-.84A1.09,1.09,0,0,0,47,32c-.59-.33-.85.07-1.31.07s-.72-.4-1.31-.07a1.56,1.56,0,0,0-.65,1.41,2.24,2.24,0,0,0,1,1.91c.26.13.6-.11.92-.13s.66.26.92.13a2,2,0,0,0,.93-1.21A.85.85,0,0,1,46.85,33.26Z" transform="translate(0.01 6.57)" style="fill:#e3e4e5"/><path d="M37.46,44.32h0a.08.08,0,0,1-.08-.08v-.66a.08.08,0,0,1,.08-.08h0a.08.08,0,0,1,.08.08v.66A.08.08,0,0,1,37.46,44.32Z" transform="translate(0.01 6.57)" style="fill:url(#bn)"/><path d="M36.65,44.32h0a.08.08,0,0,1-.08-.08v-.66a.08.08,0,0,1,.08-.08h0a.08.08,0,0,1,.08.08v.66A.08.08,0,0,1,36.65,44.32Z" transform="translate(0.01 6.57)" style="fill:url(#bo)"/><path d="M35.85,44.32h0a.08.08,0,0,1-.08-.08v-.66a.08.08,0,0,1,.08-.08h0a.08.08,0,0,1,.08.08v.66A.08.08,0,0,1,35.85,44.32Z" transform="translate(0.01 6.57)" style="fill:url(#bp)"/><path d="M35,44.32h0a.08.08,0,0,1-.08-.08v-.66A.08.08,0,0,1,35,43.5h0a.08.08,0,0,1,.08.08v.66A.08.08,0,0,1,35,44.32Z" transform="translate(0.01 6.57)" style="fill:url(#bq)"/><circle cx="19.25" cy="9.2" r="9.2" style="fill:#aca74d"/><circle cx="26.74" cy="14.23" r="2.43" style="fill:#fff"/><circle cx="26.74" cy="14.23" r="1.83" style="fill:#aca74d"/><circle cx="31.05" cy="17.43" r="1.32" style="fill:#aca74d"/><path d="M18.34,0a3,3,0,0,0,.49,1c0,.08,0,.13-.2.13A2.21,2.21,0,0,1,16.69-.34c-.21-1.12,1-1.9,2.55-1.9s2.88.72,3.12,2.06c.37,2-2.51,3-2.82,4.35-.05.21-.14.49-.34.52a3.52,3.52,0,0,1-.75,0,.26.26,0,0,1-.24-.21C18,3.21,20.77,1.54,20.38-.59a1,1,0,0,0-1-.85A1.1,1.1,0,0,0,18.34,0Zm.48,5.33a.8.8,0,0,1,.81.67.91.91,0,0,1-.82,1.1.8.8,0,0,1-.81-.7A.93.93,0,0,1,18.83,5.29Z" transform="translate(0.01 6.57)" style="fill:#fff"/></svg>