<svg id="men_5" xmlns="http://www.w3.org/2000/svg" xmlns:xlink="http://www.w3.org/1999/xlink" viewBox="0 0 106.55 83.34"><defs><linearGradient id="a" x1="76.45" y1="66.83" x2="76.45" y2="78.92" gradientUnits="userSpaceOnUse"><stop offset="0" stop-color="#40261f"/><stop offset="0.57" stop-color="#523a31"/><stop offset="1" stop-color="#634b41"/></linearGradient><linearGradient id="b" x1="1030.73" y1="58.58" x2="1030.73" y2="70.66" gradientTransform="matrix(-1, 0, 0, 1, 1124.21, 8.25)" xlink:href="#a"/><linearGradient id="c" x1="50.17" y1="66.83" x2="50.17" y2="78.92" xlink:href="#a"/><linearGradient id="d" x1="1057.01" y1="58.58" x2="1057.01" y2="70.66" gradientTransform="matrix(-1, 0, 0, 1, 1124.21, 8.25)" xlink:href="#a"/><linearGradient id="e" x1="26.85" y1="48.91" x2="26.85" y2="55.12" gradientUnits="userSpaceOnUse"><stop offset="0" stop-color="#923c41"/><stop offset="0.33" stop-color="#9a4744"/><stop offset="1" stop-color="#a85b4a"/></linearGradient><linearGradient id="f" x1="31.5" y1="28.56" x2="36.31" y2="19.32" gradientUnits="userSpaceOnUse"><stop offset="0" stop-color="#faf9f3"/><stop offset="1" stop-color="#dfdcd0"/></linearGradient><linearGradient id="g" x1="34.02" y1="12.54" x2="42.44" y2="12.54" gradientUnits="userSpaceOnUse"><stop offset="0.06" stop-color="#b47562"/><stop offset="0.25" stop-color="#bc816b"/><stop offset="0.58" stop-color="#d2a284"/><stop offset="0.83" stop-color="#e5be98"/></linearGradient><linearGradient id="h" x1="35.87" y1="17.98" x2="33.74" y2="23.17" gradientUnits="userSpaceOnUse"><stop offset="0.06" stop-color="#b83f51"/><stop offset="0.47" stop-color="#cb465a"/><stop offset="0.53" stop-color="#ce475b"/><stop offset="1" stop-color="#ce475b"/></linearGradient><linearGradient id="i" x1="36.19" y1="17.22" x2="44.02" y2="17.22" gradientUnits="userSpaceOnUse"><stop offset="0.18" stop-color="#faf9f3"/><stop offset="0.44" stop-color="#f0eee6"/><stop offset="0.77" stop-color="#dfdcd0"/></linearGradient><radialGradient id="j" cx="21.53" cy="50.54" r="13.66" gradientUnits="userSpaceOnUse"><stop offset="0" stop-color="#101221"/><stop offset="0.27" stop-color="#202638"/><stop offset="0.74" stop-color="#39455b"/><stop offset="1" stop-color="#425168"/></radialGradient><linearGradient id="k" x1="32.18" y1="17.01" x2="36.19" y2="17.01" xlink:href="#i"/><radialGradient id="l" cx="27.84" cy="51.8" r="12.55" xlink:href="#j"/><radialGradient id="m" cx="18.23" cy="39.15" r="13.99" xlink:href="#j"/><radialGradient id="n" cx="43.63" cy="44.96" r="15.33" xlink:href="#j"/><radialGradient id="o" cx="13.02" cy="34.32" r="13.45" xlink:href="#j"/><linearGradient id="p" x1="430.16" y1="352.78" x2="450.2" y2="358.88" gradientTransform="translate(-502.88 -179.6) rotate(-20.04)" gradientUnits="userSpaceOnUse"><stop offset="0.24" stop-color="#7f5a40"/><stop offset="0.86" stop-color="#492720"/></linearGradient><linearGradient id="q" x1="32.79" y1="3.88" x2="31.87" y2="-0.13" gradientUnits="userSpaceOnUse"><stop offset="0" stop-color="#e5be98"/><stop offset="0.3" stop-color="#d2a284"/><stop offset="0.71" stop-color="#bc816b"/><stop offset="0.94" stop-color="#b47562"/></linearGradient><linearGradient id="r" x1="435.74" y1="355.85" x2="436.81" y2="348.72" gradientTransform="translate(-502.88 -179.6) rotate(-20.04)" gradientUnits="userSpaceOnUse"><stop offset="0" stop-color="#e5be98"/><stop offset="0.19" stop-color="#e0b793"/><stop offset="0.47" stop-color="#d4a485"/><stop offset="0.79" stop-color="#bf856e"/><stop offset="0.94" stop-color="#b47562"/></linearGradient><linearGradient id="s" x1="438.83" y1="351.91" x2="436.14" y2="361.14" gradientTransform="translate(-502.88 -179.6) rotate(-20.04)" gradientUnits="userSpaceOnUse"><stop offset="0.2" stop-color="#e5be98"/><stop offset="0.33" stop-color="#e3b895"/><stop offset="0.51" stop-color="#dea68c"/><stop offset="0.71" stop-color="#d68a7f"/><stop offset="0.87" stop-color="#ce6e71"/></linearGradient><linearGradient id="t" x1="359.11" y1="207.51" x2="358.69" y2="208.96" gradientTransform="translate(-348.65 -158.6) rotate(-7.11)" gradientUnits="userSpaceOnUse"><stop offset="0.16" stop-color="#7f5a40"/><stop offset="1" stop-color="#492720"/></linearGradient><linearGradient id="u" x1="353.79" y1="207.68" x2="353.4" y2="208.99" xlink:href="#t"/><linearGradient id="v" x1="27.27" y1="4.88" x2="28.71" y2="4.88" gradientUnits="userSpaceOnUse"><stop offset="0" stop-color="#7eb5d2"/><stop offset="1" stop-color="#3f5178"/></linearGradient><linearGradient id="w" x1="2120.29" y1="214.13" x2="2121.83" y2="214.38" gradientTransform="matrix(1, -0.07, 0.07, 1, -2089.99, -69.23)" xlink:href="#g"/><linearGradient id="x" x1="339.95" y1="181.37" x2="344.87" y2="184.67" gradientTransform="translate(-318.82 -165.57) rotate(-2.92)" xlink:href="#t"/><linearGradient id="y" x1="433.99" y1="350.79" x2="437.66" y2="350.79" gradientTransform="translate(-502.88 -179.6) rotate(-20.04)" xlink:href="#t"/><linearGradient id="z" x1="30.03" y1="10.68" x2="32.76" y2="9.64" gradientTransform="matrix(1, 0, 0, 1, 0, 0)" xlink:href="#s"/><linearGradient id="aa" x1="32.13" y1="4" x2="34" y2="4" xlink:href="#v"/><radialGradient id="ab" cx="47.05" cy="61.23" r="2.54" gradientUnits="userSpaceOnUse"><stop offset="0.06" stop-color="#b47562"/><stop offset="0.29" stop-color="#bc816b"/><stop offset="0.7" stop-color="#d2a284"/><stop offset="1" stop-color="#e5be98"/></radialGradient><linearGradient id="ac" x1="78.85" y1="54.66" x2="85.26" y2="54.66" gradientUnits="userSpaceOnUse"><stop offset="0" stop-color="#a85b4a"/><stop offset="0.67" stop-color="#9a4744"/><stop offset="1" stop-color="#923c41"/></linearGradient><linearGradient id="ad" x1="-37.76" y1="17.7" x2="-37.76" y2="17.02" gradientTransform="matrix(1, 0, 0, -1, 14.13, 77.32)" gradientUnits="userSpaceOnUse"><stop offset="0" stop-color="#b5b5b5"/><stop offset="0.22" stop-color="#949494"/><stop offset="0.7" stop-color="#404040"/><stop offset="0.98" stop-color="#0d0d0d"/></linearGradient><linearGradient id="ae" x1="-10.69" y1="4.48" x2="-10.69" y2="5.69" gradientTransform="matrix(1, 0, 0, -1, 0, 65)" gradientUnits="userSpaceOnUse"><stop offset="0.51" stop-color="#384b74"/><stop offset="0.98" stop-color="#213152"/></linearGradient><linearGradient id="af" x1="-45.63" y1="18.26" x2="-45.63" y2="17.4" gradientTransform="matrix(1, 0, 0, -1, 14.13, 77.32)" gradientUnits="userSpaceOnUse"><stop offset="0" stop-color="#b5b5b5"/><stop offset="0.21" stop-color="#949494"/><stop offset="0.66" stop-color="#404040"/><stop offset="0.98"/></linearGradient><linearGradient id="ag" x1="-46.44" y1="18.34" x2="-46.44" y2="17.48" xlink:href="#af"/><linearGradient id="ah" x1="-47.24" y1="18.11" x2="-47.24" y2="17.32" xlink:href="#af"/><linearGradient id="ai" x1="-48.05" y1="18.11" x2="-48.05" y2="17.32" xlink:href="#af"/><linearGradient id="aj" x1="-23.64" y1="56.49" x2="-23.64" y2="66.12" gradientUnits="userSpaceOnUse"><stop offset="0" stop-color="#98a9c1"/><stop offset="0.66" stop-color="#b2c1d5"/><stop offset="0.93" stop-color="#b3c3d6"/><stop offset="0.96" stop-color="#b5c5d8"/><stop offset="0.97" stop-color="#bdccdd"/><stop offset="0.98" stop-color="#cbd7e7"/><stop offset="0.98" stop-color="#dee8f5"/><stop offset="0.99" stop-color="#ecf4ff"/><stop offset="0.99" stop-color="#dee7f2"/><stop offset="1" stop-color="#bbc4d1"/><stop offset="1" stop-color="#acb6c4"/></linearGradient><linearGradient id="ak" x1="-37.77" y1="15.86" x2="-37.77" y2="18.32" gradientTransform="matrix(1, 0, 0, -1, 14.13, 77.32)" xlink:href="#aj"/></defs><title>men_5</title><g style="isolation:isolate"><path d="M68.18,71.44a333.9,333.9,0,0,1-36,2,333.9,333.9,0,0,1-36-2,332.7,332.7,0,0,1,72.09,0Z" transform="translate(38.37 8.25)" style="fill:#dfdfdf"/><polygon points="74.47 79.54 75.77 79.54 78.42 63.37 75.5 63.98 74.47 79.54" style="fill:url(#a)"/><polygon points="95.45 79.54 94.16 79.54 91.5 63.37 94.42 63.98 95.45 79.54" style="fill:url(#b)"/><polygon points="48.2 79.54 49.49 79.54 52.15 63.37 49.23 63.98 48.2 79.54" style="fill:url(#c)"/><polygon points="69.18 79.54 67.89 79.54 65.23 63.37 68.15 63.98 69.18 79.54" style="fill:url(#d)"/><rect x="67.56" y="25.75" width="26.64" height="30.31" style="fill:#6f2d30"/><path d="M16,68.18a11.11,11.11,0,0,1,.27,3.22L15,71.46l-.05-.54A5.74,5.74,0,0,1,12.31,72a26,26,0,0,1-3.05-.3,3.47,3.47,0,0,1,2.23-1.79,8.77,8.77,0,0,1,3-.24L15,68.42Z" transform="translate(38.37 8.25)" style="fill:#101221"/><path d="M11.71,69.61l1.58.54.49-.12-1-.66Z" transform="translate(38.37 8.25)" style="fill:#6a6c76"/><path d="M6.67,68.18a11.1,11.1,0,0,1,.27,3.22l-1.25.06-.05-.54A5.74,5.74,0,0,1,3,72,26,26,0,0,1,0,71.7a3.47,3.47,0,0,1,2.23-1.79,8.77,8.77,0,0,1,3-.24l.54-1.25Z" transform="translate(38.37 8.25)" style="fill:#101221"/><path d="M2.43,69.61,4,70.15,4.5,70l-1-.66Z" transform="translate(38.37 8.25)" style="fill:#6a6c76"/><path d="M50.46,44.8h1a0,0,0,0,1,0,0V64.53a0,0,0,0,1,0,0h-1a4.75,4.75,0,0,1-4.75-4.75V49.55A4.75,4.75,0,0,1,50.46,44.8Z" style="fill:#a85b4a"/><path d="M10.81,54.64V38.18a1.63,1.63,0,0,1,1.63-1.63H22.79a1.63,1.63,0,0,0,1.63-1.63V19.12a1.63,1.63,0,0,1,1.63-1.63h1.5a1.63,1.63,0,0,1,1.63,1.63V54.61a1.63,1.63,0,0,1-1.63,1.63l-15.11,0A1.63,1.63,0,0,1,10.81,54.64Z" transform="translate(38.37 8.25)" style="fill:#923c41"/><path d="M24.42,34.91V19.12a1.63,1.63,0,0,1,1.63-1.63h4.58a1.63,1.63,0,0,1,1.63,1.63S24.42,35.81,24.42,34.91Z" transform="translate(38.37 8.25)" style="fill:#a85b4a"/><path d="M41,47.8v8.44H12.72V49.13A1.32,1.32,0,0,1,14,47.8Z" transform="translate(38.37 8.25)" style="fill:url(#e)"/><path d="M37.5,48.91s-15.33,2.31-20.56,0l1-1.11H37.36Z" transform="translate(38.37 8.25)" style="fill:#923c41;opacity:0.30000000000000004;mix-blend-mode:multiply"/><path d="M29,31.85c-.54-2.4.49-6.9.49-7.2s2.8-8.45,2.8-8.45a30.34,30.34,0,0,0,4,1.28,66.58,66.58,0,0,0,6.87-.3s-4.93,4.07-6.57,6.75S29,31.85,29,31.85Z" transform="translate(38.37 8.25)" style="fill:url(#f)"/><path d="M34,15l.27-3.88,6.43-2.92,1.72,7a8.33,8.33,0,0,1-6.25,1.46C34.08,16.53,34,15,34,15Z" transform="translate(38.37 8.25)" style="fill:url(#g)"/><path d="M38.37,18.44l-2.47,1a57.16,57.16,0,0,1-2.25,6.5c-.57,1.44-1.16,2.89-1.68,4.15-1.66,1-3,1.8-3,1.8a18.85,18.85,0,0,1-.63-2.07c.23-.28.49-.61.77-1a46.49,46.49,0,0,0,5.59-9.55l-1-1.49,2.52-1.36Z" transform="translate(38.37 8.25)" style="fill:url(#h)"/><path d="M36.19,16.4l2,3.27L44,17.08l-1.22-2.31S37.83,16.67,36.19,16.4Z" transform="translate(38.37 8.25)" style="fill:url(#i)"/><path d="M19.24,39.4C15.26,40,7.75,42.62,6,44.91,2.4,49.5,4.54,69.3,4.54,69.3H7.4s.82-17.66,2.76-19.19,6.74-2.45,6.74-2.45,12-6,12-7.76S20.87,38.38,19.24,39.4Z" transform="translate(38.37 8.25)" style="fill:url(#j)"/><path d="M36.19,16.4,33.47,19l-1.29-2.25L34,15A5.41,5.41,0,0,0,36.19,16.4Z" transform="translate(38.37 8.25)" style="fill:url(#k)"/><path d="M27.3,40s-8.57.71-12.15,6S13.83,69.3,13.83,69.3h3.06s.49-16.38,4.59-19.39c3.06-2.25,7.33-.41,9.37-1.84S33.33,40.22,27.3,40Z" transform="translate(38.37 8.25)" style="fill:url(#l)"/><path d="M26.74,18.38c-3.37,4-7.47,19.22-7.47,19.22h4.18s3.8-9.32,3.69-12.18S26.74,18.38,26.74,18.38Z" transform="translate(38.37 8.25)" style="fill:url(#m)"/><path d="M44.56,17.69s7.76,1.56,9,4.29-4.35,8.37-6.33,13.13-15.51,12.72-17,13.27c1.43-3.78-.23-6.06-7-7.76-1.09-.27,5.31-8.1,5.78-8.78s5.92-5.31,6.67-6.53,1.09-2.38,1.91-3.06S44.56,17.69,44.56,17.69Z" transform="translate(38.37 8.25)" style="fill:url(#n)"/><path d="M24.08,39.2c-2.25,2.35-5.65.26-8.14.94,2.35-2.25,6.5-3.19,8.34-8.6S26,18.89,26.74,18.38a24.44,24.44,0,0,1,4-1.43l.92.2S31,18.78,29.7,23.58A20.57,20.57,0,0,0,29,31.85Z" transform="translate(38.37 8.25)" style="fill:url(#o)"/><path d="M45.31,17.36c.07.47-3.74,4.76-4.35,5.1a9,9,0,0,1-3,.07,3.92,3.92,0,0,1,.34,2.65c-.21.92-3.69,3.23-6.34,4.87-1.66,1-3,1.8-3,1.8,1.41-2,3-4,4.66-5.94,4.81-5.58,9.81-10.1,10.17-10A2.69,2.69,0,0,1,45.31,17.36Z" transform="translate(38.37 8.25)" style="fill:#47677f"/><path d="M29.12,28.8a13.6,13.6,0,0,0-.14,3,18.85,18.85,0,0,1-.63-2.07,12.78,12.78,0,0,1,0-6.91c.2-.68,1.7-1.36,1.7-1.36s-.82-.47-.82-1a11.9,11.9,0,0,1,1-3.67c.41-.48,2.79-1.5,2.79-1.09S29.9,23.29,29.12,28.8Z" transform="translate(38.37 8.25)" style="fill:#47677f"/><path d="M40.6,11.54A3.35,3.35,0,0,1,39.76,13l-.13.13a8.59,8.59,0,0,1-3.32,2.22l-.21.07-.23.08-1.16.35a11.63,11.63,0,0,1-2.37.43h-.28c-1.8.05-2.56-.56-2.68-.75a49.16,49.16,0,0,1-2-6.08c-.19-.71-.39-1.46-.58-2.25-.27-1.13.1-1.84-.12-3.1-.11-.67-.77-1.8-.94-2.55a.06.06,0,0,0,0,0l0-.12c0-.23-.06-.45-.08-.68s0-.43-.07-.64c0,0,0-.1,0-.15,0-.21,0-.43-.06-.64a.72.72,0,0,1,0-.11c0-.22,0-.45,0-.67s0-.5,0-.75c-3.5-2.88-2.4-4.71-.25-5.52l.22-.08h0A5.62,5.62,0,0,1,25.94-8h0l.49-.1a9,9,0,0,1,2.07-.11,24.5,24.5,0,0,1,3,.39l.27.06.12,0,.28.06C36.36-6.74,37.67-5,37.67-5s2-.09,2.48.45S41.07,9.82,40.6,11.54Z" transform="translate(38.37 8.25)" style="fill:url(#p)"/><g style="opacity:0.5;mix-blend-mode:screen"><path d="M39.75,13l-.13.13h0A11.72,11.72,0,0,1,37.3,6.35h.18A11.53,11.53,0,0,0,39.75,13Z" transform="translate(38.37 8.25)" style="fill:#a25c49"/><path d="M32.34,16.24h-.28c-1.89-1.49-2.79-4.6-3.21-7.07l.18,0C29.45,11.67,30.37,14.85,32.34,16.24Z" transform="translate(38.37 8.25)" style="fill:#a25c49"/><path d="M36.09,15.39l-.23.08C34,15,33.35,10.14,32.71,8.3l.17-.06C33.55,10.16,34.1,14.73,36.09,15.39Z" transform="translate(38.37 8.25)" style="fill:#a25c49"/><path d="M32.83-3.28l-.09.18A4,4,0,0,1,31-6.83a2,2,0,0,1,.49-1l.27.06a1.69,1.69,0,0,0-.58,1A3.77,3.77,0,0,0,32.83-3.28Z" transform="translate(38.37 8.25)" style="fill:#a25c49"/><path d="M27.86-2.38l-.1.19a6.6,6.6,0,0,1-2.67-5.59l.22-.08C25-6.49,25.69-4.19,27.86-2.38Z" transform="translate(38.37 8.25)" style="fill:#a25c49"/></g><path d="M37.21-1.82a18.12,18.12,0,0,1,.86,6.51,2.73,2.73,0,0,1-1.54,2.37,21.83,21.83,0,0,1-9.19,2.37c-.19-.71-.39-1.46-.58-2.25-.27-1.13.1-1.84-.12-3.1-.11-.67-.77-1.8-.94-2.55a.06.06,0,0,0,0,0s0-.08,0-.11c0-.23-.06-.45-.08-.68s0-.43-.07-.64c0,0,0-.1,0-.15,0-.21,0-.43-.06-.64a.72.72,0,0,1,0-.11c0-.22,0-.45,0-.67s0-.5,0-.75c0,0,.22.37,2.61-.08,2.64-.5,6.65-1.44,7.57-1A2.89,2.89,0,0,1,37.21-1.82Z" transform="translate(38.37 8.25)" style="fill:#e5be98"/><path d="M30.34,5.73c.13,0,5.17-.92,5.17-.92L35,1.17,33.8.58,30.49.66A13.05,13.05,0,0,0,30.34,5.73Z" transform="translate(38.37 8.25)" style="fill:url(#q)"/><path d="M29.93,2.56l.5,3.6-3.68,1c-.27-1.13.1-1.84-.12-3.1-.11-.67-.77-1.8-.94-2.55a.06.06,0,0,0,0,0s0-.08,0-.11h0l2.8-1.1Z" transform="translate(38.37 8.25)" style="fill:url(#r)"/><path d="M28.49.95c1.49,1.21,1.6,4.57,1.08,5.94-.08.21-.47.29-.64.7-.3.73,1.28,1,2.5.42,1-.48,1-1.08.5-1.3S30.85,7,30.85,7s-.13-3.1-.27-4.93a7.6,7.6,0,0,1,.13-2.65l-2.58.22Z" transform="translate(38.37 8.25)" style="fill:url(#s)"/><path d="M31.61,3.37l.2.46L35,3.28V2.95A5.53,5.53,0,0,0,31.61,3.37Z" transform="translate(38.37 8.25)" style="fill:url(#t)"/><path d="M35,3.28a4,4,0,0,1-.15,1.1,3.16,3.16,0,0,1-.57.22l-.12,0a7.84,7.84,0,0,1-1.36.31,1.32,1.32,0,0,1-.3,0,.18.18,0,0,1-.12-.06,7.71,7.71,0,0,1-.58-1.07A1.57,1.57,0,0,1,32,3.68l.07,0h0l.2-.08a3.94,3.94,0,0,1,.68-.2h.08a6.13,6.13,0,0,1,.71-.08h.24A7.54,7.54,0,0,1,35,3.28Z" transform="translate(38.37 8.25)" style="fill:#fff"/><path d="M29.17,4.1l0-.41a7.42,7.42,0,0,0-2.22.6c0,.21.22.35.22.35Z" transform="translate(38.37 8.25)" style="fill:url(#u)"/><path d="M29.14,5.52a2.23,2.23,0,0,1-1.61.24,1.66,1.66,0,0,1-.37-1.17l0,0,0,0,0,0,0,0h0a4.44,4.44,0,0,1,1.06-.32l.1,0h0l.08,0,.61-.08S29.32,5.26,29.14,5.52Z" transform="translate(38.37 8.25)" style="fill:#fff"/><path d="M28.1,5.63c-.39,0-.76-.34-.83-.86a1.16,1.16,0,0,1,0-.26h0a4.44,4.44,0,0,1,1.06-.32l.1,0h0l.08,0a1.25,1.25,0,0,1,.15.46A.86.86,0,0,1,28.1,5.63Z" transform="translate(38.37 8.25)" style="fill:url(#v)"/><path d="M39.52,3.47a.7.7,0,0,1,.59-.62c.55,0,1.47-.06,1.7.21s.23,3.71,0,4.14c-.17.27-1,.37-1.51.4a.73.73,0,0,1-.69-.67,12.32,12.32,0,0,1-.18-2A7.93,7.93,0,0,1,39.52,3.47Z" transform="translate(38.37 8.25)" style="fill:#e5be98"/><path d="M40.17,6.83a1.9,1.9,0,0,0,1.11-.45c.36-.4.22-2.73.22-2.73s-1-.17-1.27.13A8,8,0,0,0,40.17,6.83Z" transform="translate(38.37 8.25)" style="fill:url(#w)"/><path d="M41.5,3.65s-1.37-.29-1.45,0a8.63,8.63,0,0,0,.1,3.05l0,.09a15,15,0,0,1,.12-3A5.14,5.14,0,0,1,41.5,3.65Z" transform="translate(38.37 8.25)" style="fill:#af736f"/><path d="M35.9-.21a2.42,2.42,0,0,1-.72,1.47,9.26,9.26,0,0,1-4.69-.6,3.71,3.71,0,0,1,.31-2.53l.25.18.08,1.09.33-.84c.21.11.43.21.67.31v.63l.3-.51a15.94,15.94,0,0,0,2.74.69L35.1.52l.38-.78Z" transform="translate(38.37 8.25)" style="fill:url(#x)"/><path d="M28.59,1a3.86,3.86,0,0,0-2.84,1.5A2.45,2.45,0,0,1,25,1a1,1,0,0,1,0-.14A2.94,2.94,0,0,1,26-.42l.71.38-.27-.67A2.9,2.9,0,0,1,27.31-1L28.08.07a3,3,0,0,0-.42-1.13,2.54,2.54,0,0,1,.44,0A4.1,4.1,0,0,1,28.59,1Z" transform="translate(38.37 8.25)" style="fill:url(#y)"/><path d="M30.12,10.91c.25-1.59,1.66-1.63,2.86-.71C31.32,9.89,30.19,10.56,30.12,10.91Z" transform="translate(38.37 8.25)" style="fill:url(#z)"/><path d="M34,3.81a.94.94,0,1,1-1.86-.17l.2-.08a3.94,3.94,0,0,1,.68-.2h.08a6.13,6.13,0,0,1,.71-.08A.93.93,0,0,1,34,3.81Z" transform="translate(38.37 8.25)" style="fill:url(#aa)"/><path d="M32.82,40A3.91,3.91,0,0,1,35,42.83a1.23,1.23,0,0,0,.79.06,3.64,3.64,0,0,0-2.25-3.28A1.27,1.27,0,0,0,32.82,40Z" transform="translate(38.37 8.25)" style="fill:#272f3b"/><ellipse cx="26.61" cy="37.58" rx="0.57" ry="0.41" transform="translate(19.13 50.1) rotate(-60)" style="fill:#272f3b"/><ellipse cx="29.17" cy="33.43" rx="0.57" ry="0.41" transform="translate(24 50.23) rotate(-60)" style="fill:#272f3b"/><path d="M20.09,36.54a1.89,1.89,0,0,1,1.46.46l.5-.5-1.69-.55Z" transform="translate(38.37 8.25)" style="fill:#272f3b"/><path d="M48.22,56.88A7.94,7.94,0,0,0,47,58.62a3.87,3.87,0,0,0-.17,1.6c0,.44,1,1.31,1.42,1.16S49,57.2,49,57.2Z" transform="translate(38.37 8.25)" style="fill:url(#ab)"/><path d="M47.61,58.83a30.61,30.61,0,0,1,.16,3.56c.06.61.8.27,1-.25.26.52.76-.29.81-.58.55.38,1.22-1.16,1.25-2A14.69,14.69,0,0,0,50.52,57H48.66Z" transform="translate(38.37 8.25)" style="fill:#e5be98"/><path d="M79.31,44.8h1a0,0,0,0,1,0,0V64.53a0,0,0,0,1,0,0h-1a4.75,4.75,0,0,1-4.75-4.75V49.55A4.75,4.75,0,0,1,79.31,44.8Z" style="fill:url(#ac)"/><path d="M40.24,54.64V38.18a1.63,1.63,0,0,1,1.63-1.63h6.84a1.63,1.63,0,0,0,1.63-1.63V19.12A1.63,1.63,0,0,1,52,17.49h3.59a1.63,1.63,0,0,1,1.63,1.63L55.12,54.61a1.63,1.63,0,0,1-1.63,1.63l-11.61,0A1.63,1.63,0,0,1,40.24,54.64Z" transform="translate(38.37 8.25)" style="fill:#a85b4a"/><path d="M39.66,54.64V38.18a1.63,1.63,0,0,1,1.63-1.63H51.64a1.63,1.63,0,0,0,1.63-1.63V19.12a1.63,1.63,0,0,1,1.63-1.63h1.5A1.63,1.63,0,0,1,58,19.12V54.61a1.63,1.63,0,0,1-1.63,1.63l-15.11,0A1.63,1.63,0,0,1,39.66,54.64Z" transform="translate(38.37 8.25)" style="fill:#923c41"/><path d="M53.54,22c2.38,4.22.55,24.57-2.71,35.25-.88,1.16-3.13,0-3.13,0a32,32,0,0,0,1.15-14.09,70.86,70.86,0,0,0-2.52-12.86s-1-7.24,1.26-9.71C48.62,19.47,50.64,18.26,53.54,22Z" transform="translate(38.37 8.25)" style="fill:#425168"/><path d="M14.45,47.6l-.11.46" transform="translate(38.37 8.25)" style="fill:#caa97f;opacity:0.30000001192092896;isolation:isolate"/><path d="M-9.78,52.46C-9.78,59.91-16.15,66-24,66s-14.22-6-14.22-13.5c0-8,9.35-20,12.89-24.21a.59.59,0,0,1,.83-.13.59.59,0,0,1,.25.51c-.3,3.56-.09,11.17,6.27,15a.59.59,0,0,0,.81-.14,7.79,7.79,0,0,0,1.33-4,.59.59,0,0,1,.62-.56.59.59,0,0,1,.5.32C-12,43.69-9.78,48.56-9.78,52.46Z" transform="translate(38.37 8.25)" style="fill:#ff7f00"/><path d="M-32.89,57.52A8.67,8.67,0,0,0-24,66a8.67,8.67,0,0,0,8.89-8.44c0-4.66-5.15-11.56-7.61-14.59a.59.59,0,0,0-.82-.15.59.59,0,0,0-.25.52c.09,2.37-.33,6.38-3.76,8.56a.59.59,0,0,1-.82-.17v0A4.78,4.78,0,0,1-29,50a.59.59,0,0,0-.65-.53.59.59,0,0,0-.47.34C-31.67,52.46-32.89,55.25-32.89,57.52Z" transform="translate(38.37 8.25)" style="fill:#ffda00"/><path d="M-19.11,61.32A4.74,4.74,0,0,1-23.95,66H-24a4.74,4.74,0,0,1-4.89-4.59v-.05c0-2.29,2.25-5.55,3.7-7.41a.59.59,0,0,1,.82-.15.59.59,0,0,1,.25.46A4.94,4.94,0,0,0-22.33,58a.59.59,0,0,0,.84-.06.59.59,0,0,0,.11-.18h0a.59.59,0,0,1,.74-.39.59.59,0,0,1,.35.29A8.34,8.34,0,0,1-19.11,61.32Z" transform="translate(38.37 8.25)" style="fill:#fff"/><path d="M-9.2,41.32H-38.06a.31.31,0,0,0-.31.31V61.15a.32.32,0,0,0,.32.32H-9.21a.32.32,0,0,0,.32-.32V41.63a.31.31,0,0,0-.31-.31Z" transform="translate(38.37 8.25)" style="fill:#b5b5b5"/><path d="M-23.63,59.62a.42.42,0,0,0-.42.42.42.42,0,0,0,.42.42.42.42,0,0,0,.42-.42.42.42,0,0,0-.42-.42Zm0,.74a.32.32,0,0,1-.32-.32.32.32,0,0,1,.32-.32.32.32,0,0,1,.32.32h0a.32.32,0,0,1-.32.28Z" transform="translate(38.37 8.25)" style="fill:url(#ad)"/><path d="M-10.47,60.31a.44.44,0,0,1-.44-.44.44.44,0,0,1,.44-.44" transform="translate(38.37 8.25)" style="fill:url(#ae)"/><path d="M-10.47,59.83v-.21h0" transform="translate(38.37 8.25)" style="fill:#b9c9dd"/><path d="M-22.74,47.43a1.2,1.2,0,0,1-.7.36" transform="translate(38.37 8.25)" style="fill:#d6d7d8"/><path d="M-22.15,49.26a.9.9,0,0,1,.49-.84A1.09,1.09,0,0,0-22,48c-.59-.33-.85.07-1.31.07s-.72-.4-1.31-.07a1.56,1.56,0,0,0-.65,1.41,2.24,2.24,0,0,0,1,1.91c.26.13.6-.11.92-.13s.66.26.92.13a2,2,0,0,0,.93-1.21A.85.85,0,0,1-22.15,49.26Z" transform="translate(38.37 8.25)" style="fill:#e3e4e5"/><path d="M-31.46,59.58v.66a.08.08,0,0,1-.08.08" transform="translate(38.37 8.25)" style="fill:url(#af)"/><path d="M-32.35,59.5a.08.08,0,0,1,.08.08v.66" transform="translate(38.37 8.25)" style="fill:url(#ag)"/><path d="M-33.07,59.58v.66a.08.08,0,0,1-.08.08" transform="translate(38.37 8.25)" style="fill:url(#ah)"/><path d="M-33.88,59.58v.66a.08.08,0,0,1-.08.08" transform="translate(38.37 8.25)" style="fill:url(#ai)"/><path d="M-20.14,66.08V56.54a.27.27,0,0,0-.28-.22h-6.45a.27.27,0,0,0-.27.27h0v9.49h7" transform="translate(38.37 8.25)" style="fill:url(#aj)"/><path d="M-23,60.82a.68.68,0,0,1-.68.68h0a.68.68,0,0,1-.68-.68h0V59.69a.68.68,0,0,1,.68-.68h0a.68.68,0,0,1,.68.68h0Z" transform="translate(38.37 8.25)" style="fill:url(#ak)"/><path d="M-22.5,56.38A7.31,7.31,0,0,1-26.2,66,7.31,7.31,0,0,1-36,62.83c-1.81-3.79-.08-11.62.64-14.44a.31.31,0,0,1,.36-.25.31.31,0,0,1,.23.19c.66,1.76,2.49,5.33,6.38,5.69a.31.31,0,0,0,.35-.25,4.1,4.1,0,0,0-.27-2.19.31.31,0,0,1,.17-.41.31.31,0,0,1,.31,0C-25.55,52.72-23.38,54.53-22.5,56.38Z" transform="translate(38.37 8.25)" style="fill:#ff7f00"/><path d="M-32.34,64a4.57,4.57,0,0,0,6.14,2,4.57,4.57,0,0,0,2.31-6c-1.06-2.22-5.07-4.33-6.93-5.21a.31.31,0,0,0-.43.12.31.31,0,0,0,0,.31,4.94,4.94,0,0,1,.15,4.93.31.31,0,0,1-.43.11h0a2.52,2.52,0,0,1-.66-.65.31.31,0,0,0-.43-.1.31.31,0,0,0-.15.27A8.8,8.8,0,0,0-32.34,64Z" transform="translate(38.37 8.25)" style="fill:#ffda00"/><path d="M-24.93,62.71A2.5,2.5,0,0,1-26.18,66h0A2.5,2.5,0,0,1-29.57,65v0c-.52-1.09-.19-3.15.08-4.37a.31.31,0,0,1,.36-.26.31.31,0,0,1,.23.16,2.6,2.6,0,0,0,1.7,1.4.31.31,0,0,0,.38-.22.31.31,0,0,0,0-.11h0a.31.31,0,0,1,.27-.35.31.31,0,0,1,.23.06A4.39,4.39,0,0,1-24.93,62.71Z" transform="translate(38.37 8.25)" style="fill:#fff"/><path d="M-25.36,48.1A.39.39,0,0,1-25,48a.39.39,0,0,1,.31.46,5.13,5.13,0,0,0,.23,2.75.39.39,0,0,0,.5.22c4.67-1.43,6-6.27,6.35-8.59a.39.39,0,0,1,.24-.29.39.39,0,0,1,.51.21c1.6,3.27,5.71,12.41,4.47,17.51a9.14,9.14,0,0,1-11.21,6.42,9.14,9.14,0,0,1-7-10.86C-30,53.29-27.79,50.53-25.36,48.1Z" transform="translate(38.37 8.25)" style="fill:#ff7f00"/><path d="M-17.16,57.28a.39.39,0,0,0-.25-.29.39.39,0,0,0-.5.24,3.15,3.15,0,0,1-.64,1h0a.39.39,0,0,1-.55,0c-1.86-1.93-1.5-4.56-1.07-6.07a.39.39,0,0,0-.08-.37.39.39,0,0,0-.55,0c-2,1.55-6.42,5.16-7.15,8.15a5.71,5.71,0,0,0,4.37,6.79,5.71,5.71,0,0,0,7-4A11,11,0,0,0-17.16,57.28Z" transform="translate(38.37 8.25)" style="fill:#ffda00"/><path d="M-24.67,60.76a.39.39,0,0,1,.27-.13A.39.39,0,0,1-24,61h0a.39.39,0,0,0,0,.13.39.39,0,0,0,.53.17,3.26,3.26,0,0,0,1.73-2.14.39.39,0,0,1,.23-.26.39.39,0,0,1,.5.22c.64,1.42,1.57,3.86,1.21,5.32v0a3.12,3.12,0,0,1-3.84,2.17h0A3.12,3.12,0,0,1-26,62.91,5.49,5.49,0,0,1-24.67,60.76Z" transform="translate(38.37 8.25)" style="fill:#fff"/><path d="M-15.38,69.79l-19.27-4.64a1.81,1.81,0,0,1,1.26,2.22,1.81,1.81,0,0,1-2.13,1.4l19.27,4.64A1.81,1.81,0,0,0-14.13,72,1.8,1.8,0,0,0-15.38,69.79Z" transform="translate(38.37 8.25)" style="fill:#f1b57d"/><ellipse cx="-35.09" cy="66.97" rx="1.86" ry="1.74" transform="translate(-53.6 25.43) rotate(-76.46)" style="fill:#f2c6a1"/><path d="M-28,69.06l-2.79-.67c-.1,0-.19,0-.21.05s.06.12.16.14l2.79.67c.1,0,.19,0,.21-.05S-27.91,69.08-28,69.06Z" transform="translate(38.37 8.25)" style="fill:#c58855"/><path d="M-28.11,68.43l4.16,1c.1,0,.19,0,.21-.05s-.06-.12-.16-.14l-4.16-1c-.1,0-.19,0-.21.05S-28.21,68.41-28.11,68.43Z" transform="translate(38.37 8.25)" style="fill:#c58855"/><path d="M-21.78,70.56l3.26.79c.1,0,.19,0,.21-.05s-.06-.12-.16-.14l-3.26-.79c-.1,0-.19,0-.21.05S-21.88,70.54-21.78,70.56Z" transform="translate(38.37 8.25)" style="fill:#c58855"/><path d="M-15.4,73.52a2,2,0,0,0,1.45-1.46,1.93,1.93,0,0,0-1.42-2.36l-19.26-4.64h0A1.93,1.93,0,0,0-37,66.51a2,2,0,0,0,.63,2m.79.4,19.27,4.64,6.51,1.57M-36.59,66.6a1.69,1.69,0,0,1,1.92-1.35,1.69,1.69,0,0,1,1.1,2.08,1.69,1.69,0,0,1-1.92,1.35A1.69,1.69,0,0,1-36.59,66.6Zm1.94,2.28h.09l.14,0h0l.15-.07,0,0,.11-.06,0,0h0l3.19.77c.1,0,.19,0,.21-.05s-.06-.12-.16-.14l-3-.73,0,0,0,0,.11-.11h0l.11-.13,0,0,.07-.12,0,0,.08-.15v0l.05-.13,0,0c0-.06,0-.12.05-.17s0-.12,0-.18v0s0-.1,0-.14v0q0-.09,0-.17v0s0-.09,0-.14v0l0-.11,6.68,1.61c.1,0,.19,0,.21-.05s-.06-.12-.16-.14l-6.79-1.64v0l-.05-.13v0l-.08-.15,0,0-.07-.11,0,0-.1-.13h0l-.1-.1,0,0,0,0,18.42,4.44a1.56,1.56,0,0,1,1.11,1.24l-5.57-1.34c-.1,0-.19,0-.21.05s.06.12.16.14l5.65,1.36a1.91,1.91,0,0,1,0,.62,1.9,1.9,0,0,1-.51.91l-10.54-2.54c-.1,0-.19,0-.21.05s.06.12.16.14L-15,73a1.47,1.47,0,0,1-1.22.28Z" transform="translate(38.37 8.25)" style="fill:#136296"/><path d="M-15.46,65.71l-19.36,4.21a1.81,1.81,0,0,1,2.1,1.45A1.81,1.81,0,0,1-34,73.56l19.36-4.21a1.81,1.81,0,0,0,1.3-2.19A1.8,1.8,0,0,0-15.46,65.71Z" transform="translate(38.37 8.25)" style="fill:#f1b57d"/><ellipse cx="-34.43" cy="71.74" rx="1.74" ry="1.86" transform="translate(22.34 2.58) rotate(-12.27)" style="fill:#f2c6a1"/><path d="M-27.15,70.54l-2.8.61c-.1,0-.17.08-.16.14s.1.08.21.06l2.8-.61c.1,0,.17-.08.16-.14S-27,70.52-27.15,70.54Z" transform="translate(38.37 8.25)" style="fill:#c58855"/><path d="M-27.51,70l4.18-.91c.1,0,.17-.08.16-.14s-.1-.08-.21-.06l-4.18.91c-.1,0-.17.08-.16.14S-27.62,70-27.51,70Z" transform="translate(38.37 8.25)" style="fill:#c58855"/><path d="M-20.89,69.18l3.28-.71c.1,0,.17-.08.16-.14s-.1-.08-.21-.06l-3.28.71c-.1,0-.17.08-.16.14S-21,69.21-20.89,69.18Z" transform="translate(38.37 8.25)" style="fill:#c58855"/><path d="M-13.85,69.07a2,2,0,0,0,.67-2,1.93,1.93,0,0,0-2.3-1.51l-19.36,4.21h0a1.93,1.93,0,0,0-1.47,2.33,2,2,0,0,0,1.42,1.5m.88,0,19.36-4.21L-8.11,68m-27.84,4A1.69,1.69,0,0,1-34.81,70a1.69,1.69,0,0,1,1.89,1.39,1.69,1.69,0,0,1-1.14,2.05A1.69,1.69,0,0,1-35.95,72.07Zm2.74,1.21,0,0,0,0,.11-.1h0l.11-.13,0,0,.08-.11,0,0h0l3.2-.7c.1,0,.17-.08.16-.14s-.1-.08-.21-.06l-3,.66,0-.05,0,0,0-.15h0c0-.05,0-.11,0-.16v0s0-.09,0-.14v0q0-.09,0-.17v0s0-.1,0-.14v0c0-.06,0-.12,0-.18s0-.12,0-.18l0,0-.05-.13v0l-.08-.16,0,0-.07-.12,0,0-.07-.09L-26.22,69c.1,0,.17-.08.16-.14s-.1-.08-.21-.06l-6.83,1.49,0,0-.1-.09,0,0-.13-.1,0,0-.11-.07,0,0-.15-.07h0l-.14,0H-34l18.52-4a1.56,1.56,0,0,1,1.54.63l-5.6,1.22c-.1,0-.17.08-.16.14s.1.08.21.06l5.68-1.23a1.91,1.91,0,0,1,.23.58,1.9,1.9,0,0,1-.07,1l-10.6,2.31c-.1,0-.17.08-.16.14s.1.08.21.06l10.46-2.27a1.47,1.47,0,0,1-1,.78Z" transform="translate(38.37 8.25)" style="fill:#136296"/><path d="M28.5,55.73v16A1.23,1.23,0,0,0,29.73,73h16A1.23,1.23,0,0,0,47,71.77v-16a1.23,1.23,0,0,0-1.23-1.23V52.2A2.23,2.23,0,0,0,43.54,50H40.21a2.23,2.23,0,0,0-2,1.3L36.72,54.5h-7A1.23,1.23,0,0,0,28.5,55.73ZM38.78,54.5l1-2.33a.87.87,0,0,1,.81-.54h2.71a.87.87,0,0,1,.87.87v2Z" transform="translate(38.37 8.25)" style="fill:#dd352e"/><polygon points="73.45 74.1 70.69 76.85 71.27 77.43 74.03 74.68 78.21 74.68 80.97 77.43 81.55 76.85 78.79 74.1 78.79 69.91 81.55 67.16 80.97 66.58 78.21 69.33 74.03 69.33 71.27 66.58 70.69 67.16 73.45 69.91 73.45 74.1" style="fill:#b02721"/><rect x="68.93" y="61.11" width="3.29" height="1.64" style="fill:#dd352e"/><path d="M29.47,50.61l1.47.82.42,1.43H33l-.85-2.64-1.8-1a.3.3,0,0,0-.41.1l-.54.9A.3.3,0,0,0,29.47,50.61Z" transform="translate(38.37 8.25)" style="fill:#ebba16"/></g></svg>