<?xml version="1.0" encoding="utf-8"?>
<!-- Generator: Adobe Illustrator 18.0.0, SVG Export Plug-In . SVG Version: 6.00 Build 0)  -->
<!DOCTYPE svg PUBLIC "-//W3C//DTD SVG 1.1//EN" "http://www.w3.org/Graphics/SVG/1.1/DTD/svg11.dtd">
<svg version="1.1" id="men_price_3" xmlns="http://www.w3.org/2000/svg" xmlns:xlink="http://www.w3.org/1999/xlink" x="0px" y="0px"
	 viewBox="-567.7 -690.2 1749.1 2172.1" enable-background="new -567.7 -690.2 1749.1 2172.1" xml:space="preserve">
<path fill="#DCDCDC" d="M-567.7,1440.7c0,0,391.5-41.2,874.5-41.2s874.5,41.2,874.5,41.2s-391.5,41.2-874.5,41.2
	C-176.3,1481.7-567.7,1440.7-567.7,1440.7"/>
<g>
	<polygon fill="#BFCCD4" points="782.3,1146.3 781.1,1172 780.5,1185.9 779.9,1197.5 776,1271.2 621.6,1271.2 613,1203 611,1185.9 
		610,1177.9 605.5,1142.8 629.5,1143.3 637.3,1143.5 676.3,1144.1 683.8,1144.3 718.9,1145.1 726.4,1145.1 756.6,1145.7 
		764.4,1145.9 	"/>
	<polygon fill="#BFCCD4" points="781.1,1172 779.9,1197.5 613,1203 610,1177.9 	"/>
	<g>
		<path fill="#BFCCD4" d="M637.3,1143.5c2.4,34.9,6.3,91.8,9,127.7h-7.8c-2.2-29.2-6.5-91-9.2-127.9c-1.2-16.7-1.8-28.6-1.8-30h7.8
			C635.3,1114.7,636.1,1126.3,637.3,1143.5z"/>
		<path fill="#BFCCD4" d="M729.5,1089l-0.6,2.9c-0.4,2.4-1.2,23.7-2.2,53.2c-1.2,35.7-2.4,83.6-3.7,126.1h-7.8
			c1-35.5,2.4-87.1,3.9-126.1c0.8-24.1,1.6-43.5,2.2-51.4c-6.3,0.6-22.6,4.5-37.1,8.8v168.7h-7.8v-174.6l2.9-0.8
			c44.3-13.1,47.1-10,48.8-8.2L729.5,1089z"/>
		<path fill="#BFCCD4" d="M770.7,1066.8c-1.8,22.4-3.9,50.2-6.1,79.2c-3.5,44.7-7.1,92-9.6,125.3h-7.8c2.7-34.9,6.5-83.8,9.6-125.5
			c3.1-38.6,5.5-70.8,6.3-79.6L770.7,1066.8z"/>
	</g>
	
		<radialGradient id="SVGID_1_" cx="238.222" cy="390.2" r="148.4007" gradientTransform="matrix(2.04 0 0 -2.04 3.135345e-005 1807.6799)" gradientUnits="userSpaceOnUse">
		<stop  offset="5.909090e-002" style="stop-color:#B73F51"/>
		<stop  offset="0.8831" style="stop-color:#CA465A"/>
		<stop  offset="1" style="stop-color:#CD475B"/>
	</radialGradient>
	<path fill="url(#SVGID_1_)" d="M487.6,896.4c-1.8,30.8,0.4,81.6,4.7,139.7c12.4,167.1,42,396.2,42,396.2h-15.5
		c0,0-52.2-187.5-85.5-359.9c-20.2-105.1-33.7-204.6-23.7-252.6C435.5,693.4,524.1,592.7,531,591l34.7,140.6
		C565.7,731.8,494.5,776.9,487.6,896.4z"/>
	
		<radialGradient id="SVGID_2_" cx="444.5437" cy="390.1" r="148.3962" gradientTransform="matrix(2.04 0 0 -2.04 3.135345e-005 1807.6799)" gradientUnits="userSpaceOnUse">
		<stop  offset="5.909090e-002" style="stop-color:#B73F51"/>
		<stop  offset="0.8831" style="stop-color:#CA465A"/>
		<stop  offset="1" style="stop-color:#CD475B"/>
	</radialGradient>
	<path fill="url(#SVGID_2_)" d="M962.7,1055.7c-33,176.9-88.7,376.8-88.7,376.8h-15.5c0,0,24.3-187.7,37.9-347.2
		c6.7-78.1,11-149.3,8.8-188.7c-6.9-119.5-77.9-164.8-77.9-164.8l34.7-140.6c6.9,1.8,95.5,102.4,121.4,228.9
		C992.5,865.6,981,957,962.7,1055.7z"/>
	
		<linearGradient id="SVGID_3_" gradientUnits="userSpaceOnUse" x1="341.4085" y1="967.359" x2="333.1039" y2="276.698" gradientTransform="matrix(2.04 0 0 -2.04 3.135345e-005 1807.6799)">
		<stop  offset="0" style="stop-color:#F1F1E6"/>
		<stop  offset="1" style="stop-color:#DEDCCC"/>
	</linearGradient>
	<path fill="url(#SVGID_3_)" d="M958.2,11.5v0.2c-2.2,138.9-39.4,368.8-81.4,588.5c-40.8,304.6-83,585.7-83,585.7H595.1
		c0,0-42.4-281.9-83.2-587.1c-30.4-158.5-57.9-322.3-71.8-453.3c-6.7-62.8-10.2-118.1-9.2-161.6c0.2-10.2,0.6-19.6,1.4-28.4
		c1-13.3,2.7-24.7,4.9-34.7c0.4-1.2,0.6-2.4,1-3.9c0-0.4,0.2-0.6,0.2-1c2.4-9.2,5.1-18.4,8.2-27.7c0-0.4,0.2-0.6,0.4-1
		c1.2-3.9,2.4-7.8,3.9-11.6c1-2.9,1.8-5.7,3.1-8.6C499-258,587.5-392.7,643.6-471c26.1-27.1,69-29,97.3-5.3
		c57.9,79.8,154,224,198.1,353.9c4.5,12.9,8.4,25.7,11.6,38.4l0,0c0,0.4,0.2,0.8,0.4,1.2c0,0.4,0.2,0.8,0.4,1.2
		c2.7,10.6,4.5,23.5,5.7,38.4C958-27.1,958.6-8.7,958.2,11.5z"/>
	
		<radialGradient id="SVGID_4_" cx="339.55" cy="1018.6418" r="118.5346" gradientTransform="matrix(2.04 0 0 -2.04 3.135345e-005 1807.6799)" gradientUnits="userSpaceOnUse">
		<stop  offset="5.909090e-002" style="stop-color:#B73F51"/>
		<stop  offset="0.8831" style="stop-color:#CA465A"/>
		<stop  offset="1" style="stop-color:#CD475B"/>
	</radialGradient>
	<path fill="url(#SVGID_4_)" d="M952.1-84.2h-1.6L433.3-47.5c1-13.3,2.7-24.7,4.9-34.7c0.4-1.2,0.6-2.4,1-3.9c0-0.4,0.2-0.6,0.2-1
		c2.2-8.2,4.7-16.5,7.3-25.1c0-0.4,0.2-0.6,0.4-1c1.2-3.9,2.4-7.8,3.9-11.6c1-2.9,1.8-5.7,3.1-8.6
		c42.6-120.2,126.1-249.5,182.6-329.5c2.2-3.1,4.5-5.9,6.9-8.6c26.1-27.1,69-29,97.3-5.3c4.7,3.9,9,8.4,12.6,13.7
		c58.3,82.2,145.2,216,186.3,337.4c4.5,12.9,8.4,25.7,11.6,38.4c0,0.4,0.2,0.8,0.4,1.2C951.9-85,952.1-84.6,952.1-84.2z"/>
	<g>
		<circle fill="#FFFDF2" cx="694.6" cy="233.4" r="119.3"/>
		<circle fill="#D6D0BD" cx="694.6" cy="233.4" r="90.6"/>
		<path fill="#5A8EA7" d="M779.3,233.4c0,46.7-37.9,84.7-84.7,84.7c-13.3,0-25.9-3.1-37.1-8.6c-14.7-7.3-27.3-18.8-35.5-32.8
			c-7.5-12.6-12-27.3-12-43.2c0-46.7,37.9-84.7,84.7-84.7c10.4,0,20.2,1.8,29.2,5.3c15.9,5.9,29.6,16.3,39.4,30
			C773.4,197.7,779.3,214.8,779.3,233.4z"/>
		<path opacity="0.2" fill="#FFFFFF" enable-background="new    " d="M757.2,187.7l-97.1,115.5c-13.5-6.7-24.9-17.3-32.6-30.2
			l93.6-112.6C735.8,165.7,748.5,175.3,757.2,187.7z"/>
	</g>
	<path fill="#DEBD72" d="M957.8-45.9L432.1-18.9c0.6-25.3,2.7-46.5,6.3-63L940-125c4.5,12.9,8.4,25.7,11.6,38.4
		c0,0.4,0.2,0.8,0.4,1.2C954.5-74.4,956.6-61.4,957.8-45.9z"/>
	<path opacity="0.2" fill="#C9BAD3" enable-background="new    " d="M958.2,11.7c-2.2,138.9-39.4,368.8-81.4,588.5
		c-40.8,304.6-83,585.7-83,585.7h-13.5l-0.6,11.6l-3.9,73.6H621.4l-8.6-68.1l-2.2-17.1h-15.7c0,0-42.4-281.9-83.2-587.1
		c-30.4-158.5-57.9-322.3-71.8-453.3c62.4,333.3,177.3,893.9,250.1,941.1C783,1146.5,916.6,264.6,958.2,11.7z"/>
	
		<radialGradient id="SVGID_5_" cx="347.3282" cy="390.45" r="148.4934" gradientTransform="matrix(2.04 0 0 -2.04 3.135345e-005 1807.6799)" gradientUnits="userSpaceOnUse">
		<stop  offset="5.909090e-002" style="stop-color:#B73F51"/>
		<stop  offset="0.8831" style="stop-color:#CA465A"/>
		<stop  offset="1" style="stop-color:#CD475B"/>
	</radialGradient>
	<polygon fill="url(#SVGID_5_)" points="729.5,583.3 713.4,1061.4 700.9,1439.1 687.7,1439.1 693.6,1057.4 700.9,583.3 	"/>
	<path fill="#C499A0" d="M492.3,1036.4c12.4,167.1,42,396.2,42,396.2h-15.5c0,0-52.2-187.5-85.5-359.9L492.3,1036.4z"/>
	<polygon fill="#C499A0" points="693.6,1057.4 713.4,1061.4 700.9,1439.1 687.7,1439.1 	"/>
	<path fill="#C499A0" d="M962.7,1055.7c-33,176.9-88.7,376.8-88.7,376.8h-15.5c0,0,24.3-187.7,37.9-347.2L962.7,1055.7z"/>
</g>
<g>
	<g>
		<path fill="#101221" d="M-156.1,1383.2c-0.8,16.9-9.2,50-9.2,50l-20.2-0.2l-0.4-8.8c0,0-24.7,15.9-43.2,14.9
			c-18.4-1-49-7.8-49-7.8s11-21.6,37.7-26.7s48.6-1,48.6-1l18.2-21.2L-156.1,1383.2z"/>
		<path fill="#6A6C76" d="M-236.4,1400.1c2.7,1,24.9,10.2,24.9,10.2l8-1.4l-16.1-11.6L-236.4,1400.1z"/>
	</g>
	
		<linearGradient id="SVGID_6_" gradientUnits="userSpaceOnUse" x1="-10.4888" y1="363.6295" x2="14.8756" y2="598.2493" gradientTransform="matrix(2.04 0 0 -2.04 3.135345e-005 1807.6799)">
		<stop  offset="0.1136" style="stop-color:#41506C"/>
		<stop  offset="1" style="stop-color:#171627"/>
	</linearGradient>
	<path fill="url(#SVGID_6_)" d="M159.9,766.1c-40.8,184.6-138.5,370.7-214,495.7c-3.9,6.3-7.5,12.4-11.2,18.6
		c-13.7,22-26.3,41.8-37.5,59c-0.8,1.2-1.6,2.4-2.2,3.5c-29.6,44.7-49,70.8-49,70.8l-32-24.9c0,0,9.8-21,24.7-56.3
		c1.6-4.1,3.5-8.2,5.1-12.6c10-24.1,21.6-53.4,33.9-86.7c4.7-12.9,9.6-26.5,14.5-40.4c35.9-103.4,72.2-232.4,80-346.8
		c-39.2,14.3-69.2,17.7-88.7,23.1s-21.2-102.8-21.2-102.8H159.9z"/>
	
		<linearGradient id="SVGID_7_" gradientUnits="userSpaceOnUse" x1="-39.4496" y1="285.0421" x2="-62.3431" y2="235.4846" gradientTransform="matrix(2.04 0 0 -2.04 3.135345e-005 1807.6799)">
		<stop  offset="0" style="stop-color:#C5CAD2"/>
		<stop  offset="1" style="stop-color:#171627"/>
	</linearGradient>
	<path opacity="0.2" fill="url(#SVGID_7_)" enable-background="new    " d="M-54.1,1262c-3.9,6.3-7.5,12.4-11.2,18.6
		c-13.7,22-26.3,41.8-37.5,59c-0.8,1.2-1.6,2.4-2.2,3.5l-56.1-10.4c1.6-4.1,3.5-8.2,5.1-12.6c9.8-24.3,21.4-53.7,33.7-86.9
		c4.7-12.9,9.6-26.5,14.5-40.4C-94,1224.2-70.2,1248.3-54.1,1262z"/>
	<g>
		<path fill="#101221" d="M-42,1310.5c17.1-0.2,50.4,6.3,50.4,6.3l0.8,20.2l-8.8,0.8c0,0,17.3,23.9,17.3,42.2
			c0,18.6-4.9,49.2-4.9,49.2s-22-9.4-28.8-35.7s-3.7-48.3-3.7-48.3l-22-16.9L-42,1310.5z"/>
		<path fill="#6A6C76" d="M-20.8,1389.9c1-2.7,8.8-25.5,8.8-25.5l-1.8-8l-10.6,16.7L-20.8,1389.9z"/>
	</g>
	
		<linearGradient id="SVGID_8_" gradientUnits="userSpaceOnUse" x1="-68.4572" y1="369.8883" x2="-43.0916" y2="604.5192" gradientTransform="matrix(2.04 0 0 -2.04 3.135345e-005 1807.6799)">
		<stop  offset="0.1136" style="stop-color:#41506C"/>
		<stop  offset="1" style="stop-color:#171627"/>
	</linearGradient>
	<path fill="url(#SVGID_8_)" d="M-116.9,869.1c-21.2,81.6-42.6,271.3-28.4,335.2c14.3,63.9,123.6,107.1,123.6,107.1l-8.8,28.4
		c0,0-144.8-11.2-226.4-115.9s30.2-464.7,30.2-464.7L-51,693.4L-116.9,869.1z"/>
	
		<radialGradient id="SVGID_9_" cx="10.6819" cy="691.4188" r="145.2245" gradientTransform="matrix(2.04 0 0 -2.04 3.135345e-005 1807.6799)" gradientUnits="userSpaceOnUse">
		<stop  offset="0" style="stop-color:#36405A"/>
		<stop  offset="1" style="stop-color:#41506C"/>
	</radialGradient>
	<path fill="url(#SVGID_9_)" d="M426,18.2c0,0-132,163-151.4,219.3c-19.6,56.3-62.2,442.7-106.9,553.2
		C-111.8,833.4-172,771.2-172,771.2s-31,27.1-91.2-1.8c52.4-116.3,87.5-553,87.5-553s-21.4-145.5-9.8-229.1
		c50-14.5,92.6-34.1,123.2-50C-31-79.3-12.6-92.4-12.6-92.4s149.5-11.6,198.1-5.7c9.8,8.6,35.3,22.4,65.9,37.5
		C323.5-24.9,426,18.2,426,18.2z"/>
	<path fill="#41506C" d="M-185.4-12.8c0,0-229.3,217.5-168.9,429c58.1,203.8,234.8-38.8,192.2-81.6s-23.3-97.1-13.7-118.3
		C-154.4,161.8-185.4-12.8-185.4-12.8z"/>
	<g>
		<path fill="#E9BC83" d="M-138.9,293.8l-14.3,37.5c0,0-55.9-16.7-64.5-39.2c-0.4-1-0.6-2-0.8-2.9c0-0.6-0.2-1-0.2-1.6
			c-0.8-4.3-1.2-8.8-1.4-13.3c0-1.4,0-3.1,0-4.5c0-5.7,0.2-11,0.6-15.9c0-1.4,0.2-2.9,0.4-4.3c1-9.4,2-15.7,2-15.7
			S-158.5,257.7-138.9,293.8z"/>
		<g>
			<g>
				<path fill="#CF976D" d="M-180.5,301.5l-2.2,3.7c-0.2-0.2-14.3-9-34.9-13.3c-0.4-1-0.6-2-0.8-2.9c0-0.6-0.2-1-0.2-1.6
					C-196.5,291.8-181.4,301.1-180.5,301.5z"/>
				<path fill="#CF976D" d="M-174,286.7l-1.8,3.9c-0.4-0.2-23.3-11.2-44.3-16.1c0-1.4,0-3.1,0-4.5C-198.7,274.8-175.4,286-174,286.7
					z"/>
				<path fill="#CF976D" d="M-170.7,272.8l-2.2,3.7c-0.4-0.2-24.9-15.1-46.7-22.4c0-1.4,0.2-2.9,0.4-4.3
					C-197.1,256.9-172.2,272-170.7,272.8z"/>
			</g>
		</g>
	</g>
	<path fill="#E9E8E2" d="M-134.4,292.2l-15.5-17.1c0,0-29.8,17.7-25.3,46.1c10,9.4,23.9,17.5,23.9,17.5L-134.4,292.2z"/>
	<path fill="#426683" d="M-94.2,348.3c0,0-49.2-67.7-50-214c-0.2-21.4,8.4-42,23.7-56.9l5.9-5.7l0,0c-14.9-5.9-22.8-22-18.8-37.3
		l16.3-65.5c2.7-10.6,10.6-19,21.2-21.8l33.7-9.6C-131.2,138.6-94.2,348.3-94.2,348.3z"/>
	<polygon fill="#27303B" points="-197.9,546.8 -226.8,539 -231.3,566.7 -204.6,582.3 	"/>
	<circle fill="#27303B" cx="-73.4" cy="491.3" r="14.5"/>
	<circle fill="#27303B" cx="-102.4" cy="621.2" r="14.5"/>
	<g opacity="0.3">
		<path opacity="0.3" fill="#27303B" enable-background="new    " d="M-180.3,776.5c18.6-61,81.2-279.7,85.7-465.3l8.6,0.2
			c-4.3,180.5-63.4,392.3-84.3,461.2L-180.3,776.5z"/>
	</g>
	<path fill="#E6E5E1" d="M251.3-60.6C200.3,70,37.7,226.1-44.9,302.2c-29.6,27.1-48.8,44.1-49.4,45.9c-0.6,2.2-4.5-15.5-8-46.5
		c-8.2-74.9-13.3-227.3,40-364.5C-31-79.5-12.6-92.6-12.6-92.6s149.5-11.6,198.1-5.7C195.2-89.5,220.5-75.6,251.3-60.6z"/>
	<path fill="#E4BE97" d="M200.9-123.6L194-249.5l-182.6,1.2l-31.8,136.5c0,0-20.8,29.4-8,69.4s155.4-7.8,155.4-7.8
		S192.4-73.4,200.9-123.6z"/>
	<path fill="#426683" d="M189.3,70.8l-8.4-0.6l0,0c12.6,22.2,10.2,49.8-5.7,69.8C97.1,238.3-5.3,336.8-94.2,348.3
		C43,208.3,203,51.4,247.5-71.8c15.5-4.5,42.2,15.5,47.7,26.7c-8.4,20-25.9,51.4-49.8,88.1C233.2,61.8,211.5,72.5,189.3,70.8z"/>
	
		<radialGradient id="SVGID_10_" cx="-7.7" cy="813.4034" r="75.502" gradientTransform="matrix(2.04 0 0 -2.04 3.135345e-005 1807.6799)" gradientUnits="userSpaceOnUse">
		<stop  offset="5.909090e-002" style="stop-color:#B73F51"/>
		<stop  offset="0.8831" style="stop-color:#CA465A"/>
		<stop  offset="1" style="stop-color:#CD475B"/>
	</radialGradient>
	<path fill="url(#SVGID_10_)" d="M70.8-11.8C62-27.3,18.4-51.6,18.4-51.6s-39.8,16.5-53,33.3c2.7,10.6,10,22.2,15.5,30
		c-37.1,90.8-66.7,214.4-83,289.9c3.5,31,7.3,48.8,8,46.5c0.6-2,19.8-19,49.4-45.9C-26.9,198.5,1.6,52.3,9.2,14.9
		C29.8,9.2,59.8-0.8,70.8-11.8z"/>
	<path fill="#E9BC83" d="M65.3,354.6c21.2-1.2,45.1,18.8,45.1,18.8s33-8.2,41-15.1c7.8-6.9-25.7-36.3-46.5-47.1
		c-20.8-10.8-50.4,7.5-50.4,7.5L65.3,354.6z"/>
	
		<radialGradient id="SVGID_11_" cx="4.8324" cy="741.5387" r="96.6748" gradientTransform="matrix(2.04 0 0 -2.04 3.135345e-005 1807.6799)" gradientUnits="userSpaceOnUse">
		<stop  offset="0" style="stop-color:#282E44"/>
		<stop  offset="0.3785" style="stop-color:#323C55"/>
		<stop  offset="1" style="stop-color:#41506C"/>
	</radialGradient>
	<path fill="url(#SVGID_11_)" d="M274.6,237.5c-73.8,202-326.2,107.3-413.5,47.1c-23.3,5.9-29.2,44.7-29.2,44.7
		S45.5,528.6,224,520.8c178.5-7.8,234.8-357.2,202-502.7C375.6,20.2,268.9,191,274.6,237.5z"/>
	<polygon fill="#27303B" points="66.5,555.5 65.3,583.5 173.2,586.7 168.7,561.2 	"/>
	<g>
		
			<linearGradient id="SVGID_12_" gradientUnits="userSpaceOnUse" x1="-26.1362" y1="1252.0979" x2="190.5359" y2="1186.2094" gradientTransform="matrix(2.0359 -0.1314 -0.1314 -2.0359 68.4769 2095.8306)">
			<stop  offset="0.2417" style="stop-color:#7F5A40"/>
			<stop  offset="0.8593" style="stop-color:#49271B"/>
		</linearGradient>
		<path fill="url(#SVGID_12_)" d="M197.1-184.8c-6.1,9.8-15.1,18.2-26.7,24.9c-1.2,0.6-2.2,1.2-3.5,1.8l0,0
			c-22.8,12-46.9,24.9-88.9,26.7l0,0c-1.8,0-3.5,0.2-5.3,0.2c-8.6,0.2-17.5,0.4-26.7,0.2c-21.2-0.2-38.6-2.4-52.6-5.7
			c-2-0.4-4.1-1-6.1-1.4c-38.4-10-50.6-27.7-52-32.4c-1-3.5-6.7-60.4-5.5-141.4c0.2-16.1,0.8-33.5,1.6-51.2
			c1.2-25.7,3.5-52.8,6.5-80.8c4.7-41.6,11.8-84.9,22-127.7c-56.1-82.6-21.6-114.6,29-118.3c1.6-0.2,3.5-0.2,5.1-0.2l0,0
			c4.7-0.2,9.4-0.2,14.3,0.2l0,0c3.7,0.2,7.3,0.6,11,1c15.3,1.8,30.6,5.5,44.5,10.6c23.5,8.6,43.9,17.7,61.6,26.9
			c1.8,1,3.7,1.8,5.5,2.9c0.8,0.4,1.6,0.8,2.4,1.2c1.8,1,3.7,2,5.5,3.1c82.4,46.3,98.9,92.2,98.9,92.2s43.5,10.6,49.8,24.9
			C293.6-513,217.7-218.2,197.1-184.8z"/>
		<g opacity="0.5">
			<path fill="#A45C49" d="M170.3-160.1c-1.2,0.6-2.2,1.2-3.5,1.8l0,0c-10-22.6-25.7-81.8-7.3-157.3l3.9,1
				C145.5-240.3,160.3-182.3,170.3-160.1z"/>
			<path fill="#A45C49" d="M-6.9-136.6c-2-0.4-4.1-1-6.1-1.4c-30.8-43.5-30.4-114.6-24.1-169.5l3.9,0.4
				C-39.6-251.5-39.8-178.5-6.9-136.6z"/>
			<path fill="#A45C49" d="M77.7-131.3c-1.8,0-3.5,0.2-5.3,0.2c-13.3-14.3-21.6-46.3-23.9-89.1l4.1-0.2
				C54.9-175.8,63.6-145,77.7-131.3z"/>
			<path fill="#A45C49" d="M124.6-546.7l-2.9,3.5c-25.1-35.3-22.6-70.4-13.1-89.8c4.3-8.4,10-14.7,16.5-18.6c1.8,1,3.7,1.8,5.5,2.9
				c-7.8,3.3-14.1,9.4-18.8,18.6C103.2-612.4,101.2-579.9,124.6-546.7z"/>
			<path fill="#A45C49" d="M13.9-558.5l-3.3,3.5c-34.5-51.8-35.5-105.3-21.8-134.8c1.6-0.2,3.5-0.2,5.1-0.2
				C-20.6-663.2-20.8-610.3,13.9-558.5z"/>
		</g>
		<path fill="#E4BE97" d="M138.7-305.1c-50,8.4-124.4,16.1-209.3-6.9c0.2-16.1,0.8-33.5,1.6-51.2c1.2-25.7,3.5-52.8,6.5-80.8
			c4.7-41.6,11.8-84.9,22-127.7c0,0,2.4,9.2,55.7,14.5c59,5.9,149.5,10.8,166.7,25.3c13.5,11.4,24.9,25.3,26.1,43
			c3.7,52.2-10.8,108.5-22.2,143.2C179.1-324.3,160.8-308.8,138.7-305.1z"/>
		
			<linearGradient id="SVGID_13_" gradientUnits="userSpaceOnUse" x1="91.9753" y1="1257.7108" x2="81.8245" y2="1212.5399" gradientTransform="matrix(2.0359 -0.1314 -0.1314 -2.0359 68.4769 2095.8306)">
			<stop  offset="0" style="stop-color:#B37562"/>
			<stop  offset="0.2" style="stop-color:#BB816B"/>
			<stop  offset="0.5644" style="stop-color:#D1A283"/>
			<stop  offset="0.8279" style="stop-color:#E4BE97"/>
		</linearGradient>
		<path fill="url(#SVGID_13_)" d="M16.1-371.7c3.1-0.2,115.1,12.6,115.1,12.6l10-68.7l-14.7-24.5l-83.6-17.1
			C42.8-469.2,16.3-415.7,16.1-371.7z"/>
		
			<linearGradient id="SVGID_14_" gradientUnits="userSpaceOnUse" x1="-11.2979" y1="1072.7563" x2="-10.6827" y2="1117.6627" gradientTransform="matrix(2.04 0 0 -2.04 3.135345e-005 1807.6799)">
			<stop  offset="0" style="stop-color:#E4BE97"/>
			<stop  offset="0.3182" style="stop-color:#D1A283"/>
			<stop  offset="0.7584" style="stop-color:#BB816B"/>
			<stop  offset="1" style="stop-color:#B37562"/>
		</linearGradient>
		<path fill="url(#SVGID_14_)" d="M22.8-412.7l-7.5,50.8l-84-1.2c1.2-25.7,3.5-52.8,6.5-80.8l65.3-6.9L22.8-412.7z"/>
		<path fill="#FFFFFF" d="M126.7-397.6c-2.2,6.7-15.5,21.8-19.6,23.5c-4.1,1.6-43.5-0.2-45.3-2.4c-2-2.2-9.2-20.4-10.4-31
			c3.7-0.8,11.4-1.8,21.2-2c2,0,4.3,0,6.5,0c12.6,0.2,27.3,2,39.2,7.3c0.8,0.2,1.4,0.6,2.2,1C122.6-400.2,124.6-399,126.7-397.6z"/>
		
			<linearGradient id="SVGID_15_" gradientUnits="userSpaceOnUse" x1="68.7369" y1="1260.4067" x2="37.6223" y2="1153.9619" gradientTransform="matrix(2.0359 -0.1314 -0.1314 -2.0359 68.4769 2095.8306)">
			<stop  offset="0.2033" style="stop-color:#E4BE97"/>
			<stop  offset="0.3574" style="stop-color:#E2B894"/>
			<stop  offset="0.5676" style="stop-color:#DDA68C"/>
			<stop  offset="0.8091" style="stop-color:#D58A7E"/>
			<stop  offset="1" style="stop-color:#CD6E71"/>
		</linearGradient>
		<path fill="url(#SVGID_15_)" d="M-7.5-443.7c37.1,36.3,22.2,80,2.7,105.9c-3.1,4.1-11.8,3.1-18,10.8
			c-10.8,13.7,20.6,29.8,50.4,24.5c23.1-4.1,27.1-16.9,18.6-24.5s-24.7,0.2-24.7,0.2s2.9-60.4,11.2-100.2S62.8-502,62.8-502
			L6.9-513.4L-7.5-443.7z"/>
		
			<linearGradient id="SVGID_16_" gradientUnits="userSpaceOnUse" x1="8.9507" y1="1226.1968" x2="31.8049" y2="1226.1968" gradientTransform="matrix(2.029 -0.212 -0.212 -2.029 310.4124 2099.3486)">
			<stop  offset="0" style="stop-color:#7EB7D3"/>
			<stop  offset="0.7212" style="stop-color:#405178"/>
		</linearGradient>
		<path fill="url(#SVGID_16_)" d="M114.6-399.8c1.4,12.9-8,24.3-20.8,25.7c-12.9,1.4-24.3-8-25.7-20.8c-0.6-5.5,0.8-10.6,3.5-14.9
			c13.9,0.2,29.6,2.2,42.4,8C114.4-401.4,114.4-400.6,114.6-399.8z"/>
		<path fill="#FFFFFF" d="M-4.3-380.8c-0.2,0.4-0.2,0.6-0.4,1c-1.8,0.4-3.7,0.6-5.7,0.8c-3.3,0.4-6.5,0.6-9.8,0.4
			c-11-0.2-20.8-2.2-21.6-3.5c-1-2-3.9-21.4-3.1-25.1c3.9-2.7,11.2-4.1,19-4.7l0,0c1.8,0,3.7-0.2,5.5-0.2l0,0
			c10.6-0.4,20.2,0.4,20.2,0.4C0.8-405.3-1.8-386.5-4.3-380.8z"/>
		
			<linearGradient id="SVGID_17_" gradientUnits="userSpaceOnUse" x1="-12.6758" y1="1080.078" x2="0.1376" y2="1080.078" gradientTransform="matrix(2.04 0 0 -2.04 3.135345e-005 1807.6799)">
			<stop  offset="0" style="stop-color:#7EB7D3"/>
			<stop  offset="0.7212" style="stop-color:#405178"/>
		</linearGradient>
		<path fill="url(#SVGID_17_)" d="M-4.3-380.8c-0.2,0.4-0.2,0.6-0.4,1c-1.8,0.4-3.7,0.6-5.7,0.8c-1.4,0-2.7,0-4.1,0
			c-6.3-3.3-10.8-9.6-11.4-17.3c-0.4-6.1,1.8-11.6,5.7-15.9l0,0c10.6-0.4,20.2,0.4,20.2,0.4C0.8-405.3-1.8-386.5-4.3-380.8z"/>
		
			<linearGradient id="SVGID_18_" gradientUnits="userSpaceOnUse" x1="242.7319" y1="1215.7561" x2="266.7409" y2="1215.7561" gradientTransform="matrix(2.0365 0.122 0.122 -2.0365 -689.0952 2032.5507)">
			<stop  offset="0.1635" style="stop-color:#7F5A40"/>
			<stop  offset="1" style="stop-color:#49271B"/>
		</linearGradient>
		<path fill="url(#SVGID_18_)" d="M-44.7-407.4c10.4-4.3,45.9-2.2,45.9-2.2l1.6-7.1c0,0-31-4.5-48.1,3.1
			C-48.6-409-44.7-407.4-44.7-407.4z"/>
		<g>
			<path fill="#E4BE97" d="M230.3-378.8c4.1-6.9,12-10.4,20-8.6c15.1,3.5,39.6,9.8,44.3,17.1c6.7,10.8-18,80-27.5,87.1
				c-6.3,4.5-27.9,0.4-43-3.1c-9-2-14.9-10.4-14.1-19.4c1-11.2,3.3-27.1,8.2-43.7C222.2-362.9,226.6-372.5,230.3-378.8z"/>
			
				<linearGradient id="SVGID_19_" gradientUnits="userSpaceOnUse" x1="1620.4292" y1="1184.6534" x2="1637.2839" y2="1181.9194" gradientTransform="matrix(1.991 0.4443 0.4443 -1.991 -3512.7065 1300.3318)">
				<stop  offset="6.060600e-002" style="stop-color:#B37562"/>
				<stop  offset="0.1396" style="stop-color:#BA806A"/>
				<stop  offset="0.4298" style="stop-color:#D1A282"/>
				<stop  offset="0.6696" style="stop-color:#DFB691"/>
				<stop  offset="0.8279" style="stop-color:#E4BE97"/>
			</linearGradient>
			<path fill="url(#SVGID_19_)" d="M232.2-302.3c0,0,16.3,3.7,26.7-2.7c10.2-6.3,21.6-56.3,21.6-56.3s-21.2-10.2-28.2-5.3
				C245.4-361.5,235.4-323.9,232.2-302.3z"/>
			<path fill="#B46A5B" d="M280.5-361c0,0-27.5-14.9-31.2-8.4c-13.7,23.3-16.9,65.3-16.9,65.3l-0.2,2c0,0,15.9-60.4,21-61.8
				C258.3-365.7,280.5-361,280.5-361z"/>
		</g>
		<g>
			<path fill="#E4BE97" d="M1-265c46.1,5.1,105.7-17.1,123.4-32.6c-21,60-50.6,78.1-76.7,79.6S1-265,1-265z"/>
			<path fill="#55131E" d="M124.4-297.4c-17.1,40-44.1,62.6-68.3,67.9c-2.9,0.6-5.7,1-8.6,1.2C21.4-226.8,1-264.8,1-264.8
				c10,1,20.6,0.8,31.4-0.2C71-269.2,110.6-285.4,124.4-297.4z"/>
			<path fill="#FFFFFF" d="M124.4-297.4c-17.1,40-44.1,62.6-68.3,67.9l-8.8-13.1l-5.5-9l-9.6-13.7C71-269.2,110.6-285.4,124.4-297.4
				z"/>
		</g>
		
			<linearGradient id="SVGID_20_" gradientUnits="userSpaceOnUse" x1="11.3733" y1="1250.9537" x2="51.3386" y2="1250.9537" gradientTransform="matrix(2.0359 -0.1314 -0.1314 -2.0359 68.4769 2095.8306)">
			<stop  offset="0.1635" style="stop-color:#7F5A40"/>
			<stop  offset="1" style="stop-color:#49271B"/>
		</linearGradient>
		<path fill="url(#SVGID_20_)" d="M7.1-481.2l-10.2,44.7c0,0-39.2-0.4-63.4,10.2c-8.8-11.4-4.9-30.8-4.9-30.8s12.4-23.5,56.1-22.6
			c5.9,0.2,5.1,25.7,5.1,25.7l8.2-29.6L7.1-481.2z"/>
		
			<linearGradient id="SVGID_21_" gradientUnits="userSpaceOnUse" x1="65.6691" y1="1268.7936" x2="117.8375" y2="1233.7946" gradientTransform="matrix(2.0359 -0.1314 -0.1314 -2.0359 68.4769 2095.8306)">
			<stop  offset="0.1635" style="stop-color:#7F5A40"/>
			<stop  offset="1" style="stop-color:#49271B"/>
		</linearGradient>
		<path fill="url(#SVGID_21_)" d="M158.5-445.9c0,0-3.5,15.9-20,24.9C115.7-449.6,42-453.7,42-453.7s-1.2-31.6,18.4-53
			c2,0.2,4.3,0.4,6.3,0.8l-9.2,33.5l24.3-30.4c23.9,6.5,42.2,19.6,55.1,31.4l-3.3,14.1l9.6-7.8C153.4-454.3,158.5-445.9,158.5-445.9
			z"/>
		
			<linearGradient id="SVGID_22_" gradientUnits="userSpaceOnUse" x1="0.2329" y1="1232.7422" x2="39.6167" y2="1232.7422" gradientTransform="matrix(2.029 -0.212 -0.212 -2.029 310.4124 2099.3486)">
			<stop  offset="0.1635" style="stop-color:#7F5A40"/>
			<stop  offset="1" style="stop-color:#49271B"/>
		</linearGradient>
		<path fill="url(#SVGID_22_)" d="M48.3-413.9l3.1,6.1c0,0,49.6-2.2,75.3,10c2-3.3,3.5-6.3,3.5-6.3S100-421,48.3-413.9z"/>
	</g>
	<polygon fill="#E9E8E2" points="54.5,314.2 70.8,307.9 78.9,353 54.5,353 	"/>
	<path fill="#41506C" d="M-354.3,416.2c66.7,266.4,419.6-61.6,419.6-61.6l-5.9-46.5c0,0-158.9,73.4-230.3,23.3
		C-265.8,264.6-381.5,307.5-354.3,416.2z"/>
	<path fill="#F3F3EF" d="M18.4-51.6c36.9,23.3,42.8,67.9,42.8,67.9s134-46.5,161.2-101c2-9.8-21.4-38.8-21.4-38.8
		S109.5-63.4,18.4-51.6z"/>
	<path fill="#F3F3EF" d="M18.4-51.6c-31,11.6-56.5,58.8-56.5,58.8s-21-26.7-21-78.3c13.7-29.2,38.8-40.8,38.8-40.8
		S-30.2-65.2,18.4-51.6z"/>
</g>
</svg>
