<svg id="men_3" xmlns="http://www.w3.org/2000/svg" xmlns:xlink="http://www.w3.org/1999/xlink" viewBox="0 0 93.14 98.36"><defs><linearGradient id="a" x1="28.01" y1="24.95" x2="27.89" y2="-6.94" gradientUnits="userSpaceOnUse"><stop offset="0.11" stop-color="#425168"/><stop offset="1" stop-color="#101221"/></linearGradient><linearGradient id="b" x1="62.68" y1="24.85" x2="62.56" y2="-6.98" xlink:href="#a"/><linearGradient id="c" x1="45.14" y1="34.58" x2="45.4" y2="27.68" gradientUnits="userSpaceOnUse"><stop offset="0.11" stop-color="#e9bc83"/><stop offset="0.27" stop-color="#e6b47e"/><stop offset="0.52" stop-color="#dca06f"/><stop offset="0.82" stop-color="#cd7e56"/><stop offset="0.94" stop-color="#c66e4b"/></linearGradient><linearGradient id="d" x1="44.83" y1="37.06" x2="45.44" y2="28.22" gradientUnits="userSpaceOnUse"><stop offset="0.18" stop-color="#fbfaf4"/><stop offset="0.44" stop-color="#f1efe7"/><stop offset="0.77" stop-color="#e0ddd1"/></linearGradient><radialGradient id="e" cx="45.48" cy="26.79" r="9.93" gradientTransform="translate(0.01 8.12) scale(1 0.97)" gradientUnits="userSpaceOnUse"><stop offset="0.06" stop-color="#b61636"/><stop offset="0.46" stop-color="#c4293d"/><stop offset="1" stop-color="#dc4949"/></radialGradient><linearGradient id="f" x1="39.72" y1="39.41" x2="40.78" y2="65.69" xlink:href="#a"/><linearGradient id="g" x1="44.99" y1="48.94" x2="45.26" y2="65.37" xlink:href="#a"/><linearGradient id="h" x1="50.79" y1="35.69" x2="51.38" y2="71.84" xlink:href="#a"/><linearGradient id="i" x1="43.11" y1="33.99" x2="39.55" y2="30.26" xlink:href="#d"/><linearGradient id="j" x1="47.8" y1="33.42" x2="50.11" y2="30.11" xlink:href="#d"/><linearGradient id="k" x1="45.29" y1="11.51" x2="45.46" y2="26.7" gradientUnits="userSpaceOnUse"><stop offset="0.23" stop-color="#7f5a40"/><stop offset="0.81" stop-color="#49271b"/></linearGradient><linearGradient id="l" x1="45.23" y1="0.72" x2="45.23" y2="14.49" gradientUnits="userSpaceOnUse"><stop offset="0.16" stop-color="#7f5a40"/><stop offset="0.82" stop-color="#49271b"/></linearGradient><linearGradient id="m" x1="1002.05" y1="15.49" x2="1002.05" y2="7.82" gradientTransform="matrix(-1, 0, 0, 1, 1049.72, 0)" xlink:href="#c"/><linearGradient id="n" x1="42.88" y1="15.49" x2="42.88" y2="7.82" xlink:href="#c"/><linearGradient id="o" x1="45.29" y1="8.43" x2="45.29" y2="16.6" gradientUnits="userSpaceOnUse"><stop offset="0.2" stop-color="#e9bc83"/><stop offset="0.34" stop-color="#e8b680"/><stop offset="0.53" stop-color="#e5a477"/><stop offset="0.75" stop-color="#df8867"/><stop offset="0.98" stop-color="#d86053"/><stop offset="1" stop-color="#d75d51"/></linearGradient><linearGradient id="p" x1="-193.74" y1="-268.04" x2="-193.85" y2="-265.52" gradientTransform="matrix(0.9, -0.44, 0.44, 0.9, 332.58, 164.12)" gradientUnits="userSpaceOnUse"><stop offset="0.1" stop-color="#7f5a40"/><stop offset="0.92" stop-color="#49271b"/></linearGradient><linearGradient id="q" x1="51.96" y1="14.73" x2="53.04" y2="14.9" gradientUnits="userSpaceOnUse"><stop offset="0.06" stop-color="#b96e47"/><stop offset="0.17" stop-color="#c37e53"/><stop offset="0.45" stop-color="#d7a06d"/><stop offset="0.68" stop-color="#e4b47d"/><stop offset="0.83" stop-color="#e9bc83"/></linearGradient><linearGradient id="r" x1="1584.65" y1="14.73" x2="1585.73" y2="14.9" gradientTransform="matrix(-1, 0, 0, 1, 1623.13, 0)" xlink:href="#q"/><linearGradient id="s" x1="41.01" y1="12.74" x2="44.07" y2="12.74" gradientTransform="matrix(1, 0, 0, 1, 0, 0)" xlink:href="#p"/><linearGradient id="t" x1="42.45" y1="13.07" x2="43.66" y2="13.07" gradientTransform="translate(1.45 -4.06) rotate(5.49)" gradientUnits="userSpaceOnUse"><stop offset="0" stop-color="#7eb7d3"/><stop offset="0.72" stop-color="#405178"/></linearGradient><linearGradient id="u" x1="669.58" y1="149.99" x2="669.47" y2="152.52" gradientTransform="matrix(-0.9, -0.44, -0.44, 0.9, 717.14, 164.12)" xlink:href="#p"/><linearGradient id="v" x1="1000.18" y1="12.75" x2="1003.24" y2="12.75" gradientTransform="matrix(-1, 0, 0, 1, 1049.72, 0)" xlink:href="#p"/><linearGradient id="w" x1="1001.62" y1="13.07" x2="1002.82" y2="13.07" gradientTransform="matrix(-0.1, -1, -1, 0.1, 156.34, 1009.44)" xlink:href="#t"/><linearGradient id="x" x1="36.09" y1="7.4" x2="38.22" y2="2.64" xlink:href="#c"/><linearGradient id="y" x1="54.17" y1="7.05" x2="52.04" y2="2.71" gradientUnits="userSpaceOnUse"><stop offset="0.11" stop-color="#e9bc83"/><stop offset="0.27" stop-color="#e6b47e"/><stop offset="0.51" stop-color="#dca06f"/><stop offset="0.69" stop-color="#d38c62"/><stop offset="0.94" stop-color="#c66e4b"/></linearGradient><linearGradient id="z" x1="45.64" y1="8.8" x2="45.19" y2="11.61" gradientTransform="matrix(1, 0, 0, -1, 0.01, 96.64)" gradientUnits="userSpaceOnUse"><stop offset="0" stop-color="#b4af91"/><stop offset="0.26" stop-color="#aea88d"/><stop offset="0.63" stop-color="#9f9582"/><stop offset="1" stop-color="#8b7b74"/></linearGradient><linearGradient id="aa" x1="36.39" y1="16.99" x2="36.84" y2="22.72" xlink:href="#z"/><linearGradient id="ab" x1="54.78" y1="15.47" x2="53.55" y2="22.65" xlink:href="#z"/><radialGradient id="ac" cx="35.27" cy="37.5" r="6.9" gradientTransform="matrix(1, 0, 0, -1, 14.13, 103.32)" gradientUnits="userSpaceOnUse"><stop offset="0" stop-color="#101221"/><stop offset="0.27" stop-color="#202638"/><stop offset="0.74" stop-color="#39455b"/><stop offset="1" stop-color="#425168"/></radialGradient><radialGradient id="ad" cx="27.13" cy="36.26" r="11.55" xlink:href="#ac"/><linearGradient id="ae" x1="30.79" y1="62.05" x2="30.79" y2="74.31" gradientTransform="matrix(1, 0, 0, -1, 14.13, 103.32)" gradientUnits="userSpaceOnUse"><stop offset="0.18" stop-color="#faf9f3"/><stop offset="0.44" stop-color="#f0eee6"/><stop offset="0.77" stop-color="#dfdcd0"/></linearGradient><radialGradient id="af" cx="30.78" cy="74.76" r="13.47" gradientTransform="matrix(1, 0, 0, -1, 14.13, 103.32)" gradientUnits="userSpaceOnUse"><stop offset="0.06" stop-color="#b83f51"/><stop offset="0.88" stop-color="#cb465a"/><stop offset="1" stop-color="#ce475b"/></radialGradient><radialGradient id="ag" cx="38.52" cy="36.49" r="10.21" xlink:href="#ac"/><linearGradient id="ah" x1="30.91" y1="76.06" x2="30.87" y2="76.91" gradientTransform="matrix(1, 0, 0, -1, 14.13, 103.32)" gradientUnits="userSpaceOnUse"><stop offset="0" stop-color="#e5be98"/><stop offset="0.23" stop-color="#dfb491"/><stop offset="0.62" stop-color="#d1987f"/><stop offset="1" stop-color="#bf7769"/></linearGradient><linearGradient id="ai" x1="32" y1="74" x2="37.55" y2="79.14" xlink:href="#ae"/><linearGradient id="aj" x1="30.16" y1="73.47" x2="24.77" y2="78.27" xlink:href="#ae"/><linearGradient id="ak" x1="56.51" y1="64.85" x2="56.95" y2="60.22" gradientTransform="matrix(1, 0, 0, -1, 14.13, 103.32)" gradientUnits="userSpaceOnUse"><stop offset="0" stop-color="#9ccb69"/><stop offset="1" stop-color="#68793a"/></linearGradient><linearGradient id="al" x1="58.43" y1="66.42" x2="57.97" y2="61.77" xlink:href="#ak"/><linearGradient id="am" x1="59.25" y1="65.02" x2="57.7" y2="58.47" xlink:href="#ak"/><linearGradient id="an" x1="57.48" y1="63.76" x2="56.89" y2="58.15" gradientTransform="matrix(1, 0, 0, -1, 14.13, 103.32)" gradientUnits="userSpaceOnUse"><stop offset="0" stop-color="#9ccb69"/><stop offset="0.08" stop-color="#97c565"/><stop offset="0.96" stop-color="#68793a"/></linearGradient><linearGradient id="ao" x1="54.48" y1="63.49" x2="55.67" y2="58.39" xlink:href="#ak"/><linearGradient id="ap" x1="53.27" y1="62.26" x2="55.46" y2="57.71" xlink:href="#ak"/><linearGradient id="aq" x1="55.52" y1="63.18" x2="56.81" y2="58.33" xlink:href="#ak"/><linearGradient id="ar" x1="60.44" y1="64.46" x2="58.35" y2="57.19" gradientTransform="matrix(1, 0, 0, -1, 14.13, 103.32)" gradientUnits="userSpaceOnUse"><stop offset="0" stop-color="#9ccb69"/><stop offset="0.77" stop-color="#68793a"/></linearGradient><linearGradient id="as" x1="61.1" y1="61.93" x2="59.92" y2="59.36" xlink:href="#ak"/><linearGradient id="at" x1="60.65" y1="62.28" x2="58.68" y2="58.08" xlink:href="#ak"/><linearGradient id="au" x1="53.86" y1="55.78" x2="60.65" y2="55.78" gradientTransform="matrix(1, 0, 0, -1, 14.13, 103.32)" gradientUnits="userSpaceOnUse"><stop offset="0" stop-color="#b1804e"/><stop offset="1" stop-color="#682d2e"/></linearGradient><linearGradient id="av" x1="-0.53" y1="56.1" x2="5.47" y2="56.1" gradientTransform="matrix(1, 0, 0, -1, 14.13, 103.32)" gradientUnits="userSpaceOnUse"><stop offset="0.07" stop-color="#b13d55"/><stop offset="0.63" stop-color="#802d41"/><stop offset="0.71" stop-color="#7a2b3e"/><stop offset="0.82" stop-color="#692536"/><stop offset="0.91" stop-color="#551e2c"/></linearGradient><linearGradient id="aw" x1="5.2" y1="5.72" x2="12" y2="38.01" xlink:href="#z"/><linearGradient id="ax" x1="-148.3" y1="18.05" x2="-141.51" y2="50.33" gradientTransform="translate(-126.38 108.96) rotate(180)" xlink:href="#z"/><linearGradient id="ay" x1="66.75" y1="5.72" x2="73.54" y2="38.01" xlink:href="#z"/><linearGradient id="az" x1="-209.85" y1="18.05" x2="-203.05" y2="50.33" gradientTransform="translate(-126.38 108.96) rotate(180)" xlink:href="#z"/><radialGradient id="ba" cx="45.36" cy="46.76" r="1.46" gradientTransform="matrix(1, 0, 0, -1, 0, 91)" gradientUnits="userSpaceOnUse"><stop offset="0.04" stop-color="#364971"/><stop offset="0.3" stop-color="#34466c"/><stop offset="0.6" stop-color="#2d3c5d"/><stop offset="0.93" stop-color="#222d45"/><stop offset="0.98" stop-color="#202a41"/></radialGradient><linearGradient id="bb" x1="45.37" y1="40.43" x2="45.37" y2="43.62" gradientTransform="matrix(1, 0, 0, -1, 0.01, 96.64)" gradientUnits="userSpaceOnUse"><stop offset="0.11" stop-color="#fcfdff"/><stop offset="0.58" stop-color="#b9c9dd"/><stop offset="1" stop-color="#9daabd"/></linearGradient><linearGradient id="bc" x1="45.37" y1="40.84" x2="45.37" y2="41.48" gradientTransform="matrix(1, 0, 0, -1, 0.01, 96.64)" gradientUnits="userSpaceOnUse"><stop offset="0.11" stop-color="#fcfdff"/><stop offset="0.23" stop-color="#f9fbfd"/><stop offset="0.3" stop-color="#f1f2f5"/><stop offset="0.36" stop-color="#e2e4e8"/><stop offset="0.41" stop-color="#ced0d5"/><stop offset="0.46" stop-color="#b3b7bc"/><stop offset="0.51" stop-color="#92979e"/><stop offset="0.55" stop-color="#6c727c"/><stop offset="0.57" stop-color="#5c636d"/><stop offset="0.58" stop-color="#b9c9dd"/></linearGradient><linearGradient id="bd" x1="28.29" y1="53.03" x2="28.29" y2="53.48" gradientTransform="matrix(1, 0, 0, -1, 14.13, 103.32)" xlink:href="#bb"/><linearGradient id="be" x1="34.19" y1="53.03" x2="34.19" y2="53.48" gradientTransform="matrix(1, 0, 0, -1, 14.13, 103.32)" xlink:href="#bb"/><linearGradient id="bf" x1="45.38" y1="47.14" x2="45.38" y2="46.79" gradientTransform="matrix(1, 0, 0, -1, 0.01, 96.64)" gradientUnits="userSpaceOnUse"><stop offset="0" stop-color="#b5b5b5"/><stop offset="0.22" stop-color="#949494"/><stop offset="0.7" stop-color="#404040"/><stop offset="0.98" stop-color="#0d0d0d"/></linearGradient><linearGradient id="bg" x1="31.24" y1="59.7" x2="31.24" y2="59.02" gradientTransform="matrix(1, 0, 0, -1, 14.13, 103.32)" xlink:href="#bf"/><linearGradient id="bh" x1="31.24" y1="59.59" x2="31.24" y2="58.86" gradientTransform="matrix(1, 0, 0, -1, 14.13, 103.32)" gradientUnits="userSpaceOnUse"><stop offset="0" stop-color="#424242"/><stop offset="0.24" stop-color="#262626"/><stop offset="0.5" stop-color="#111"/><stop offset="0.75" stop-color="#040404"/><stop offset="0.98"/></linearGradient><linearGradient id="bi" x1="31.25" y1="59.69" x2="31.21" y2="58.36" gradientTransform="matrix(1, 0, 0, -1, 14.13, 103.32)" gradientUnits="userSpaceOnUse"><stop offset="0" stop-color="#424242"/><stop offset="0.16" stop-color="#363636"/><stop offset="0.44" stop-color="#161616"/><stop offset="0.6"/></linearGradient><linearGradient id="bj" x1="45.37" y1="46.83" x2="45.37" y2="47.16" xlink:href="#bf"/><linearGradient id="bk" x1="31.24" y1="59.63" x2="31.24" y2="59.13" gradientTransform="matrix(1, 0, 0, -1, 14.13, 103.32)" xlink:href="#bf"/><linearGradient id="bl" x1="31.23" y1="59.66" x2="31.25" y2="58.8" gradientTransform="matrix(1, 0, 0, -1, 14.13, 103.32)" gradientUnits="userSpaceOnUse"><stop offset="0" stop-color="#b5b5b5"/><stop offset="0.04" stop-color="#949494"/><stop offset="0.12" stop-color="#404040"/><stop offset="0.16" stop-color="#0d0d0d"/></linearGradient><radialGradient id="bm" cx="31.25" cy="59.25" r="0.21" gradientTransform="matrix(1, 0, 0, -1, 14.13, 103.32)" gradientUnits="userSpaceOnUse"><stop offset="0" stop-color="#949494"/><stop offset="0.25" stop-color="#5f5f5f"/><stop offset="0.67"/></radialGradient><linearGradient id="bn" x1="45.42" y1="47.19" x2="45.36" y2="46.91" gradientTransform="matrix(1, 0, 0, -1, 0.01, 96.64)" gradientUnits="userSpaceOnUse"><stop offset="0" stop-color="#949494"/><stop offset="0.2" stop-color="#5e5e5e"/><stop offset="0.42" stop-color="#2b2b2b"/><stop offset="0.58" stop-color="#0c0c0c"/><stop offset="0.67"/></linearGradient><linearGradient id="bo" x1="58.38" y1="48.22" x2="58.66" y2="46.24" gradientTransform="matrix(1, 0, 0, -1, 0.01, 96.64)" gradientUnits="userSpaceOnUse"><stop offset="0.51" stop-color="#384b74"/><stop offset="0.98" stop-color="#213152"/></linearGradient><linearGradient id="bp" x1="58.53" y1="46.48" x2="58.53" y2="47.69" xlink:href="#bo"/><linearGradient id="bq" x1="23.33" y1="60.4" x2="23.33" y2="59.44" gradientTransform="matrix(1, 0, 0, -1, 14.13, 103.32)" gradientUnits="userSpaceOnUse"><stop offset="0" stop-color="#b5b5b5"/><stop offset="0.21" stop-color="#949494"/><stop offset="0.66" stop-color="#404040"/><stop offset="0.98"/></linearGradient><linearGradient id="br" x1="22.52" y1="60.4" x2="22.52" y2="59.44" xlink:href="#bq"/><linearGradient id="bs" x1="21.72" y1="60.23" x2="21.72" y2="59.36" xlink:href="#bq"/><linearGradient id="bt" x1="20.91" y1="60.23" x2="20.91" y2="59.36" xlink:href="#bq"/><linearGradient id="bu" x1="31.23" y1="53.41" x2="31.23" y2="63.04" gradientTransform="matrix(1, 0, 0, -1, 14.13, 103.32)" gradientUnits="userSpaceOnUse"><stop offset="0" stop-color="#98a9c1"/><stop offset="0.66" stop-color="#b2c1d5"/><stop offset="0.93" stop-color="#b3c3d6"/><stop offset="0.96" stop-color="#b5c5d8"/><stop offset="0.97" stop-color="#bdccdd"/><stop offset="0.98" stop-color="#cbd7e7"/><stop offset="0.98" stop-color="#dee8f5"/><stop offset="0.99" stop-color="#ecf4ff"/><stop offset="0.99" stop-color="#dee7f2"/><stop offset="1" stop-color="#bbc4d1"/><stop offset="1" stop-color="#acb6c4"/></linearGradient></defs><title>men_3</title><g style="isolation:isolate"><path d="M35.33-2.94l-.41,1.24H34.4l1.33-3.93h.61l1.34,3.93h-.54l-.42-1.24Zm1.29-.4-.38-1.13c-.09-.26-.15-.49-.2-.72h0c-.06.23-.12.47-.2.71l-.38,1.14Z" transform="translate(0.01 5.64)"/><path d="M39.83-1.71l0-.36h0a1.05,1.05,0,0,1-.86.42A.8.8,0,0,1,38-2.45c0-.68.61-1.06,1.7-1v-.06a.58.58,0,0,0-.64-.65,1.41,1.41,0,0,0-.73.21l-.12-.34a1.75,1.75,0,0,1,.93-.25c.86,0,1.07.59,1.07,1.15v1.05a4,4,0,0,0,0,.68Zm-.08-1.44c-.56,0-1.2.09-1.2.64A.45.45,0,0,0,39-2a.7.7,0,0,0,.68-.47.53.53,0,0,0,0-.16Z" transform="translate(0.01 5.64)"/><path d="M42.63-1.71l0-.36h0a1.05,1.05,0,0,1-.86.42.8.8,0,0,1-.86-.81c0-.68.61-1.06,1.7-1v-.06a.58.58,0,0,0-.64-.65,1.41,1.41,0,0,0-.73.21l-.12-.34A1.75,1.75,0,0,1,42-4.59c.86,0,1.07.59,1.07,1.15v1.05a4,4,0,0,0,0,.68Zm-.08-1.44c-.56,0-1.2.09-1.2.64a.45.45,0,0,0,.48.49.7.7,0,0,0,.68-.47.53.53,0,0,0,0-.16Z" transform="translate(0.01 5.64)"/><path d="M45.44-1.71l0-.36h0a1.05,1.05,0,0,1-.86.42.8.8,0,0,1-.86-.81c0-.68.61-1.06,1.7-1v-.06a.58.58,0,0,0-.64-.65A1.41,1.41,0,0,0,44-4l-.12-.34a1.75,1.75,0,0,1,.93-.25c.86,0,1.07.59,1.07,1.15v1.05a4,4,0,0,0,0,.68Zm-.08-1.44c-.56,0-1.2.09-1.2.64a.45.45,0,0,0,.48.49.7.7,0,0,0,.68-.47.53.53,0,0,0,0-.16Z" transform="translate(0.01 5.64)"/><path d="M48.25-1.71l0-.36h0a1.05,1.05,0,0,1-.86.42.8.8,0,0,1-.86-.81c0-.68.61-1.06,1.7-1v-.06a.58.58,0,0,0-.64-.65,1.41,1.41,0,0,0-.73.21l-.12-.34a1.75,1.75,0,0,1,.93-.25c.86,0,1.07.59,1.07,1.15v1.05a4,4,0,0,0,0,.68Zm-.08-1.44c-.56,0-1.2.09-1.2.64a.45.45,0,0,0,.48.49.7.7,0,0,0,.68-.47.53.53,0,0,0,0-.16Z" transform="translate(0.01 5.64)"/><path d="M51.06-1.71l0-.36h0a1.05,1.05,0,0,1-.86.42.8.8,0,0,1-.86-.81c0-.68.61-1.06,1.7-1v-.06a.58.58,0,0,0-.64-.65A1.41,1.41,0,0,0,49.6-4l-.12-.34a1.75,1.75,0,0,1,.93-.25c.86,0,1.07.59,1.07,1.15v1.05a4,4,0,0,0,0,.68ZM51-3.15c-.56,0-1.2.09-1.2.64a.45.45,0,0,0,.48.49A.7.7,0,0,0,51-2.49a.53.53,0,0,0,0-.16Z" transform="translate(0.01 5.64)"/><path d="M52.18-2a.35.35,0,0,1,.35-.37.34.34,0,0,1,.34.37.34.34,0,0,1-.35.37A.34.34,0,0,1,52.18-2Z" transform="translate(0.01 5.64)"/><path d="M53.39-2a.35.35,0,0,1,.35-.37.34.34,0,0,1,.34.37.34.34,0,0,1-.35.37A.34.34,0,0,1,53.39-2Z" transform="translate(0.01 5.64)"/><path d="M54.6-2a.35.35,0,0,1,.35-.37.34.34,0,0,1,.34.37.34.34,0,0,1-.35.37A.34.34,0,0,1,54.6-2Z" transform="translate(0.01 5.64)"/><path d="M35.48,24.86c-5.34,1.3-9.33-3.67-6.93-9.51,1.27-3.09,7.9-5.33,7.9-5.33l-1-2.47S20.1,12.07,19.53,20.1A14,14,0,0,0,32.81,34.86,18,18,0,0,0,35.48,24.86Z" transform="translate(0.01 5.64)" style="fill:url(#a)"/><path d="M55.18,24.86c5.34,1.3,9.33-3.67,6.93-9.51-1.27-3.09-8-5.27-8-5.27l1-2.47s15.42,4.47,16,12.5A14,14,0,0,1,57.85,34.86,18,18,0,0,1,55.18,24.86Z" transform="translate(0.01 5.64)" style="fill:url(#b)"/><polygon points="41.34 27.2 40.45 31.05 45.34 33.46 50.11 30.99 49.63 27.68 41.34 27.2" style="fill:url(#c)"/><path d="M45.33,27.82l-5.91-2.16s-.51,2.1,0,7.17S43.3,43,45.33,44.31c2.61-1.73,5-5.81,5.91-11.49s0-7.17,0-7.17Z" transform="translate(0.01 5.64)" style="fill:url(#d)"/><polygon points="45.98 35.87 47.56 34.38 45.34 33.46 43.12 34.38 44.7 35.87 43.81 50.07 44.97 50.75 44.96 51.19 45.34 50.96 45.72 51.19 45.71 50.75 46.87 50.07 45.98 35.87" style="fill:url(#e)"/><path d="M45.52,60.13a3.76,3.76,0,0,1-.51.51c-2.28,1.86-5.9.07-9.79-.51a36.48,36.48,0,0,0-1-19.27c-1.4-4.63-2.35-7-1.78-10.38a11.18,11.18,0,0,1,3-5.62s1.33,1.73,2.35.86l1.59,7.1A17.48,17.48,0,0,0,41,39.31,18.66,18.66,0,0,0,45,44c.41.37.68.57.68.57a2.3,2.3,0,0,1,1.23.93C47.3,46.23,47.74,57.47,45.52,60.13Z" transform="translate(0.01 5.64)" style="fill:url(#f)"/><path d="M45.52,60.13a3.76,3.76,0,0,1-.51.51,3.75,3.75,0,0,1-.51-.51c-2.22-2.66-1.78-13.9-1.4-14.58S44.6,44.41,45,44c.41.37.68.57.68.57a2.3,2.3,0,0,1,1.23.93C47.3,46.23,47.74,57.47,45.52,60.13Z" transform="translate(0.01 5.64)" style="opacity:0.30000000000000004;mix-blend-mode:multiply;fill:url(#g)"/><path d="M52.83,25.72c1,.86,2.35-.86,2.35-.86a11.18,11.18,0,0,1,3,5.62c.57,3.34-.38,5.74-1.78,10.38a36.48,36.48,0,0,0-1,19.27c-4.19.62-8.07,2.66-10.3,0s-1.78-13.9-1.4-14.58,3.65-2,5.91-6.24a17.2,17.2,0,0,0,1.59-6.49Z" transform="translate(0.01 5.64)" style="fill:url(#h)"/><ellipse cx="44.96" cy="53.44" rx="0.52" ry="0.51" style="fill:#101221"/><path d="M45.45,44.37l-.12.06-.12-.06c-5.45-3-7.26-8.18-7.32-9.23s1.53-2.32,1.53-2.32-1.72-.93-2-1.79a14.52,14.52,0,0,1,.38-5.31c.38-.56,1.59-.06,1.59-.06C39,34.78,41.28,40,45.33,44.25Z" transform="translate(0.01 5.64)" style="fill:#486880"/><path d="M51.24,32.83s1.59,1.24,1.53,2.32-1.87,6.28-7.32,9.23l-.12.06-.12-.06.12-.12c4-4.2,6.28-9.47,5.91-18.59,0,0,1.21-.49,1.59.06A14.52,14.52,0,0,1,53.21,31C53,31.9,51.24,32.83,51.24,32.83Z" transform="translate(0.01 5.64)" style="fill:#486880"/><polygon points="45.34 33.46 40.26 30.25 39.43 31.3 42.16 35.87 45.34 33.46" style="fill:url(#i)"/><polygon points="45.34 33.46 50.42 30.25 51.25 31.3 48.52 35.87 45.34 33.46" style="fill:url(#j)"/><path d="M38.81,12.67s-1.48-.08-1.75.28a9.22,9.22,0,0,0,.24,3.7c.24.37,1.72.24,1.72.24Z" transform="translate(0.01 5.64)" style="fill:#e9bc83"/><path d="M51.62,12.67s1.47-.08,1.74.28a9.28,9.28,0,0,1-.24,3.7c-.24.37-1.71.24-1.71.24Z" transform="translate(0.01 5.64)" style="fill:#e9bc83"/><path d="M52.79,7c-.17.69-1,4.57-1,4.6h0c0,.21,0,.51-.05.89-.11,2.5-.15,8.13-1,9.48A3.7,3.7,0,0,1,50,23l-.26.24a7,7,0,0,1-2.46,1.42L47,24.7a5.6,5.6,0,0,1-1.51.21,6.29,6.29,0,0,1-1.84-.28l-.27-.09a8.37,8.37,0,0,1-2.44-1.35l-.3-.25a5.82,5.82,0,0,1-.77-.8L39.77,22c-.84-1.34-.88-7-1-9.48,0-.38,0-.69-.05-.89,0,0-.88-3.9-1-4.6s1.76-1.67,1.76-1.67S38,3,41.07,1.36A3.07,3.07,0,0,1,42.19,1a3.88,3.88,0,0,1,.51,0h0a8.83,8.83,0,0,1,3.52,1l.22.11A15.24,15.24,0,0,1,51,5.35S53,6.33,52.79,7Z" transform="translate(0.01 5.64)" style="fill:url(#k)"/><g style="opacity:0.5;mix-blend-mode:screen"><path d="M40.95,23.19l-.3-.25A30.3,30.3,0,0,1,40,15.67h.23A28.9,28.9,0,0,0,40.95,23.19Z" transform="translate(0.01 5.64)" style="fill:#a45c49"/><path d="M43.65,24.63l-.27-.09a23.7,23.7,0,0,1-1-8.6l.22,0A23.53,23.53,0,0,0,43.65,24.63Z" transform="translate(0.01 5.64)" style="fill:#a45c49"/><path d="M47.24,24.63,47,24.7c.12-1.58.47-6.8-.09-8.94l.22-.06C47.71,17.86,47.37,22.94,47.24,24.63Z" transform="translate(0.01 5.64)" style="fill:#a45c49"/><path d="M50,23l-.26.24a26.06,26.06,0,0,0-.12-7.35l.22,0A26.06,26.06,0,0,1,50,23Z" transform="translate(0.01 5.64)" style="fill:#a45c49"/></g><path d="M52.79,7c-.17.69-1,4.57-1,4.6h0c0,.21,0,.52-.06.89H38.78c0-.38,0-.69-.06-.89,0,0-.88-3.9-1-4.6s1.76-1.67,1.76-1.67S38,3,41.07,1.36A3.07,3.07,0,0,1,42.19,1h0a4,4,0,0,1,.51,0h0a8.86,8.86,0,0,1,3.52,1l.22.11A15.24,15.24,0,0,1,51,5.35S53,6.33,52.79,7Z" transform="translate(0.01 5.64)" style="fill:url(#l)"/><g style="opacity:0.5;mix-blend-mode:screen"><path d="M42.94,6.31l-.07.15c-1.65-.75-2.49-2-2.24-3.39a2.88,2.88,0,0,1,1.56-2h0a4,4,0,0,1,.51,0,2.73,2.73,0,0,0-1.91,2.1C40.56,4.39,41.37,5.59,42.94,6.31Z" transform="translate(0.01 5.64)" style="fill:#a45c49"/></g><g style="opacity:0.5;mix-blend-mode:screen"><path d="M47,6.28l-.05.15a2.67,2.67,0,0,1-1.71-3.32,1.67,1.67,0,0,1,1-1.16l.22.11a1.48,1.48,0,0,0-1.09,1.1A2.5,2.5,0,0,0,47,6.28Z" transform="translate(0.01 5.64)" style="fill:#a45c49"/></g><path d="M51,8.48l-.28-1.24A1.59,1.59,0,0,0,49.18,6s-3,.34-3.95.34S41.29,6,41.29,6A1.59,1.59,0,0,0,39.7,7.24l-.28,1.24a13.47,13.47,0,0,0,.09,6.25l.17.69a1.55,1.55,0,0,0,.7.94c.12.07,2.48-.23,4.88-.26s4.92.22,5.06.09a1.54,1.54,0,0,0,.46-.76l.17-.69A13.47,13.47,0,0,0,51,8.48Z" transform="translate(0.01 5.64)" style="fill:#e9bc83"/><path d="M50,10.19c.07.62-.41,4.58-.41,4.58l-4,.16-.33-4.13,1.18-2.19a2,2,0,0,1,2.11.2C49.94,9.59,50,10.19,50,10.19Z" transform="translate(0.01 5.64)" style="fill:url(#m)"/><path d="M40.53,10.19c-.07.62.41,4.58.41,4.58l4,.16.33-4.13L44,8.61a2,2,0,0,0-2.11.2C40.61,9.59,40.53,10.19,40.53,10.19Z" transform="translate(0.01 5.64)" style="fill:url(#n)"/><path d="M45.93,15.12c-.69-3.34,0-5.78.58-6.51L47,8l-3.06.43c.87.31,1.18,3.15.6,6.66-.48-.27-1.09,0-.92.47s1,.7,1.62.7,1.48-.33,1.62-.7S46.41,14.85,45.93,15.12Z" transform="translate(0.01 5.64)" style="fill:url(#o)"/><path d="M43.34,6.64a7.63,7.63,0,0,1,.7,2,6.16,6.16,0,0,0-3.51,1.58A3.46,3.46,0,0,1,40,9.3a2.81,2.81,0,0,1,.41-.87c.18.17.33.24.32.21a1.57,1.57,0,0,0-.17-.41,4.58,4.58,0,0,1,2.14-1.34l.53.54-.09-.71Z" transform="translate(0.01 5.64)" style="fill:url(#p)"/><path d="M52,16.21a1,1,0,0,0,.75-.34A9.07,9.07,0,0,0,53,13.44s-.67-.22-.84,0A9.75,9.75,0,0,0,52,16.21Z" transform="translate(0.01 5.64)" style="fill:url(#q)"/><path d="M38.43,16.21a1,1,0,0,1-.75-.34,9,9,0,0,1-.26-2.43s.68-.22.85,0A9.68,9.68,0,0,1,38.43,16.21Z" transform="translate(0.01 5.64)" style="fill:url(#r)"/><path d="M53,13.44s-.88-.34-1-.05A10.53,10.53,0,0,0,52,16.13v.08a18.25,18.25,0,0,1,.21-2.64A2.51,2.51,0,0,1,53,13.44Z" transform="translate(0.01 5.64)" style="fill:#b46a5b"/><path d="M37.41,13.44s.89-.34,1-.05a10.46,10.46,0,0,1,.07,2.74v.08a18.13,18.13,0,0,0-.21-2.64A2.55,2.55,0,0,0,37.41,13.44Z" transform="translate(0.01 5.64)" style="fill:#b46a5b"/><path d="M44.07,13.75a.28.28,0,0,1,0,.07v0a22.13,22.13,0,0,1-3-.13s0,0,0,0,0-.17,0-.26h0a1.29,1.29,0,0,1,.22-.78,4.24,4.24,0,0,1,2.53-1c.18,0,.28,1,.3,1.62,0,0,0,.08,0,.11A3.56,3.56,0,0,1,44.07,13.75Z" transform="translate(0.01 5.64)" style="fill:url(#s)"/><path d="M44.07,13.75a.28.28,0,0,1,0,.07v0a22.13,22.13,0,0,1-3-.13s0,0,0,0a1.2,1.2,0,0,1,0-.26h0a1,1,0,0,1,.46-.68,3.91,3.91,0,0,1,2.3-.65c.17,0,.26.63.29,1.14,0,0,0,.08,0,.11A2.77,2.77,0,0,1,44.07,13.75Z" transform="translate(0.01 5.64)" style="fill:#fff"/><ellipse cx="43.05" cy="13.07" rx="0.6" ry="0.59" transform="translate(-1.04 9.81) rotate(-5.49)" style="fill:url(#t)"/><path d="M47.21,6.64a7.63,7.63,0,0,0-.7,2A6.16,6.16,0,0,1,50,10.19a3.46,3.46,0,0,0,.52-.89,2.81,2.81,0,0,0-.41-.87c-.18.17-.33.24-.32.21A1.57,1.57,0,0,1,50,8.23a4.58,4.58,0,0,0-2.14-1.34l-.53.54.09-.71Z" transform="translate(0.01 5.64)" style="fill:url(#u)"/><path d="M49.52,13.74a1.33,1.33,0,0,0-.21-1.1,4.23,4.23,0,0,0-2.52-1c-.26,0-.36,2-.29,2.2A18.89,18.89,0,0,0,49.52,13.74Z" transform="translate(0.01 5.64)" style="fill:url(#v)"/><path d="M49.52,13.74a1,1,0,0,0-.45-1,3.89,3.89,0,0,0-2.3-.65c-.26,0-.42,1.62-.28,1.72C47,14.19,49.52,13.74,49.52,13.74Z" transform="translate(0.01 5.64)" style="fill:#fff"/><ellipse cx="47.5" cy="13.07" rx="0.59" ry="0.6" transform="translate(29.96 64.73) rotate(-84.51)" style="fill:url(#w)"/><path d="M47.37,20a.47.47,0,0,1,0,.15.57.57,0,0,1-.21.23,6.48,6.48,0,0,1-2.09.86c-.42.09-.75.1-.83,0a3,3,0,0,1-.16-.93v-.19c-.07-1.19,0-2.88.29-3.1a3.42,3.42,0,0,1,1.95-.32A5.28,5.28,0,0,1,47.23,19v0a5.72,5.72,0,0,1,.13.81A1.49,1.49,0,0,1,47.37,20Z" transform="translate(0.01 5.64)" style="fill:#4c1628"/><path d="M45.72,19.84c-1.59.54-1.51-1.76-1-2s.19,1,.77,1.06-.42-.9.19-1.26S47.19,19.35,45.72,19.84Z" transform="translate(0.01 5.64)" style="fill:#37121f"/><path d="M47.42,19.89l-.05.11a2.25,2.25,0,0,1-.23.37,6.48,6.48,0,0,1-2.09.86,2.18,2.18,0,0,1-.71-.32c.39-1.29,2.26-1.33,3-1.08Z" transform="translate(0.01 5.64)" style="fill:#cf5a73"/><path d="M47.37,20a.47.47,0,0,1,0,.15.57.57,0,0,1-.21.23,6.48,6.48,0,0,1-2.09.86c-.42.09-.75.1-.83,0a3,3,0,0,1-.16-.93c.89.75,3,.13,3.08-.78a1.42,1.42,0,0,1,.1-.45,5.72,5.72,0,0,1,.13.81A1.49,1.49,0,0,1,47.37,20Z" transform="translate(0.01 5.64)" style="fill:#fff"/><path d="M38.06,4.59a2.39,2.39,0,0,1-.43.33c-1.05.84-.86,3.18-.86,3.18l-.86.6-.19-.46-.14-.35a1.12,1.12,0,0,0,.27-.26,13.18,13.18,0,0,0,.13-2A1.85,1.85,0,0,1,37.85,4C38.38,4,38.34,4.31,38.06,4.59Z" transform="translate(0.01 5.64)" style="fill:url(#x)"/><path d="M37.69,5.51c-1,.74-.35,2.29-.48,3-.08.45-.63.67-1,.78l-.25-.61-.19-.46c.33-.23.71-.53.73-.67s-.09-2.07.73-2.75c.37-.3.7-.35.88-.24S38.24,5.1,37.69,5.51Z" transform="translate(0.01 5.64)" style="fill:#e9bc83"/><path d="M54.94,8.09l-.14.34-.19.45-.91-.64a6.87,6.87,0,0,0-.08-1.58,3,3,0,0,0-.54-1.36,1.45,1.45,0,0,0-.23-.23,2.44,2.44,0,0,1-.43-.33c-.28-.28-.31-.55.21-.59a1.85,1.85,0,0,1,1.87,1.67,13.21,13.21,0,0,0,.13,2A1.35,1.35,0,0,0,54.94,8.09Z" transform="translate(0.01 5.64)" style="fill:url(#y)"/><path d="M54.8,8.43l-.19.45-.24.59c-.43-.1-1-.32-1.11-.79a1.81,1.81,0,0,1,0-.38h0c0-.8.37-2-.47-2.65-.48-.36-.57-.7-.43-.86l.06-.06c.17-.11.51-.06.88.24.83.68.7,2.5.73,2.75S54.46,8.19,54.8,8.43Z" transform="translate(0.01 5.64)" style="fill:#e9bc83"/><path d="M51.18-14.51" transform="translate(0.01 5.64)" style="fill:none;stroke:#000;stroke-miterlimit:10;stroke-width:0.25px"/><path d="M93.13,90.44s-20.84,2.28-46.56,2.28S0,90.44,0,90.44s20.85-2.28,46.58-2.28S93.13,90.44,93.13,90.44Z" transform="translate(0.01 5.64)" style="fill:#dfdfdf"/><polygon points="36.08 84.63 35.92 86.23 54.77 85.64 54.6 84.71 36.08 84.63" style="fill:url(#z)"/><polygon points="36.17 72.08 33.73 95.91 34.82 95.91 38.36 72.33 36.17 72.08" style="fill:url(#aa)"/><polygon points="54.6 72.08 57.05 95.91 55.95 95.91 52.42 72.33 54.6 72.08" style="fill:url(#ab)"/><path d="M34.62,66.2h0a1,1,0,0,0,.94.85l19.14.46a1,1,0,0,0,1-1v-.23a1,1,0,0,0-1-.9l-19.12-.23a1,1,0,0,0-1,1Z" transform="translate(0.01 5.64)" style="fill:#683639"/><path d="M52.74,65.6a16.67,16.67,0,0,1-6.23-.51l-.76-3.87S52.49,63.07,52.74,65.6Z" transform="translate(0.01 5.64)" style="fill:url(#ac)"/><path d="M44.36,87.32l-.13,2.27.42.17S43.65,91,48,91.11a1.69,1.69,0,0,0-1.77-2.36,5.16,5.16,0,0,1-.55-1.14Z" transform="translate(0.01 5.64)" style="fill:#101221"/><path d="M35.4,58.44c-.59,3.87-.42,6.65,1.68,7.16a58.22,58.22,0,0,0,6.48.84l.38,21.26s2.4.46,2.4,0,2.78-18.94,2.53-22S44,61.32,44,61.32l.08-2.19Z" transform="translate(0.01 5.64)" style="fill:url(#ad)"/><path d="M44.91,45.73a25.52,25.52,0,0,1-4-10.89l-2.4-7.52,6.4.08s6.82.67,6.4.84-2.65,7.91-2.65,7.91S46.85,43.45,44.91,45.73Z" transform="translate(0.01 5.64)" style="fill:url(#ae)"/><path d="M46.46,41.21l.21,2.11a16.37,16.37,0,0,1-1.76,2.36,16.38,16.38,0,0,1-1.78-2.36l.21-2.16,1-10-1.6-1.52,2.19-2.36,2.2,2.45-1.6,1.52Z" transform="translate(0.01 5.64)" style="fill:url(#af)"/><path d="M44.91,45.73a16.38,16.38,0,0,1-1.78-2.41c-1.54-2.33-3.34-5.54-3.29-6.22a6.44,6.44,0,0,1,.59-2s-1.35.08-1.6-.51-1.43-7.41-1.43-7.41l1.52-1.35S41.39,35,43.34,41.18C43.95,43.1,44.5,44.72,44.91,45.73Z" transform="translate(0.01 5.64)" style="fill:#47677f"/><polygon points="34.93 58.88 34.91 59.76 38 60.3 38.12 59.51 34.93 58.88" style="fill:#202834"/><path d="M33.94,77.69a9.36,9.36,0,0,1-.71,2.63l-1-.31.11-.44a4.84,4.84,0,0,1-2.38.1,21.87,21.87,0,0,1-2.33-1.11,2.92,2.92,0,0,1,2.28-.78,7.39,7.39,0,0,1,2.44.67l.79-.84Z" transform="translate(0.01 5.64)" style="fill:#101221"/><path d="M30.13,77.6l1.1.88h.42L31,77.66Z" transform="translate(0.01 5.64)" style="fill:#6a6c76"/><polygon points="55.19 58.88 55.21 59.76 52.12 60.3 52 59.51 55.19 58.88" style="fill:#202834"/><path d="M46.13,62.48c-1.52,3.37-12,16.84-12,16.84L32.45,77.8s8.08-18.86,9.93-20.88,12,.17,13.13,2.69-.93,5.89-2.69,6C50.29,65.71,46.13,62.48,46.13,62.48Z" transform="translate(0.01 5.64)" style="fill:url(#ag)"/><path d="M46.26,88.16c-.13,0-1.35.29-1.35.29l.38.51,1.14-.42Z" transform="translate(0.01 5.64)" style="fill:#6a6c76"/><circle cx="45.46" cy="54.26" r="0.53"/><circle cx="45.43" cy="59.79" r="0.53" style="fill:#202834"/><path d="M40,26.42l4.88,1,5-1.35" transform="translate(0.01 5.64)" style="fill:url(#ah)"/><path d="M50,25.19c-.51.34-5,2.19-5,2.19l2.44,3.87,4-4Z" transform="translate(0.01 5.64)" style="fill:url(#ai)"/><path d="M38.68,25.1l1.35.51" transform="translate(0.01 5.64)" style="fill:#e5be98"/><path d="M52.4,27.21S51.22,34,51,34.62s-1.6.51-1.6.51a6.44,6.44,0,0,1,.59,2c.06.69-1.75,3.89-3.29,6.22a16.37,16.37,0,0,1-1.76,2.36c.41-1,1-2.62,1.56-4.52,2-6.21,4.42-15.35,4.42-15.35Z" transform="translate(0.01 5.64)" style="fill:#47677f"/><path d="M39.86,25.19c.51.34,5,2.19,5,2.19l-2.44,3.87-4-4Z" transform="translate(0.01 5.64)" style="fill:url(#aj)"/><path d="M71.45,42.76c-1.17-4-.66-6-.19-7.35a11.05,11.05,0,0,0-1.13,7,9.31,9.31,0,0,0,.82,2.66Z" transform="translate(0.01 5.64)" style="fill:url(#ak)"/><path d="M72.59,36.68a20,20,0,0,1-.09,5.07l-.63.23a8,8,0,0,1,0-2.51A10.34,10.34,0,0,0,72.59,36.68Z" transform="translate(0.01 5.64)" style="fill:url(#al)"/><path d="M71.86,42c1.8-2.23,1.57-5.64,1.76-5.61.69,2.2-.54,5.76-.94,7a5.65,5.65,0,0,0-.35,2L71.54,45Z" transform="translate(0.01 5.64)" style="fill:url(#am)"/><path d="M70.22,45c.16-2.18,1.17-1.72,1.26-3.92a30.29,30.29,0,0,0,0-3.61s.6.49.63,4.1-1,4.28-1,4.28Z" transform="translate(0.01 5.64)" style="fill:url(#an)"/><path d="M70.66,44.86a20.28,20.28,0,0,1-2.71-6.15,10.28,10.28,0,0,0,1.54,6.23C70.44,45.7,70.66,44.86,70.66,44.86Z" transform="translate(0.01 5.64)" style="fill:url(#ao)"/><path d="M69.66,44.83a13,13,0,0,0-2.83-4A24.24,24.24,0,0,1,69,45.08C69.78,45.78,69.66,44.83,69.66,44.83Z" transform="translate(0.01 5.64)" style="fill:url(#ap)"/><path d="M70.85,44.32a22,22,0,0,1-1.61-8.12,20.34,20.34,0,0,0,1.17,8.86C71.13,45.32,70.85,44.32,70.85,44.32Z" transform="translate(0.01 5.64)" style="fill:url(#aq)"/><path d="M73.23,45.32a15.29,15.29,0,0,1,2-6.39,19.19,19.19,0,0,0-3.08,6c-.43,1.83.17.74.17.74Z" transform="translate(0.01 5.64)" style="fill:url(#ar)"/><path d="M73.43,45.32a15.7,15.7,0,0,1,2-3.46A9.43,9.43,0,0,0,73.3,44.7C72.71,46,73.43,45.32,73.43,45.32Z" transform="translate(0.01 5.64)" style="fill:url(#as)"/><path d="M75.28,40.79c-1.41-.13-2.52,4.59-2.52,4.59l.37-.06S74.29,41.38,75.28,40.79Z" transform="translate(0.01 5.64)" style="fill:url(#at)"/><path d="M74.78,44.61a18.65,18.65,0,0,1-.17,2v.32c0,.1-.08.45-.12.66l-.11.46a8.59,8.59,0,0,1-.63,1.75,1.06,1.06,0,0,1-1,.66H70a1.06,1.06,0,0,1-1-.66,8,8,0,0,1-.51-1.48c-.09-.33-.17-.67-.24-1s-.08-.43-.11-.65,0-.39-.07-.58c0-.47-.08-1-.1-1.43Z" transform="translate(0.01 5.64)" style="fill:url(#au)"/><path d="M68.28,47.32l6.17.28-.11.46-5.83.26C68.42,48,68.34,47.63,68.28,47.32Z" transform="translate(0.01 5.64)" style="fill:#caa97f;opacity:0.30000001192092896;isolation:isolate"/><path d="M74.62,46.57v.32l-6.49-.27a2.46,2.46,0,0,0-.07-.58Z" transform="translate(0.01 5.64)" style="fill:#caa97f;opacity:0.30000001192092896;isolation:isolate"/><path d="M14.19,46.17s-1.73-1.16-2.06-.85,0,3.53.26,4,2.09-.58,2.09-.58V48.4a3,3,0,0,1-1.44.29c-.47-.15-.44-2.71-.17-2.71a9,9,0,0,1,1.5.58Z" transform="translate(0.01 5.64)" style="fill:#b13d55"/><path d="M14.39,50.48l-.79-6a8.88,8.88,0,0,1,6,0c-.41,1.28-1.08,5.84-1.08,5.84Z" transform="translate(0.01 5.64)" style="fill:url(#av)"/><path d="M16.47,43s-1.84-.63-1.68-1.47,1.39-.65,1.79-1.06-.89-1.6-.89-1.6,2.44.7,2.44,1.82-1.92.68-2.32,1S16.47,43,16.47,43Z" transform="translate(0.01 5.64)" style="fill:#cac9db"/><polygon points="9.54 57.09 6.42 96.13 6.9 96.13 11.59 57.09 9.54 57.09" style="fill:url(#aw)"/><polygon points="17.59 57.09 20.72 96.13 20.24 96.13 15.55 57.09 17.59 57.09" style="fill:url(#ax)"/><polygon points="71.09 57.09 67.96 96.13 68.45 96.13 73.13 57.09 71.09 57.09" style="fill:url(#ay)"/><polygon points="79.14 57.09 82.26 96.13 81.78 96.13 77.1 57.09 79.14 57.09" style="fill:url(#az)"/><rect x="7.89" y="55.92" width="73.07" height="1.64" style="fill:#232436"/><path d="M59.8,25.32H30.94a.31.31,0,0,0-.31.31V45.15a.32.32,0,0,0,.32.32H59.79a.32.32,0,0,0,.32-.32V25.63a.31.31,0,0,0-.31-.31Z" transform="translate(0.01 5.64)" style="fill:#b5b5b5"/><path d="M45.36,42.43h0a1,1,0,0,1,1,1V45a1,1,0,0,1-1,1h0a1,1,0,0,1-1-1v-1.6A1,1,0,0,1,45.36,42.43Z" transform="translate(0.01 5.64)" style="fill:url(#ba)"/><rect x="41.89" y="55.36" width="6.97" height="0.09" style="fill:#5c636d"/><rect x="41.89" y="55.16" width="6.97" height="0.21" style="fill:url(#bb)"/><rect x="41.89" y="55.44" width="6.97" height="0.23" style="fill:url(#bc)"/><path d="M42.79,50.18H42a.15.15,0,0,1-.15-.15h1.06a.15.15,0,0,1-.15.15Z" transform="translate(0.01 5.64)" style="fill:url(#bd)"/><path d="M48.69,50.18h-.75a.15.15,0,0,1-.15-.15h1.06a.15.15,0,0,1-.15.15Z" transform="translate(0.01 5.64)" style="fill:url(#be)"/><circle cx="45.39" cy="49.69" r="0.16" style="fill:url(#bf)"/><path d="M45.37,43.62a.42.42,0,1,0,.42.42.42.42,0,0,0-.42-.42Zm0,.74a.32.32,0,1,1,.32-.32h0a.32.32,0,0,1-.32.28Z" transform="translate(0.01 5.64)" style="fill:url(#bg)"/><path d="M45.37,43.73a.32.32,0,1,0,.32.32h0A.32.32,0,0,0,45.37,43.73Zm0,.54a.22.22,0,1,1,.22-.22h0A.22.22,0,0,1,45.37,44.27Z" transform="translate(0.01 5.64)" style="fill:url(#bh)"/><path d="M45.37,44.38a.33.33,0,1,1,.33-.33h0A.33.33,0,0,1,45.37,44.38Zm0-.64a.31.31,0,1,0,.31.31h0a.31.31,0,0,0-.31-.31Zm0,.1a.21.21,0,1,0,.21.21h0a.21.21,0,0,0-.21-.21Z" transform="translate(0.01 5.64)" style="fill:url(#bi)"/><circle cx="45.38" cy="49.69" r="0.17" style="fill:url(#bj)"/><path d="M45.37,43.83a.22.22,0,1,0,.22.22h0A.22.22,0,0,0,45.37,43.83Zm0,.37a.15.15,0,1,1,.15-.15h0A.15.15,0,0,1,45.37,44.2Z" transform="translate(0.01 5.64)" style="fill:url(#bk)"/><path d="M45.37,44.32a.23.23,0,1,1,.23-.23h0A.23.23,0,0,1,45.37,44.32Zm0-.44a.21.21,0,1,0,.21.21h0a.21.21,0,0,0-.17-.25h0Zm0,.37a.16.16,0,1,1,.16-.16h0a.16.16,0,0,1-.16.12Zm0-.3a.14.14,0,1,0,.14.14h0a.14.14,0,0,0-.08-.18h-.06Z" transform="translate(0.01 5.64)" style="fill:url(#bl)"/><path d="M45.47,44.07h0a.14.14,0,0,0-.26,0h0a.16.16,0,0,0,.13.09.17.17,0,0,0,.14-.08h0Z" transform="translate(0.01 5.64)" style="fill:url(#bm)"/><circle cx="45.38" cy="49.69" r="0.07" style="fill:url(#bn)"/><circle cx="58.54" cy="49.5" r="0.45" style="fill:url(#bo)"/><circle cx="58.54" cy="49.51" r="0.44" style="fill:url(#bp)"/><path d="M58.59,43.68h0a.19.19,0,1,1-.15,0h0a.22.22,0,1,0,.18,0Z" transform="translate(0.01 5.64)" style="fill:#b9c9dd"/><path d="M58.53,43.83h0v-.21h0v.21Z" transform="translate(0.01 5.64)" style="fill:#b9c9dd"/><path d="M46.26,31.43a1.2,1.2,0,0,1-.7.36,1,1,0,0,1,.87-1.11h.06A1.2,1.2,0,0,1,46.26,31.43Z" transform="translate(0.01 5.64)" style="fill:#d6d7d8"/><path d="M46.85,33.26a.9.9,0,0,1,.49-.84A1.09,1.09,0,0,0,47,32c-.59-.33-.85.07-1.31.07s-.72-.4-1.31-.07a1.56,1.56,0,0,0-.65,1.41,2.24,2.24,0,0,0,1,1.91c.26.13.6-.11.92-.13s.66.26.92.13a2,2,0,0,0,.93-1.21A.85.85,0,0,1,46.85,33.26Z" transform="translate(0.01 5.64)" style="fill:#e3e4e5"/><path d="M37.46,44.32h0a.08.08,0,0,1-.08-.08v-.66a.08.08,0,0,1,.08-.08h0a.08.08,0,0,1,.08.08v.66A.08.08,0,0,1,37.46,44.32Z" transform="translate(0.01 5.64)" style="fill:url(#bq)"/><path d="M36.65,44.32h0a.08.08,0,0,1-.08-.08v-.66a.08.08,0,0,1,.08-.08h0a.08.08,0,0,1,.08.08v.66A.08.08,0,0,1,36.65,44.32Z" transform="translate(0.01 5.64)" style="fill:url(#br)"/><path d="M35.85,44.32h0a.08.08,0,0,1-.08-.08v-.66a.08.08,0,0,1,.08-.08h0a.08.08,0,0,1,.08.08v.66A.08.08,0,0,1,35.85,44.32Z" transform="translate(0.01 5.64)" style="fill:url(#bs)"/><path d="M35,44.32h0a.08.08,0,0,1-.08-.08v-.66A.08.08,0,0,1,35,43.5h0a.08.08,0,0,1,.08.08v.66A.08.08,0,0,1,35,44.32Z" transform="translate(0.01 5.64)" style="fill:url(#bt)"/><path d="M48.58,40.32H42.13a.27.27,0,0,0-.27.27h0v9.49h7V40.54A.27.27,0,0,0,48.58,40.32ZM46,44.82a.68.68,0,0,1-.68.68h0a.68.68,0,0,1-.68-.68h0V43.69a.68.68,0,0,1,.68-.68h0a.68.68,0,0,1,.68.68h0Z" transform="translate(0.01 5.64)" style="fill:url(#bu)"/><path d="M54.06,48.56" transform="translate(0.01 5.64)" style="fill:#e5be98"/></g></svg>