<?xml version="1.0" encoding="utf-8"?>

<svg version="1.1" id="men_price_1" xmlns="http://www.w3.org/2000/svg" xmlns:xlink="http://www.w3.org/1999/xlink" x="0px" y="0px"
	 viewBox="-3270.6 -4487.8 7150.4 9770.3" enable-background="new -3270.6 -4487.8 7150.4 9770.3" xml:space="preserve">
<g>
	<g>
		<g>
			
				<radialGradient id="SVGID_1_" cx="2233.6309" cy="734.8365" r="16.6043" gradientTransform="matrix(-9.4154 0 0 -9.3871 24523.5742 7621.7026)" gradientUnits="userSpaceOnUse">
				<stop  offset="0" style="stop-color:#B37562"/>
				<stop  offset="0.2" style="stop-color:#BB816B"/>
				<stop  offset="0.5644" style="stop-color:#D1A283"/>
				<stop  offset="0.8279" style="stop-color:#E4BE97"/>
			</radialGradient>
			<path fill="url(#SVGID_1_)" d="M3392.4,884.7c0,0-76.3-50.8-119.6-137.5c-43.3-86.6,34.8-202.4,83.8-159.1
				c49.9,43.3-29.2,72.5-21.7,118.6c7.5,46.1,45.2,111.1,95.1,113.9c49,2.8,98.9-121.5,101.7-178.9s-130.9-0.9-165.7-55.6
				c-34.8-54.6,66.8-142.2,177-69.7c110.2,72.5,0,292.8,0,292.8S3511,876.2,3392.4,884.7z"/>
			
				<radialGradient id="SVGID_2_" cx="2201.939" cy="734.4106" r="34.1556" gradientTransform="matrix(-9.4154 0 0 -9.3871 24523.5742 7621.7026)" gradientUnits="userSpaceOnUse">
				<stop  offset="0" style="stop-color:#B37562"/>
				<stop  offset="0.2" style="stop-color:#BB816B"/>
				<stop  offset="0.5644" style="stop-color:#D1A283"/>
				<stop  offset="0.8279" style="stop-color:#E4BE97"/>
			</radialGradient>
			<path fill="url(#SVGID_2_)" d="M3392.4,884.7c1.9-2.8,5.6-4.7,9.4-5.6c145-80,210-274.9,220.3-435.9
				c10.4-164.8,108.3-242.9,101.7,0c-5.6,213.7-96,391.7-244.8,475.5c23.5,25.4,41.4,61.2,36.7,100.7
				C3373.5,1039.1,3369.8,912.9,3392.4,884.7z"/>
			
				<radialGradient id="SVGID_3_" cx="2185.3594" cy="723.591" r="48.6821" gradientTransform="matrix(-9.4154 0 0 -9.3871 24523.5742 7621.7026)" gradientUnits="userSpaceOnUse">
				<stop  offset="0" style="stop-color:#B37562"/>
				<stop  offset="0.2" style="stop-color:#BB816B"/>
				<stop  offset="0.5644" style="stop-color:#D1A283"/>
				<stop  offset="0.8279" style="stop-color:#E4BE97"/>
			</radialGradient>
			<path fill="url(#SVGID_3_)" d="M3436.6,922.3c156.3-62.1,256.1-296.6,280.6-459.5c24.5-162.9,128-232.6,100.7,8.5
				c-27.3,242-177,478.3-362.5,513.1C3415.9,976.9,3436.6,922.3,3436.6,922.3z"/>
			<path fill="#E4BE97" d="M3460.2,962.8c162.9-43.3,261.7-199.6,305.1-358.7s154.4-216.6,99.8,19.8s-205.3,387.9-392.6,402
				C3433.8,1014.6,3460.2,962.8,3460.2,962.8z"/>
		</g>
		<polygon fill="#E9E8E2" points="3311.4,971.3 3386.7,881.8 3538.3,1046.6 3450.7,1130.4 		"/>
		<g>
			
				<radialGradient id="SVGID_4_" cx="-306.324" cy="735.173" r="16.6043" gradientTransform="matrix(9.4154 0 0 -9.3871 -5.094956e-004 7621.7026)" gradientUnits="userSpaceOnUse">
				<stop  offset="0" style="stop-color:#B37562"/>
				<stop  offset="0.2" style="stop-color:#BB816B"/>
				<stop  offset="0.5644" style="stop-color:#D1A283"/>
				<stop  offset="0.8279" style="stop-color:#E4BE97"/>
			</radialGradient>
			<path fill="url(#SVGID_4_)" d="M-2783.2,881.8c0,0,76.3-50.8,119.6-137.5c43.3-86.6-34.8-202.4-83.8-159.1
				c-49.9,43.3,29.2,72.5,21.7,118.6c-7.5,46.1-45.2,111.1-95.1,113.9c-49,2.8-98.9-121.5-101.7-178.9s130.9-0.9,165.7-55.6
				c34.8-54.6-66.8-142.2-177-69.7c-110.2,72.5,0,292.8,0,292.8S-2902.8,873.4-2783.2,881.8z"/>
			
				<radialGradient id="SVGID_5_" cx="-338.0158" cy="734.7471" r="34.1556" gradientTransform="matrix(9.4154 0 0 -9.3871 -5.094956e-004 7621.7026)" gradientUnits="userSpaceOnUse">
				<stop  offset="0" style="stop-color:#B37562"/>
				<stop  offset="0.2" style="stop-color:#BB816B"/>
				<stop  offset="0.5644" style="stop-color:#D1A283"/>
				<stop  offset="0.8279" style="stop-color:#E4BE97"/>
			</radialGradient>
			<path fill="url(#SVGID_5_)" d="M-2783.2,881.8c-1.9-2.8-5.6-4.7-9.4-5.6c-145-80-210-274.9-220.3-435.9
				c-10.4-164.8-108.3-242.9-101.7,0c5.6,213.7,96,391.7,244.8,475.5c-23.5,25.4-41.4,61.2-36.7,100.7
				C-2764.4,1035.3-2761.5,910.1-2783.2,881.8z"/>
			
				<radialGradient id="SVGID_6_" cx="-354.5956" cy="723.9275" r="48.6821" gradientTransform="matrix(9.4154 0 0 -9.3871 -5.094956e-004 7621.7026)" gradientUnits="userSpaceOnUse">
				<stop  offset="0" style="stop-color:#B37562"/>
				<stop  offset="0.2" style="stop-color:#BB816B"/>
				<stop  offset="0.5644" style="stop-color:#D1A283"/>
				<stop  offset="0.8279" style="stop-color:#E4BE97"/>
			</radialGradient>
			<path fill="url(#SVGID_6_)" d="M-2827.4,919.5c-156.3-62.1-256.1-296.6-280.6-459.5c-24.5-162.9-128-232.6-100.7,8.5
				c27.3,241,177,477.4,362.5,513.1C-2806.7,974.1-2827.4,919.5-2827.4,919.5z"/>
			<path fill="#E4BE97" d="M-2851,960c-162.9-43.3-261.7-199.6-305.1-358.7s-154.4-216.6-99.8,19.8
				c54.6,236.3,205.3,387.9,392.6,402C-2824.6,1011.8-2851,960-2851,960z"/>
		</g>
		<polygon fill="#E9E8E2" points="-2707.9,971.3 -2783.2,881.8 -2933.8,1046.6 -2847.2,1130.4 		"/>
		
			<linearGradient id="SVGID_7_" gradientUnits="userSpaceOnUse" x1="31.2418" y1="1002.307" x2="37.8032" y2="917.0094" gradientTransform="matrix(9.4154 0 0 -9.4154 -5.094956e-004 7546.9834)">
			<stop  offset="0.1721" style="stop-color:#E4BE97"/>
			<stop  offset="0.4356" style="stop-color:#D1A283"/>
			<stop  offset="0.8" style="stop-color:#BB816B"/>
			<stop  offset="1" style="stop-color:#B37562"/>
		</linearGradient>
		<path fill="url(#SVGID_7_)" d="M-145.9-1613.2l86.6-551.7l705.2,4.7l130.9,546.1c0,0-251.4,187.4-473.6,187.4
			C81.9-1425.9-145.9-1613.2-145.9-1613.2z"/>
		<path fill="#E6E5E1" d="M912.4-1450.4l-611.1-126.2l-611.1,126.2l-239.2,172.3l185.5,3447.9c0,0,531,26.4,663.8,26.4
			s663.8-26.4,663.8-26.4l185.5-3447.9L912.4-1450.4z"/>
		
			<radialGradient id="SVGID_8_" cx="32.5093" cy="790.7141" r="134.6544" gradientTransform="matrix(9.4154 0 0 -9.3871 -5.094956e-004 7621.7026)" gradientUnits="userSpaceOnUse">
			<stop  offset="5.909090e-002" style="stop-color:#B73F51"/>
			<stop  offset="0.8831" style="stop-color:#CA465A"/>
			<stop  offset="1" style="stop-color:#CD475B"/>
		</radialGradient>
		<path fill="url(#SVGID_8_)" d="M379.4-1312.9l113.9-65.9c0,0-28.2-202.4-192.1-196.8s-194,158.2-194,158.2l136.5,90.4L91.3,1818.7
			L323.9,1974L519.7,1814L379.4-1312.9z"/>
		
			<radialGradient id="SVGID_9_" cx="35.0068" cy="556.0784" r="164.1141" gradientTransform="matrix(9.4154 0 0 -9.3871 -5.094956e-004 7621.7026)" gradientUnits="userSpaceOnUse">
			<stop  offset="0" style="stop-color:#24304A"/>
			<stop  offset="0.6858" style="stop-color:#38465E"/>
			<stop  offset="1" style="stop-color:#425168"/>
		</radialGradient>
		<path fill="url(#SVGID_9_)" d="M2505.4,2648.2c-59.3-369.1-1015-405.8-1015-405.8H302.2H-886c0,0-955.7,35.8-1015,405.8
			c-59.3,369.1,634.6,481.1,1230.6,428.4c595.1-52.7,973.6-52.7,973.6-52.7s377.6,0,973.6,52.7
			C1869.9,3129.3,2564.8,3017.2,2505.4,2648.2z"/>
		<path fill="#1F2631" d="M1183.5,2113.4c0,0-438.8,36.7-881.3,36.7s-882.2-36.7-882.2-36.7l-45.2,131.8c0,0,458.5,52.7,926.5,52.7
			c468.9,0,926.5-52.7,926.5-52.7L1183.5,2113.4z"/>
		<path fill="#425168" d="M-26.4,870.5c-22.6,561.2-106.4,1062.1-161,1337.9c-30.1,152.5-180.8,252.3-333.3,216.6
			c-106.4-25.4-233.5-77.2-366.3-181.7c225-218.4,305.1-1012.2,178.9-1554.5c-178.9,833.3-550.8,1501.8-1055.5,1482
			C-2268.2,2151-2899,1111.6-2899,1111.6l165.7-178.9c0,0,536.7,419.9,968.8,201.5C-1333.2,915.7-1240-828-1240-828
			s286.2-174.2,494.3-354c96-82.9,175.1-166.7,202.4-235.4C-81-839.3,6.6,75.9-26.4,870.5z"/>
		<polygon fill="#27303B" points="-469.8,1903.4 -743.8,1851.6 -762.6,1938.2 -521.6,2052.2 		"/>
		<path fill="#425168" d="M629.9,870.5c23.5,561.2,106.4,1062.1,161,1337.9C821,2361,971.7,2460.8,1124.2,2425
			c106.4-25.4,233.5-77.2,366.3-181.7c-225-218.4-305.1-1012.2-178.9-1554.5c178.9,833.3,550.8,1501.8,1055.5,1482
			c504.7-19.8,1135.5-1059.2,1135.5-1059.2l-165.7-178.9c0,0-536.7,419.9-968.8,201.5C1936.7,915.7,1843.5-828,1843.5-828
			s-286.2-174.2-494.3-354c-96-82.9-175.1-166.7-202.4-235.4C684.5-839.3,596.9,75.9,629.9,870.5z"/>
		<ellipse fill="#27303B" cx="790" cy="1214.2" rx="50.8" ry="50.8"/>
		<ellipse fill="#27303B" cx="845.5" cy="1710.4" rx="50.8" ry="50.8"/>
		<polygon fill="#27303B" points="1110.1,1931.6 1384.1,1880.8 1402.9,1967.4 1160.9,2080.4 		"/>
		
			<radialGradient id="SVGID_10_" cx="80.842" cy="377.7474" r="165.2754" gradientTransform="matrix(9.4154 0 0 -9.3871 -5.094956e-004 7621.7026)" gradientUnits="userSpaceOnUse">
			<stop  offset="0" style="stop-color:#24304A"/>
			<stop  offset="0.6858" style="stop-color:#38465E"/>
			<stop  offset="1" style="stop-color:#425168"/>
		</radialGradient>
		<path fill="url(#SVGID_10_)" d="M2505.4,2648.2C2577.9,3116.1,955.7,3505-9.4,3557.7c-39.5-72.5-52.7-191.1-52.7-191.1
			s1469.7-612.9,1780.4-777.7S2505.4,2648.2,2505.4,2648.2z"/>
		<g>
			<path fill="#101221" d="M48,3392c-87.6-5.6-258.9,19.8-258.9,19.8l-10.4,102.6l44.3,6.6c0,0-95.1,116.8-98.9,210.9
				c-4.7,94.2,12.2,252.3,12.2,252.3s115.8-44.3,157.2-177c40.5-131.8,31.1-244.8,31.1-244.8l117.7-80L48,3392z"/>
			<path fill="#6A6C76" d="M-81.9,3791.2c-4.7-14.1-37.7-131.8-37.7-131.8l12.2-39.5l49.9,87.6L-81.9,3791.2z"/>
		</g>
		<g>
			<path fill="#E4BE97" d="M-400.2-3071.7c0,0-240.1-9.4-283.4,34.8c-43.3,44.3,0,403.9,38.6,448.2c38.6,44.3,277.8,29.2,277.8,29.2
				L-400.2-3071.7z"/>
			<path fill="#E4BE97" d="M1053.6-3075.5c0,0,240.1-10.4,282.5,33.9c43.3,44.3,0,403.9-38.6,449.1
				c-38.6,44.3-277.8,30.1-277.8,30.1L1053.6-3075.5z"/>
			
				<linearGradient id="SVGID_11_" gradientUnits="userSpaceOnUse" x1="3268.4141" y1="1232.4291" x2="3270.5085" y2="1048.1248" gradientTransform="matrix(9.4154 -1.035692e-002 -1.035692e-002 -9.4154 -30427.3242 8471.4688)">
				<stop  offset="0.2311" style="stop-color:#7D5D4C"/>
				<stop  offset="0.8109" style="stop-color:#452723"/>
			</linearGradient>
			<path fill="url(#SVGID_11_)" d="M1192.9-3760.9c-18.8,83.8-119.6,554.6-120.5,557.4l0,0c-2.8,25.4-4.7,62.1-6.6,108.3
				c-12.2,303.2-17.9,985.8-113.9,1149.6c-29.2,49.9-93.2,88.5-174.2,117.7c-7.5,2.8-15.1,4.7-22.6,7.5
				c-49.9,16-106.4,29.2-163.8,39.5c-88.5,15.1-181.7,22.6-266.5,25.4c-7.5,0-15.1,0-22.6-0.9c-6.6,0-13.2,0-19.8-0.9
				c-72.5-2.8-149.7-10.4-224.1-22.6c-57.4-9.4-113.9-22.6-163.8-38.6c-7.5-1.9-15.1-4.7-22.6-7.5c-81-28.2-144.1-66.8-174.2-116.8
				c-96-162.9-100.7-845.5-113-1148.7c-1.9-46.1-3.8-82.9-6.6-108.3c0,0-100.7-472.7-119.6-556.4
				c-18.8-83.8,201.5-202.4,201.5-202.4s-164.8-282.5,187.4-484c38.6-22.6,81.9-35.8,128-41.4l0,0c18.8-2.8,38.6-3.8,58.4-3.8l0,0
				c125.2,0.9,267.4,48,403,113.9c8.5,3.8,16.9,8.5,25.4,13.2c251.4,129,475.5,320.1,527.3,397.3
				C991.4-3962.4,1211.8-3844.7,1192.9-3760.9z"/>
			
				<linearGradient id="SVGID_12_" gradientUnits="userSpaceOnUse" x1="3267.7366" y1="1376.46" x2="3267.7366" y2="1199.0673" gradientTransform="matrix(9.4154 -1.035692e-002 -1.035692e-002 -9.4154 -30427.3242 8471.4688)">
				<stop  offset="0.1632" style="stop-color:#7D5D4C"/>
				<stop  offset="0.8248" style="stop-color:#452723"/>
			</linearGradient>
			<path fill="url(#SVGID_12_)" d="M1192.9-3760.9c-18.8,83.8-119.6,554.6-120.5,557.4l0,0c-2.8,25.4-4.7,62.1-6.6,108.3
				l-1480.1,3.8c-1.9-46.1-3.8-82.9-6.6-108.3c0,0-100.7-472.7-119.6-556.4C-559.3-3840-339-3958.6-339-3958.6
				s-164.8-282.5,187.4-484c38.6-22.6,81.9-35.8,128-41.4l0,0c18.8-2.8,38.6-3.8,58.4-3.8l0,0c125.2,0.9,267.4,48,403,113.9
				c8.5,3.8,16.9,8.5,25.4,13.2c251.4,129,475.5,320.1,527.3,397.3C991.4-3962.4,1211.8-3844.7,1192.9-3760.9z"/>
			<g opacity="0.5">
				<path fill="#9E645E" d="M-103.6-1818.5c-7.5-1.9-15.1-4.7-22.6-7.5c-47.1-168.5-99.8-569.6-65.9-801.2l18.8,2.8
					C-207.1-2388.1-151.6-1974.8-103.6-1818.5z"/>
			</g>
			<g opacity="0.5">
				<path fill="#9E645E" d="M757-1820.4c7.5-2.8,15.1-4.7,22.6-7.5c47.1-168.5,99.8-569.6,65.9-802.2l-18.8,2.8
					C860.6-2391,804.1-1977.6,757-1820.4z"/>
			</g>
			<g opacity="0.5">
				<path fill="#9E645E" d="M64-3844.7l-7.5,17.9c-189.2-90.4-285.3-243.9-257-409.6C-182.7-4343.7-113-4436-21.7-4484l0,0
					c18.8-2.8,38.6-3.8,58.4-3.8c-110.2,34.8-198.7,134.6-218.4,254.2C-208.1-4076.3-115.8-3931.3,64-3844.7z"/>
			</g>
			<g opacity="0.5">
				<path fill="#9E645E" d="M523.5-3849.4l-5.6,18.8c-176.1-58.4-238.2-254.2-195.8-402c20.7-72.5,63.1-121.5,117.7-141.2
					c8.5,3.8,16.9,8.5,25.4,13.2c-65.9,13.2-106.4,72.5-124.3,133.7C300.4-4087.6,358.7-3904,523.5-3849.4z"/>
			</g>
			<g opacity="0.5">
				<path fill="#9E645E" d="M303.2-1757.3c-6.6,0-13.2,0-19.8-0.9c-10.4-91.3-27.3-376.6-15.1-613.9l18.8,0.9
					C274.9-2132,292.8-1845.8,303.2-1757.3z"/>
			</g>
			<path fill="#E4BE97" d="M992.4-3582.9l-32-149.7c-18.8-87.6-95.1-149.7-181.7-147.8c0,0-338,42.4-451.9,43.3
				c-113.9,0-451.9-40.5-451.9-40.5c-87.6-0.9-163.8,61.2-181.7,148.8l-32,149.7c-52.7,250.4-49.9,509.4,9.4,757l19.8,82.9
				c19.8,82.9,91.3,141.2,175.1,143.1c108.3,0.9,261.7,2.8,395.4,2.8c20.7,0,42.4,0,65,0c22.6,0,45.2,0,65,0
				c133.7-0.9,287.2-2.8,395.4-4.7c82.9-1.9,155.4-60.3,175.1-144.1l19.8-82.9C1042.3-3074.5,1045.1-3333.4,992.4-3582.9z"/>
			
				<linearGradient id="SVGID_13_" gradientUnits="userSpaceOnUse" x1="60.7224" y1="1111.009" x2="64.4237" y2="1160.3593" gradientTransform="matrix(9.4154 0 0 -9.4154 -5.094956e-004 7546.9834)">
				<stop  offset="0.1721" style="stop-color:#E4BE97"/>
				<stop  offset="0.4356" style="stop-color:#D1A283"/>
				<stop  offset="0.8" style="stop-color:#BB816B"/>
				<stop  offset="1" style="stop-color:#B37562"/>
			</linearGradient>
			<path fill="url(#SVGID_13_)" d="M844.6-3242.1c7.5,75.3-68.7,419.9-68.7,419.9l-452.9,20.7l33.9-585.6c0,0,152.5-74.4,302.2-18.8
				C813.5-3347.6,844.6-3242.1,844.6-3242.1z"/>
			
				<linearGradient id="SVGID_14_" gradientUnits="userSpaceOnUse" x1="-0.273" y1="1115.58" x2="3.4277" y2="1164.9222" gradientTransform="matrix(9.4154 0 0 -9.4154 -5.094956e-004 7546.9834)">
				<stop  offset="0.1721" style="stop-color:#E4BE97"/>
				<stop  offset="0.4356" style="stop-color:#D1A283"/>
				<stop  offset="0.8" style="stop-color:#BB816B"/>
				<stop  offset="1" style="stop-color:#B37562"/>
			</linearGradient>
			<path fill="url(#SVGID_14_)" d="M-248.6-3246.8c-13.2,75.3,51.8,391.7,51.8,391.7l451,50.8l24.5-526.3c0,0-161-110.2-330.5-66.8
				C-206.2-3357-248.6-3246.8-248.6-3246.8z"/>
			
				<linearGradient id="SVGID_15_" gradientUnits="userSpaceOnUse" x1="3266.8428" y1="1254.2209" x2="3266.8428" y2="1170.0377" gradientTransform="matrix(9.4154 -1.035692e-002 -1.035692e-002 -9.4154 -30427.3242 8471.4688)">
				<stop  offset="0.2033" style="stop-color:#E4BE97"/>
				<stop  offset="0.3574" style="stop-color:#E2B894"/>
				<stop  offset="0.5676" style="stop-color:#DDA68C"/>
				<stop  offset="0.8091" style="stop-color:#D58A7E"/>
				<stop  offset="1" style="stop-color:#CD6E71"/>
			</linearGradient>
			<path fill="url(#SVGID_15_)" d="M387-2757.2c-57.4-211.8-33-374.7,8.5-467.9c43.3-97,144.1-184.5,144.1-184.5l-244.8,10.4
				L97-3381.5c0,0,126.2,111.1,141.2,202.4c31.1,181.7,29.2,236.3-11.3,422.8c-55.6-34.8-124.3,0-105.5,59.3
				c15.1,47.1,113,87.6,185.5,87.6s170.4-41.4,185.5-88.5C511.3-2757.2,441.6-2791.1,387-2757.2z"/>
			
				<linearGradient id="SVGID_16_" gradientUnits="userSpaceOnUse" x1="3351.3616" y1="1196.4277" x2="3368.9226" y2="1193.5791" gradientTransform="matrix(9.4154 -1.035692e-002 -1.035692e-002 -9.4154 -30427.3242 8471.4688)">
				<stop  offset="6.060600e-002" style="stop-color:#B37562"/>
				<stop  offset="0.1396" style="stop-color:#BA806A"/>
				<stop  offset="0.4298" style="stop-color:#D1A282"/>
				<stop  offset="0.6696" style="stop-color:#DFB691"/>
				<stop  offset="0.8279" style="stop-color:#E4BE97"/>
			</linearGradient>
			<path fill="url(#SVGID_16_)" d="M1115.7-2646.1c0,0,80,0,122.4-41.4c41.4-41.4,42.4-294.7,42.4-294.7s-110.2-26.4-136.5,5.6
				C1116.7-2945.5,1109.1-2755.3,1115.7-2646.1z"/>
			
				<linearGradient id="SVGID_17_" gradientUnits="userSpaceOnUse" x1="-1588.8999" y1="1195.425" x2="-1571.2869" y2="1192.5681" gradientTransform="matrix(-9.4154 1.035692e-002 -1.035692e-002 -9.4154 -15408.7148 8448.2734)">
				<stop  offset="6.060600e-002" style="stop-color:#B37562"/>
				<stop  offset="0.1396" style="stop-color:#BA806A"/>
				<stop  offset="0.4298" style="stop-color:#D1A282"/>
				<stop  offset="0.6696" style="stop-color:#DFB691"/>
				<stop  offset="0.8279" style="stop-color:#E4BE97"/>
			</linearGradient>
			<path fill="url(#SVGID_17_)" d="M-462.3-2642.3c0,0-80,0-122.4-40.5c-41.4-41.4-42.4-293.8-42.4-293.8s110.2-26.4,136.5,4.7
				C-463.2-2941.8-455.7-2750.6-462.3-2642.3z"/>
			<path fill="#AE726F" d="M1280.5-2982.2c0,0-144.1-41.4-155.4-6.6c-39.5,127.1-11.3,332.4-11.3,332.4l1.9,9.4
				c0,0,11.3-306.9,33.9-320.1C1172.2-2980.4,1280.5-2982.2,1280.5-2982.2z"/>
			<path fill="#AE726F" d="M-627.1-2977.5c0,0,144.1-42.4,155.4-6.6c39.5,126.2,11.3,332.4,11.3,332.4l-1.9,9.4
				c0,0-11.3-306.9-33.9-320.1S-627.1-2977.5-627.1-2977.5z"/>
			
				<linearGradient id="SVGID_18_" gradientUnits="userSpaceOnUse" x1="-180.6457" y1="1627.8792" x2="-180.6457" y2="1604.1941" gradientTransform="matrix(9.0821 -1.5837 1.6176 9.276 -958.0552 -18281.5508)">
				<stop  offset="0.1" style="stop-color:#7D5D4C"/>
				<stop  offset="0.92" style="stop-color:#452723"/>
			</linearGradient>
			<path fill="url(#SVGID_18_)" d="M-181.7-3072.6c85.7,98.9,301.3,85.7,369.1-8.5C133.7-2866.4-131.8-2886.2-181.7-3072.6z"/>
			
				<linearGradient id="SVGID_19_" gradientUnits="userSpaceOnUse" x1="2510.3303" y1="2087.2913" x2="2510.3303" y2="2063.6062" gradientTransform="matrix(-9.0821 -1.5837 -1.6176 9.276 26756.623 -18281.5508)">
				<stop  offset="0.1" style="stop-color:#7D5D4C"/>
				<stop  offset="0.92" style="stop-color:#452723"/>
			</linearGradient>
			<path fill="url(#SVGID_19_)" d="M797.5-3072.6c-85.7,98.9-301.3,85.7-369.1-8.5C482.1-2866.4,748.5-2886.2,797.5-3072.6z"/>
			<path fill="#E4BE97" d="M625.2-2471c-65,147.8-379.4,401.1-629.9-12.2C140.3-2407,509.4-2407,625.2-2471z"/>
			
				<linearGradient id="SVGID_20_" gradientUnits="userSpaceOnUse" x1="521.1727" y1="1410.243" x2="533.5895" y2="1378.9819" gradientTransform="matrix(-8.4578 1.5027 -1.6477 -9.2704 7420.0371 8763.2207)">
				<stop  offset="0" style="stop-color:#7D5D4C"/>
				<stop  offset="0.8352" style="stop-color:#452723"/>
			</linearGradient>
			<path fill="url(#SVGID_20_)" d="M433.1-3281.6c0,0,256.1-50.8,452.9,99.8c0,0,8.5-147.8-23.5-187.4c-4.7-5.6-12.2-14.1-22.6-23.5
				l-6.6,56.5l-10.4-71.6c-65-57.4-196.8-145.9-337.1-131.8l-15.1,104.5l-7.5-101.7c-9.4,1.9-19.8,3.8-29.2,6.6
				C402-3434.2,433.1-3281.6,433.1-3281.6z"/>
			
				<linearGradient id="SVGID_21_" gradientUnits="userSpaceOnUse" x1="-81.6711" y1="976.9544" x2="-69.2632" y2="945.7157" gradientTransform="matrix(8.5162 1.256 1.3737 -9.3146 -714.8238 5689.2017)">
				<stop  offset="0" style="stop-color:#7D5D4C"/>
				<stop  offset="0.8352" style="stop-color:#452723"/>
			</linearGradient>
			<path fill="url(#SVGID_21_)" d="M194.9-3276c0,0-258-43.3-451,113.9c0,0-13.2-147.8,17.9-188.3c4.7-5.6,12.2-14.1,22.6-24.5
				l8.5,56.5l7.5-71.6c64-59.3,193-151.6,334.2-142.2l17.9,104.5l4.7-101.7c9.4,1.9,19.8,3.8,29.2,5.6
				C222.2-3428.5,194.9-3276,194.9-3276z"/>
		</g>
		<g>
			<path fill="#101221" d="M556.4,3392c87.6-5.6,258.9,19.8,258.9,19.8l10.4,102.6l-44.3,6.6c0,0,95.1,116.8,98.9,210.9
				c4.7,94.2-12.2,252.3-12.2,252.3s-115.8-44.3-157.2-177c-41.4-132.8-32-245.7-32-245.7l-117.7-80L556.4,3392z"/>
			<path fill="#6A6C76" d="M685.4,3791.2c4.7-14.1,37.7-131.8,37.7-131.8l-12.2-39.5l-49.9,87.6L685.4,3791.2z"/>
		</g>
		<path fill="#425168" d="M-1901.9,2648.2c-72.5,467.9,1549.8,856.8,2514.8,909.5c39.5-72.5,52.7-191.1,52.7-191.1
			s-1469.7-612.9-1780.4-777.7S-1901.9,2648.2-1901.9,2648.2z"/>
		<path fill="#47677E" d="M-26.4,870.5c-113-235.4-199.6-671.3-322-1107.2c-34.8-125.2-11.3-258.9,64-364.4l40.5-56.5l-48,14.1
			c-92.3,27.3-191.1-18.8-227.9-108.3c-70.6-171.4-158.2-340.8-245.7-465.1c96-82.9,184.5-210.9,210.9-279.6
			C-94.2-919.3,6.6,75.9-26.4,870.5z"/>
		<path fill="#47677E" d="M629.9,870.5c113-235.4,199.6-670.4,322.9-1107.2c34.8-125.2,11.3-258.9-64-364.4l-40.5-56.5l48,14.1
			c92.3,27.3,191.1-18.8,227.9-108.3c70.6-171.4,158.2-340.8,245.7-465.1c-96-82.9-184.5-210.9-210.9-279.6
			C697.7-919.3,596.9,75.9,629.9,870.5z"/>
		<path fill="#F3F3EF" d="M-176.1-1708.3l-132.8,258c0,0,305.1,126.2,437.8,172.3c46.1-112,172.3-297.5,172.3-297.5
			S36.7-1588.8-176.1-1708.3z"/>
		<path fill="#F3F3EF" d="M779.6-1708.3l132.8,258c0,0-305.1,126.2-437.8,172.3c-46.1-112-172.3-297.5-172.3-297.5
			S567.7-1588.8,779.6-1708.3z"/>
		<polygon fill="#676767" points="201.5,2121.8 194,2316.7 419,2328 425.6,2118.1 		"/>
	</g>
	<path fill="#DCDCDC" d="M2281.3,5142.3c0,0-944.4,140.3-2110,140.3s-2110-140.3-2110-140.3s944.4-140.3,2110-140.3
		C1336,5002,2281.3,5142.3,2281.3,5142.3z"/>
</g>
</svg>
